<svg xmlns="http://www.w3.org/2000/svg" width="613.119" height="494.702" viewBox="0 0 613.119 494.702">
  <g id="Grupo_10633" data-name="Grupo 10633" transform="translate(1327.381 -71)">
    <g id="Grupo_10607" data-name="Grupo 10607" transform="translate(-1200.423 186.523)">
      <ellipse id="Elipse_628" data-name="Elipse 628" cx="138.108" cy="40.887" rx="138.108" ry="40.887" transform="translate(50.445 267.761)" fill="#b1bee8" opacity="0.7"/>
      <g id="Grupo_10605" data-name="Grupo 10605">
        <g id="Grupo_10603" data-name="Grupo 10603" transform="translate(134.983 248.562)">
          <path id="Trazado_9827" data-name="Trazado 9827" d="M-961.753,543.416s1.1,17.226-2.6,29.1c-6.091,19.521-23.145,21.572-23.145,31.941,0,.2,107.139.237,107.139,0,0-9.9-16.156-13.042-21.767-31.231-4.2-13.628-1.774-29.812-1.774-29.812Z" transform="translate(987.501 -543.416)" fill="#ededf2"/>
          <rect id="Rectángulo_3028" data-name="Rectángulo 3028" width="107.122" height="4.732" transform="translate(0.017 60.866)" fill="#d7d7e2"/>
        </g>
        <g id="Grupo_10604" data-name="Grupo 10604">
          <rect id="Rectángulo_3029" data-name="Rectángulo 3029" width="377.619" height="258.371" rx="15" fill="#fff"/>
          <rect id="Rectángulo_3030" data-name="Rectángulo 3030" width="344.967" height="201.586" transform="translate(16.069 17.164)" fill="#76a0ff"/>
        </g>
        <circle id="Elipse_629" data-name="Elipse 629" cx="8.518" cy="8.518" r="8.518" transform="translate(180.035 230.106)" fill="#b1bee8" opacity="0.7"/>
      </g>
      <g id="Grupo_10606" data-name="Grupo 10606" transform="translate(38.117 45.967)">
        <path id="Trazado_9828" data-name="Trazado 9828" d="M-1065.946,283.561H-1087a1.447,1.447,0,0,1-1.373-1.511A1.447,1.447,0,0,1-1087,280.54h21.054a1.447,1.447,0,0,1,1.373,1.511A1.447,1.447,0,0,1-1065.946,283.561Z" transform="translate(1107.499 -280.54)" fill="#fff"/>
        <path id="Trazado_9829" data-name="Trazado 9829" d="M-1002.9,283.561h-46.686a1.447,1.447,0,0,1-1.373-1.511,1.447,1.447,0,0,1,1.373-1.511h46.686a1.447,1.447,0,0,1,1.373,1.511A1.447,1.447,0,0,1-1002.9,283.561Z" transform="translate(1098.919 -280.54)" fill="#0944ad"/>
        <path id="Trazado_9830" data-name="Trazado 9830" d="M-838.1,283.561h-31.238a1.447,1.447,0,0,1-1.373-1.511,1.447,1.447,0,0,1,1.373-1.511H-838.1a1.447,1.447,0,0,1,1.373,1.511A1.447,1.447,0,0,1-838.1,283.561Z" transform="translate(1057.587 -280.54)" fill="#0944ad"/>
        <path id="Trazado_9831" data-name="Trazado 9831" d="M-902.573,283.561h-72.775a1.447,1.447,0,0,1-1.373-1.511,1.447,1.447,0,0,1,1.373-1.511h72.775a1.447,1.447,0,0,1,1.373,1.511A1.447,1.447,0,0,1-902.573,283.561Z" transform="translate(1081.896 -280.54)" fill="#ff5757"/>
        <path id="Trazado_9832" data-name="Trazado 9832" d="M-1053.588,297.28H-1087a1.447,1.447,0,0,1-1.373-1.511,1.446,1.446,0,0,1,1.373-1.51h33.411a1.446,1.446,0,0,1,1.373,1.51A1.447,1.447,0,0,1-1053.588,297.28Z" transform="translate(1107.499 -283.686)" fill="#fff"/>
        <path id="Trazado_9833" data-name="Trazado 9833" d="M-982.744,297.28h-50.805a1.447,1.447,0,0,1-1.373-1.511,1.446,1.446,0,0,1,1.373-1.51h50.805a1.446,1.446,0,0,1,1.373,1.51A1.446,1.446,0,0,1-982.744,297.28Z" transform="translate(1095.242 -283.686)" fill="#0944ad"/>
        <path id="Trazado_9834" data-name="Trazado 9834" d="M-817.741,297.28h-47.144a1.447,1.447,0,0,1-1.373-1.511,1.446,1.446,0,0,1,1.373-1.51h47.144a1.446,1.446,0,0,1,1.373,1.51A1.446,1.446,0,0,1-817.741,297.28Z" transform="translate(1056.565 -283.686)" fill="#0944ad"/>
        <path id="Trazado_9835" data-name="Trazado 9835" d="M-895.061,297.28h-59.5a1.447,1.447,0,0,1-1.373-1.511,1.446,1.446,0,0,1,1.373-1.51h59.5a1.446,1.446,0,0,1,1.373,1.51A1.446,1.446,0,0,1-895.061,297.28Z" transform="translate(1077.13 -283.686)" fill="#0944ad"/>
        <path id="Trazado_9836" data-name="Trazado 9836" d="M-1047.8,312.96h-24.945a1.447,1.447,0,0,1-1.373-1.511,1.447,1.447,0,0,1,1.373-1.511h24.945a1.446,1.446,0,0,1,1.373,1.511A1.447,1.447,0,0,1-1047.8,312.96Z" transform="translate(1104.231 -287.282)" fill="#fff"/>
        <path id="Trazado_9837" data-name="Trazado 9837" d="M-971.995,312.96h-58.586a1.447,1.447,0,0,1-1.373-1.511,1.447,1.447,0,0,1,1.373-1.511h58.586a1.446,1.446,0,0,1,1.373,1.511A1.447,1.447,0,0,1-971.995,312.96Z" transform="translate(1094.562 -287.282)" fill="#0944ad"/>
        <path id="Trazado_9838" data-name="Trazado 9838" d="M-1064.969,326.679h-7.778a1.447,1.447,0,0,1-1.373-1.51,1.447,1.447,0,0,1,1.373-1.511h7.778a1.447,1.447,0,0,1,1.373,1.511A1.447,1.447,0,0,1-1064.969,326.679Z" transform="translate(1104.231 -290.428)" fill="#fff"/>
        <path id="Trazado_9839" data-name="Trazado 9839" d="M-985.87,326.679h-62.973a1.447,1.447,0,0,1-1.373-1.51,1.447,1.447,0,0,1,1.373-1.511h62.973a1.447,1.447,0,0,1,1.373,1.511A1.447,1.447,0,0,1-985.87,326.679Z" transform="translate(1098.749 -290.428)" fill="#ff5757"/>
        <path id="Trazado_9840" data-name="Trazado 9840" d="M-886.354,326.679h-68.162a1.447,1.447,0,0,1-1.373-1.51,1.447,1.447,0,0,1,1.373-1.511h68.162a1.447,1.447,0,0,1,1.373,1.511A1.447,1.447,0,0,1-886.354,326.679Z" transform="translate(1077.119 -290.428)" fill="#0944ad"/>
        <path id="Trazado_9841" data-name="Trazado 9841" d="M-820.689,326.679h-31.924a1.447,1.447,0,0,1-1.373-1.51,1.447,1.447,0,0,1,1.373-1.511h31.924a1.447,1.447,0,0,1,1.373,1.511A1.447,1.447,0,0,1-820.689,326.679Z" transform="translate(1053.751 -290.428)" fill="#0944ad"/>
        <path id="Trazado_9842" data-name="Trazado 9842" d="M-1009.694,326.679h-39.149a1.447,1.447,0,0,1-1.373-1.51,1.447,1.447,0,0,1,1.373-1.511h39.149a1.447,1.447,0,0,1,1.373,1.511A1.447,1.447,0,0,1-1009.694,326.679Z" transform="translate(1098.749 -290.428)" fill="#0944ad"/>
        <path id="Trazado_9843" data-name="Trazado 9843" d="M-1056.921,342.358h-15.825a1.447,1.447,0,0,1-1.373-1.511,1.447,1.447,0,0,1,1.373-1.511h15.825a1.447,1.447,0,0,1,1.373,1.511A1.447,1.447,0,0,1-1056.921,342.358Z" transform="translate(1104.231 -294.023)" fill="#fff"/>
        <path id="Trazado_9844" data-name="Trazado 9844" d="M-1004.54,342.358h-36.731a1.447,1.447,0,0,1-1.373-1.511,1.447,1.447,0,0,1,1.373-1.511h36.731a1.447,1.447,0,0,1,1.373,1.511A1.446,1.446,0,0,1-1004.54,342.358Z" transform="translate(1097.013 -294.023)" fill="#0944ad"/>
        <path id="Trazado_9845" data-name="Trazado 9845" d="M-917.7,342.358h-65.222a1.447,1.447,0,0,1-1.373-1.511,1.447,1.447,0,0,1,1.373-1.511H-917.7a1.447,1.447,0,0,1,1.373,1.511A1.447,1.447,0,0,1-917.7,342.358Z" transform="translate(1083.632 -294.023)" fill="#0944ad"/>
        <path id="Trazado_9846" data-name="Trazado 9846" d="M-1046.478,358.037h-15.727a1.446,1.446,0,0,1-1.373-1.511,1.446,1.446,0,0,1,1.373-1.51h15.727a1.446,1.446,0,0,1,1.373,1.51A1.446,1.446,0,0,1-1046.478,358.037Z" transform="translate(1101.813 -297.619)" fill="#fff"/>
        <path id="Trazado_9847" data-name="Trazado 9847" d="M-986.8,358.037h-47.46a1.447,1.447,0,0,1-1.373-1.511,1.446,1.446,0,0,1,1.373-1.51h47.46a1.446,1.446,0,0,1,1.373,1.51A1.447,1.447,0,0,1-986.8,358.037Z" transform="translate(1095.404 -297.619)" fill="#0944ad"/>
        <path id="Trazado_9848" data-name="Trazado 9848" d="M-940.164,358.037h-16.477a1.447,1.447,0,0,1-1.373-1.511,1.446,1.446,0,0,1,1.373-1.51h16.477a1.446,1.446,0,0,1,1.373,1.51A1.447,1.447,0,0,1-940.164,358.037Z" transform="translate(1077.606 -297.619)" fill="#ff5757"/>
        <path id="Trazado_9849" data-name="Trazado 9849" d="M-1046.478,373.717h-15.727a1.447,1.447,0,0,1-1.373-1.511,1.447,1.447,0,0,1,1.373-1.511h15.727a1.447,1.447,0,0,1,1.373,1.511A1.447,1.447,0,0,1-1046.478,373.717Z" transform="translate(1101.813 -301.214)" fill="#fff"/>
        <path id="Trazado_9850" data-name="Trazado 9850" d="M-994.693,373.717h-39.565a1.447,1.447,0,0,1-1.373-1.511,1.447,1.447,0,0,1,1.373-1.511h39.565a1.447,1.447,0,0,1,1.373,1.511A1.447,1.447,0,0,1-994.693,373.717Z" transform="translate(1095.404 -301.214)" fill="#0944ad"/>
        <path id="Trazado_9851" data-name="Trazado 9851" d="M-945.827,373.717h-29.522a1.447,1.447,0,0,1-1.373-1.511,1.447,1.447,0,0,1,1.373-1.511h29.522a1.447,1.447,0,0,1,1.373,1.511A1.447,1.447,0,0,1-945.827,373.717Z" transform="translate(1081.896 -301.214)" fill="#0944ad"/>
        <path id="Trazado_9852" data-name="Trazado 9852" d="M-1046.478,389.4h-15.727a1.447,1.447,0,0,1-1.373-1.511,1.447,1.447,0,0,1,1.373-1.511h15.727a1.447,1.447,0,0,1,1.373,1.511A1.447,1.447,0,0,1-1046.478,389.4Z" transform="translate(1101.813 -304.809)" fill="#fff"/>
        <path id="Trazado_9853" data-name="Trazado 9853" d="M-1015.633,389.4h-18.624a1.447,1.447,0,0,1-1.373-1.511,1.447,1.447,0,0,1,1.373-1.511h18.624a1.447,1.447,0,0,1,1.373,1.511A1.447,1.447,0,0,1-1015.633,389.4Z" transform="translate(1095.404 -304.809)" fill="#0944ad"/>
        <path id="Trazado_9854" data-name="Trazado 9854" d="M-863.838,389.4h-76.323a1.447,1.447,0,0,1-1.373-1.511,1.447,1.447,0,0,1,1.373-1.511h76.323a1.447,1.447,0,0,1,1.373,1.511A1.447,1.447,0,0,1-863.838,389.4Z" transform="translate(1073.827 -304.809)" fill="#0944ad"/>
        <path id="Trazado_9855" data-name="Trazado 9855" d="M-964.731,389.4H-999.4a1.447,1.447,0,0,1-1.373-1.511,1.447,1.447,0,0,1,1.373-1.511h34.671a1.447,1.447,0,0,1,1.373,1.511A1.447,1.447,0,0,1-964.731,389.4Z" transform="translate(1087.411 -304.809)" fill="#ff5757"/>
        <path id="Trazado_9856" data-name="Trazado 9856" d="M-1020.413,405.075h-13.731a1.447,1.447,0,0,1-1.373-1.511,1.447,1.447,0,0,1,1.373-1.511h13.731a1.447,1.447,0,0,1,1.373,1.511A1.447,1.447,0,0,1-1020.413,405.075Z" transform="translate(1095.379 -308.405)" fill="#fff"/>
        <path id="Trazado_9857" data-name="Trazado 9857" d="M-972.979,405.075h-33.953a1.447,1.447,0,0,1-1.373-1.511,1.447,1.447,0,0,1,1.373-1.511h33.953a1.447,1.447,0,0,1,1.373,1.511A1.447,1.447,0,0,1-972.979,405.075Z" transform="translate(1089.139 -308.405)" fill="#0944ad"/>
        <path id="Trazado_9858" data-name="Trazado 9858" d="M-917.962,405.075h-34.671a1.447,1.447,0,0,1-1.373-1.511,1.447,1.447,0,0,1,1.373-1.511h34.671a1.447,1.447,0,0,1,1.373,1.511A1.447,1.447,0,0,1-917.962,405.075Z" transform="translate(1076.687 -308.405)" fill="#0944ad"/>
        <path id="Trazado_9859" data-name="Trazado 9859" d="M-1024.189,420.754h-9.956a1.447,1.447,0,0,1-1.373-1.511,1.446,1.446,0,0,1,1.373-1.51h9.956a1.446,1.446,0,0,1,1.373,1.51A1.446,1.446,0,0,1-1024.189,420.754Z" transform="translate(1095.379 -312)" fill="#fff"/>
        <path id="Trazado_9860" data-name="Trazado 9860" d="M-992.882,420.754h-23a1.447,1.447,0,0,1-1.373-1.511,1.446,1.446,0,0,1,1.373-1.51h23a1.446,1.446,0,0,1,1.373,1.51A1.446,1.446,0,0,1-992.882,420.754Z" transform="translate(1091.191 -312)" fill="#0944ad"/>
        <path id="Trazado_9861" data-name="Trazado 9861" d="M-833.981,420.754H-935.707a1.447,1.447,0,0,1-1.373-1.511,1.447,1.447,0,0,1,1.373-1.51h101.725a1.446,1.446,0,0,1,1.373,1.51A1.446,1.446,0,0,1-833.981,420.754Z" transform="translate(1072.806 -312)" fill="#ff5757"/>
        <path id="Trazado_9862" data-name="Trazado 9862" d="M-951.319,420.754h-24.029a1.447,1.447,0,0,1-1.373-1.511,1.446,1.446,0,0,1,1.373-1.51h24.029a1.446,1.446,0,0,1,1.373,1.51A1.447,1.447,0,0,1-951.319,420.754Z" transform="translate(1081.896 -312)" fill="#0944ad"/>
        <path id="Trazado_9863" data-name="Trazado 9863" d="M-1018.832,436.434h-15.313a1.447,1.447,0,0,1-1.373-1.511,1.447,1.447,0,0,1,1.373-1.51h15.313a1.446,1.446,0,0,1,1.373,1.51A1.446,1.446,0,0,1-1018.832,436.434Z" transform="translate(1095.379 -315.596)" fill="#fff"/>
        <path id="Trazado_9864" data-name="Trazado 9864" d="M-965.656,436.434h-41.276a1.447,1.447,0,0,1-1.373-1.511,1.447,1.447,0,0,1,1.373-1.51h41.276a1.447,1.447,0,0,1,1.373,1.51A1.447,1.447,0,0,1-965.656,436.434Z" transform="translate(1089.139 -315.596)" fill="#0944ad"/>
        <path id="Trazado_9865" data-name="Trazado 9865" d="M-828.983,436.434h-51.492a1.447,1.447,0,0,1-1.373-1.511,1.447,1.447,0,0,1,1.373-1.51h51.492a1.446,1.446,0,0,1,1.373,1.51A1.447,1.447,0,0,1-828.983,436.434Z" transform="translate(1060.14 -315.596)" fill="#0944ad"/>
        <path id="Trazado_9866" data-name="Trazado 9866" d="M-902.706,436.434H-941.5a1.447,1.447,0,0,1-1.373-1.511,1.447,1.447,0,0,1,1.373-1.51h38.79a1.447,1.447,0,0,1,1.373,1.51A1.447,1.447,0,0,1-902.706,436.434Z" transform="translate(1074.133 -315.596)" fill="#0944ad"/>
        <path id="Trazado_9867" data-name="Trazado 9867" d="M-1018.832,452.113h-15.313a1.447,1.447,0,0,1-1.373-1.511,1.447,1.447,0,0,1,1.373-1.51h15.313a1.446,1.446,0,0,1,1.373,1.51A1.446,1.446,0,0,1-1018.832,452.113Z" transform="translate(1095.379 -319.191)" fill="#fff"/>
        <path id="Trazado_9868" data-name="Trazado 9868" d="M-972.979,452.113h-33.953a1.447,1.447,0,0,1-1.373-1.511,1.447,1.447,0,0,1,1.373-1.51h33.953a1.447,1.447,0,0,1,1.373,1.51A1.447,1.447,0,0,1-972.979,452.113Z" transform="translate(1089.139 -319.191)" fill="#0944ad"/>
        <path id="Trazado_9869" data-name="Trazado 9869" d="M-847.208,452.113h-52.865a1.447,1.447,0,0,1-1.373-1.511,1.447,1.447,0,0,1,1.373-1.51h52.865a1.447,1.447,0,0,1,1.373,1.51A1.447,1.447,0,0,1-847.208,452.113Z" transform="translate(1064.634 -319.191)" fill="#0944ad"/>
        <path id="Trazado_9870" data-name="Trazado 9870" d="M-921.32,452.113H-955.3a1.447,1.447,0,0,1-1.373-1.511,1.447,1.447,0,0,1,1.373-1.51h33.984a1.447,1.447,0,0,1,1.373,1.51A1.447,1.447,0,0,1-921.32,452.113Z" transform="translate(1077.3 -319.191)" fill="#0944ad"/>
        <path id="Trazado_9871" data-name="Trazado 9871" d="M-1018.832,467.792h-15.313a1.447,1.447,0,0,1-1.373-1.511,1.447,1.447,0,0,1,1.373-1.511h15.313a1.446,1.446,0,0,1,1.373,1.511A1.446,1.446,0,0,1-1018.832,467.792Z" transform="translate(1095.379 -322.787)" fill="#fff"/>
        <path id="Trazado_9872" data-name="Trazado 9872" d="M-1106.324,283.561h-5.493a1.447,1.447,0,0,1-1.373-1.511,1.447,1.447,0,0,1,1.373-1.511h5.493a1.447,1.447,0,0,1,1.373,1.511A1.447,1.447,0,0,1-1106.324,283.561Z" transform="translate(1113.19 -280.54)" fill="#fff"/>
        <path id="Trazado_9873" data-name="Trazado 9873" d="M-1106.324,297.28h-5.493a1.447,1.447,0,0,1-1.373-1.511,1.446,1.446,0,0,1,1.373-1.51h5.493a1.446,1.446,0,0,1,1.373,1.51A1.446,1.446,0,0,1-1106.324,297.28Z" transform="translate(1113.19 -283.686)" fill="#fff"/>
        <path id="Trazado_9874" data-name="Trazado 9874" d="M-1106.324,312.96h-5.493a1.447,1.447,0,0,1-1.373-1.511,1.447,1.447,0,0,1,1.373-1.511h5.493a1.446,1.446,0,0,1,1.373,1.511A1.447,1.447,0,0,1-1106.324,312.96Z" transform="translate(1113.19 -287.282)" fill="#fff"/>
        <path id="Trazado_9875" data-name="Trazado 9875" d="M-1106.324,326.679h-5.493a1.447,1.447,0,0,1-1.373-1.51,1.447,1.447,0,0,1,1.373-1.511h5.493a1.447,1.447,0,0,1,1.373,1.511A1.447,1.447,0,0,1-1106.324,326.679Z" transform="translate(1113.19 -290.428)" fill="#fff"/>
        <path id="Trazado_9876" data-name="Trazado 9876" d="M-1106.324,342.358h-5.493a1.447,1.447,0,0,1-1.373-1.511,1.447,1.447,0,0,1,1.373-1.511h5.493a1.447,1.447,0,0,1,1.373,1.511A1.446,1.446,0,0,1-1106.324,342.358Z" transform="translate(1113.19 -294.023)" fill="#fff"/>
        <path id="Trazado_9877" data-name="Trazado 9877" d="M-1106.324,358.037h-5.493a1.447,1.447,0,0,1-1.373-1.511,1.446,1.446,0,0,1,1.373-1.51h5.493a1.446,1.446,0,0,1,1.373,1.51A1.446,1.446,0,0,1-1106.324,358.037Z" transform="translate(1113.19 -297.619)" fill="#fff"/>
        <path id="Trazado_9878" data-name="Trazado 9878" d="M-1106.324,373.717h-5.493a1.447,1.447,0,0,1-1.373-1.511,1.447,1.447,0,0,1,1.373-1.511h5.493a1.447,1.447,0,0,1,1.373,1.511A1.447,1.447,0,0,1-1106.324,373.717Z" transform="translate(1113.19 -301.214)" fill="#fff"/>
        <path id="Trazado_9879" data-name="Trazado 9879" d="M-1106.324,389.4h-5.493a1.447,1.447,0,0,1-1.373-1.511,1.447,1.447,0,0,1,1.373-1.511h5.493a1.447,1.447,0,0,1,1.373,1.511A1.447,1.447,0,0,1-1106.324,389.4Z" transform="translate(1113.19 -304.809)" fill="#fff"/>
        <path id="Trazado_9880" data-name="Trazado 9880" d="M-1106.324,405.075h-5.493a1.447,1.447,0,0,1-1.373-1.511,1.447,1.447,0,0,1,1.373-1.511h5.493a1.447,1.447,0,0,1,1.373,1.511A1.447,1.447,0,0,1-1106.324,405.075Z" transform="translate(1113.19 -308.405)" fill="#fff"/>
        <path id="Trazado_9881" data-name="Trazado 9881" d="M-1106.324,420.754h-5.493a1.447,1.447,0,0,1-1.373-1.511,1.446,1.446,0,0,1,1.373-1.51h5.493a1.446,1.446,0,0,1,1.373,1.51A1.446,1.446,0,0,1-1106.324,420.754Z" transform="translate(1113.19 -312)" fill="#fff"/>
        <path id="Trazado_9882" data-name="Trazado 9882" d="M-1106.324,436.434h-5.493a1.447,1.447,0,0,1-1.373-1.511,1.447,1.447,0,0,1,1.373-1.51h5.493a1.446,1.446,0,0,1,1.373,1.51A1.447,1.447,0,0,1-1106.324,436.434Z" transform="translate(1113.19 -315.596)" fill="#fff"/>
        <path id="Trazado_9883" data-name="Trazado 9883" d="M-1106.324,452.113h-5.493a1.447,1.447,0,0,1-1.373-1.511,1.447,1.447,0,0,1,1.373-1.51h5.493a1.447,1.447,0,0,1,1.373,1.51A1.447,1.447,0,0,1-1106.324,452.113Z" transform="translate(1113.19 -319.191)" fill="#fff"/>
        <path id="Trazado_9884" data-name="Trazado 9884" d="M-1106.324,467.792h-5.493a1.447,1.447,0,0,1-1.373-1.511,1.447,1.447,0,0,1,1.373-1.511h5.493a1.447,1.447,0,0,1,1.373,1.511A1.446,1.446,0,0,1-1106.324,467.792Z" transform="translate(1113.19 -322.787)" fill="#fff"/>
        <path id="Trazado_9885" data-name="Trazado 9885" d="M-987.051,467.792h-20.368a1.447,1.447,0,0,1-1.373-1.511,1.447,1.447,0,0,1,1.373-1.511h20.368a1.447,1.447,0,0,1,1.373,1.511A1.447,1.447,0,0,1-987.051,467.792Z" transform="translate(1089.25 -322.787)" fill="#0944ad"/>
        <path id="Trazado_9886" data-name="Trazado 9886" d="M-925.574,467.792h-49.775a1.447,1.447,0,0,1-1.373-1.511,1.447,1.447,0,0,1,1.373-1.511h49.775a1.447,1.447,0,0,1,1.373,1.511A1.447,1.447,0,0,1-925.574,467.792Z" transform="translate(1081.896 -322.787)" fill="#ff5757"/>
      </g>
    </g>
    <g id="Grupo_10608" data-name="Grupo 10608" transform="translate(-975.199 100.896)">
      <path id="Trazado_9887" data-name="Trazado 9887" d="M-854.131,199.456a138.177,138.177,0,0,0,24.289,1.859c16.009-.19,24.458-3.086,25.378-.769,1.039,2.618-8.022,10.679-18.585,12.433-4.513.749-10.336-.975-21.982-4.422-3.371-1-7.5-2.368-8.78-5.832A6.806,6.806,0,0,1-854.131,199.456Z" transform="translate(866.693 -130.353)" fill="#061230"/>
      <path id="Trazado_9888" data-name="Trazado 9888" d="M-853.231,236.183c-1.779-.992-3.067-1.254-2.5-3.973.741-3.548,3.921-4.581,5.447-5,8.6-2.355,16.69-3.407,18.392-3.077.583,2.333,1.981,3.628,2.564,5.96-4.168.9-7.45,2.116-12.3,3.461C-846.646,234.947-850.938,237.462-853.231,236.183Z" transform="translate(867.075 -135.999)" fill="#f4ae92"/>
      <path id="Trazado_9889" data-name="Trazado 9889" d="M-845.669,161.64c-1.236-3.1.507-8.21,2.334-10.766,2.153-1.561,4.455-2.552,9.352-3.9a37.3,37.3,0,0,1,12.38-1.077c7.854.685,13.4,3.1,16.148,5.046,1.71,2.2,3.607,6.424,2.595,9.418C-806.227,170.321-841.7,171.589-845.669,161.64Z" transform="translate(864.832 -118.043)" fill="#ff5757"/>
      <path id="Trazado_9890" data-name="Trazado 9890" d="M-852.722,194.327l50.06-.134c.789-1.553,1.48-30.278,1.48-30.278l-53.559.134S-853.472,192.919-852.722,194.327Z" transform="translate(866.817 -122.203)" fill="#fff"/>
      <rect id="Rectángulo_3031" data-name="Rectángulo 3031" width="19.514" height="15.092" transform="translate(30.362 14.214)" fill="#063e8e"/>
      <path id="Trazado_9891" data-name="Trazado 9891" d="M-814.092,139.941c-.359,2.556-1.279,5.517-.337,8.209-2.243.18-5.427-.381-7.671-.2a21.726,21.726,0,0,0-1.211-8.478C-820.126,139.739-817.277,139.671-814.092,139.941Z" transform="translate(859.609 -116.597)" fill="#e89c82"/>
      <ellipse id="Elipse_630" data-name="Elipse 630" cx="8.252" cy="10.51" rx="8.252" ry="10.51" transform="translate(32.622 5.754)" fill="#f4ae92"/>
      <path id="Trazado_9892" data-name="Trazado 9892" d="M-798.265,235.212c1.9-.738,3.211-.82,3.023-3.591-.247-3.616-3.253-5.077-4.707-5.7-8.2-3.517-16.063-5.671-17.794-5.578-.9,2.23-2.461,3.32-3.359,5.55,4,1.467,7.088,3.12,11.711,5.121C-804.617,233.08-800.712,236.163-798.265,235.212Z" transform="translate(859.103 -135.142)" fill="#f4ae92"/>
      <path id="Trazado_9893" data-name="Trazado 9893" d="M-797.287,226.882s10.445,3.522,6.9,8.982c-2.956,4.558-12.38-2.173-12.38-2.173s3.89.4,5.135-1.1A4.673,4.673,0,0,0-797.287,226.882Z" transform="translate(854.898 -136.642)" fill="#061230"/>
      <path id="Trazado_9894" data-name="Trazado 9894" d="M-817.621,145.895a37.949,37.949,0,0,0-11.1.755c.042,2.969,3.864,5.368,8.576,5.368,4.565,0,8.295-2.251,8.562-5.09A37.246,37.246,0,0,0-817.621,145.895Z" transform="translate(860.85 -118.043)" fill="#e89c82"/>
      <path id="Trazado_9895" data-name="Trazado 9895" d="M-819.4,116.123a6.7,6.7,0,0,1-1.955,3.757c-3.061,3.118-5.712,3.647-7.469,5.853-1.533,1.926-1.464,7.637,2.455,16.008-3.514,2-6.7-.112-7.5-.674-3.124-2.21-2.279-13.1,0-19.708,1.359-3.946,2.936-8.524,7.469-10.563.469-.212,4.76-2.065,8.814-.135,4.024,1.916,5.571,6.382,7.271,12.671,1.036,3.83,2.116,13.6.913,16.053-1.385,2.825-4.646,3.045-6.974,2.428,3.61-3.486,3.321-14.178,2.889-17.329A10.386,10.386,0,0,0-819.4,116.123Z" transform="translate(862.497 -109.792)" fill="#0944ad"/>
      <path id="Trazado_9896" data-name="Trazado 9896" d="M-832.474,217.765c7.159-2.455,15.007-8.182,18.5-10.526,7.312-4.9,11.351-9.083,18.053-10.254,1.682-.294,7.074-.788,9.891,2.893,2.458,3.211,1.554,7.865-.673,11.169-3.019,4.481-8.169,6.2-19.243,9.555-4.51,1.367-15,3.253-23.648,6.295C-831.877,224.475-832.608,222.609-832.474,217.765Z" transform="translate(861.714 -129.74)" fill="#0944ad"/>
      <path id="Trazado_9897" data-name="Trazado 9897" d="M-849.079,227.729s-10.83,2.051-8.075,7.947c2.3,4.922,12.561-.449,12.561-.449s-3.907-.138-4.935-1.794A4.673,4.673,0,0,1-849.079,227.729Z" transform="translate(867.473 -136.836)" fill="#061230"/>
      <path id="Trazado_9898" data-name="Trazado 9898" d="M-827.648,212.827c-6.34-2.479-11.746-4.449-15.412-5.083-6.152-1.063-11.286-1.151-13.389-4.71a5.493,5.493,0,0,1-.5-3.633c-3.776-1.353-8.226-.9-10.8,1.682a9.637,9.637,0,0,0-1.884,10.429c2.048,4.343,11.661,6.554,15.843,7.516,1.467.337,10.526,1.778,16.79-.922C-832.7,216.25-829.507,214.571-827.648,212.827Z" transform="translate(870.41 -130.17)" fill="#0944ad"/>
      <path id="Trazado_9899" data-name="Trazado 9899" d="M-817.078,179.929a4.005,4.005,0,0,1-4.005,4.005,4.005,4.005,0,0,1-4.005-4.005,4.005,4.005,0,0,1,4.005-4.005A4.005,4.005,0,0,1-817.078,179.929Z" transform="translate(860.017 -124.957)" fill="#b1bee8"/>
    </g>
    <g id="Grupo_10609" data-name="Grupo 10609" transform="translate(-923.776 335.597)">
      <path id="Trazado_9900" data-name="Trazado 9900" d="M-759.032,677.273c3.546,7.711,2.627,11.307,2.627,11.307s-3.769,2.7-10.632,3.15c-7.838.52-10.041-1.181-10.041-1.181a2.877,2.877,0,0,1,2.035-3.544c4-1.115,9.139-1.92,9.951-2.485,1.088-.758.237-2.68-1.5-7.387Z" transform="translate(797.603 -474.592)" fill="#0944ad"/>
      <path id="Trazado_9901" data-name="Trazado 9901" d="M-755.887,677.273a32.72,32.72,0,0,1,2.317,6.643,10.105,10.105,0,0,1-4.939,1.252,6.461,6.461,0,0,1-3.364-.673c.621-1.132-.119-3.422-1.571-7.362Z" transform="translate(794.458 -474.592)" fill="#f4ae92"/>
      <path id="Trazado_9902" data-name="Trazado 9902" d="M-756.322,692.688c.3-.164-.033-1.936-.033-1.936s-3.38,2.363-11.747,3.117a80.763,80.763,0,0,1-8.958-.328s-.163,1.083.328,1.312c.644.3,3.215.835,8.925.657A25.415,25.415,0,0,0-756.322,692.688Z" transform="translate(797.586 -477.715)" fill="#061230"/>
      <path id="Trazado_9903" data-name="Trazado 9903" d="M-771.8,585.416l.7.98a112.852,112.852,0,0,0-3.639,34.153c.76,16.2,5.931,32.115,9.315,40.4,2.363,1.378,7.58.59,9.745-.492,0-6.718-4.961-27.559-5.763-33.753-.759-5.859,1.517-14.618,2.379-17.917Z" transform="translate(797.077 -453.56)" fill="#02294f"/>
      <path id="Trazado_9904" data-name="Trazado 9904" d="M-769.482,474.861c-1.476-4.013-3.395-7.524-5.191-11.763-1.151-2.718-2.759-6.207-3.937-8.761a18.839,18.839,0,0,0,.886-7.285c-.518-4.426-1.936-6.4-3.315-7.12-.6,2.2,1.773,7.974-.97,8.264-.714.076-1.555-4.01-2.029-3.919-.3.059-.328,1.808,0,4.619.748,6.416,2.317,10.11,3.709,14.837,2.868,9.738,2.029,13.7,4.478,14.487C-774.831,478.547-772.927,478.424-769.482,474.861Z" transform="translate(799.235 -420.198)" fill="#e89c82"/>
      <path id="Trazado_9905" data-name="Trazado 9905" d="M-720.825,689.328c1.181,1.542,2.368,4.4,1.148,6.776-1.92,3.74-11.386,3.084-7.629,9.6a13.617,13.617,0,0,0,9.106-3.346c3.706-3.45,9.624-1.414,9.516-5.85-.059-2.409-4.327-7.942-4.761-10.82C-714.945,686.262-719.325,688.751-720.825,689.328Z" transform="translate(786.371 -476.553)" fill="#0944ad"/>
      <path id="Trazado_9906" data-name="Trazado 9906" d="M-767.491,490.039c-.394-1.219-1.525-4.715.42-7.978,2.029-3.4,5.887-4,7.138-4.2.7-.109,6.24-.971,8.4,2.1,2.424,3.447-1.228,9.281-3.779,11.966-1.212,1.276-4.465,4.7-7.768,3.779C-765.914,494.916-767.046,491.414-767.491,490.039Z" transform="translate(795.543 -428.852)" fill="#f4ae92"/>
      <path id="Trazado_9907" data-name="Trazado 9907" d="M-755.229,477.41c-2.144-3.079,2.089-6.525,2.089-6.525a14.342,14.342,0,0,0,4.544,3.034,11.809,11.809,0,0,1,6.729,9.325c.327,4.506-1.766,9.119-5.575,11.15-2.884,1.538-7.084,1.081-8.257,1a5.417,5.417,0,0,1-1.209-3.71c-.127-2.9,3.1-4.173,3.779-7.419C-752.838,482.87-752.923,480.637-755.229,477.41Z" transform="translate(792.96 -427.296)" fill="#03336d"/>
      <path id="Trazado_9908" data-name="Trazado 9908" d="M-783.731,477.738c-6.6-8.36-8.9-15.648-9.8-20.716-1.507-8.545-1.936-15.381-6.1-26.374-.722-1.905-.459-2.529-1.1-3.347-.7-.595-3.643-4.331-2.806-5.218.125-.132,1.157,1.989,2.2,1.772,1.251-.26,1.763-2.67,1.345-4.725-.59-2.9-.482-4.591.1-4.774.674-.212,1.68.723,2.609,3.544,1.28,3.888-.065,7.654.1,8.318,1.279,5.168,4.609,12.494,11.357,27.444,1.933,4.282,4.668,10.057,8.259,16.8Z" transform="translate(803.686 -414.327)" fill="#f4ae92"/>
      <path id="Trazado_9909" data-name="Trazado 9909" d="M-711.256,685.685c.259,1.719,1.882,4.381,3.163,6.762a10.764,10.764,0,0,1-7.6,2.968,11.9,11.9,0,0,1-1.485-.1,7.192,7.192,0,0,0-1.46-5.984C-717.137,688.751-712.757,686.262-711.256,685.685Z" transform="translate(784.183 -476.553)" fill="#f4ae92"/>
      <path id="Trazado_9910" data-name="Trazado 9910" d="M-753,570.887c1,2.966,3.08,4.342,4.759,10.218,3.359,11.758,2.609,23.96,6.3,33.733,3.48,9.217,5.254,9.042,10.918,20.995a190.651,190.651,0,0,1,10.426,27.4,20.855,20.855,0,0,1-11.419,3.937A427.854,427.854,0,0,0-754.535,625.9c-5.932-9.666-11.062-17.048-15.257-28.974a103.007,103.007,0,0,1-5.459-25.755C-768.159,571.026-760.087,571.026-753,570.887Z" transform="translate(797.165 -450.228)" fill="#03336d"/>
      <path id="Trazado_9911" data-name="Trazado 9911" d="M-772.9,483.891c-4.574,2.013-7.316,7.332-8.258,9.8a18.507,18.507,0,0,0,5.039,5.459,39.078,39.078,0,0,0-6.643,15.572c-3.612,16.221,2.276,35.151,4.593,42.329a56.883,56.883,0,0,0,15.554-.393c3.636-.558,9.187-1.575,10.566-2.953-3.013-11.4-2.871-21.333-2.8-27.261.1-8.178.432-15,.56-19.875.053-2.038-1.225-5.468-3.409-7.991s-3.88-2.306-6.529-3.627C-767.153,493.485-772.323,487.813-772.9,483.891Z" transform="translate(799.149 -430.279)" fill="#ff5757"/>
      <path id="Trazado_9912" data-name="Trazado 9912" d="M-755.419,491.986a1.162,1.162,0,0,1,1.645-.2,1.572,1.572,0,0,1,.419,1.7,2.475,2.475,0,0,1-1.245,1.332,2.839,2.839,0,0,1-1.937.28A2.066,2.066,0,0,1-758,493.861" transform="translate(793.209 -432.032)" fill="#f4ae92"/>
      <path id="Trazado_9913" data-name="Trazado 9913" d="M-708.558,699.012s.874,2.445.394,3.2c-.344.542-4.824,3.151-8.712,4.774-2.311.966-8.909,2.953-9.647,2.708-.447-.149-1.033-1.575-1.033-1.575s7.675-2.364,10.09-3.445C-711.314,701.916-708.558,699.012-708.558,699.012Z" transform="translate(786.228 -479.609)" fill="#061230"/>
      <path id="Trazado_9914" data-name="Trazado 9914" d="M-779.212,524.757c.153-6.836,1.917-15.7,3.172-20.956-.079.049-.156.1-.234.15a38.979,38.979,0,0,0-6.484,15.334c-3.612,16.221,2.276,35.151,4.594,42.329a54.1,54.1,0,0,0,7.912.329C-774.229,552.7-779.565,540.588-779.212,524.757Z" transform="translate(799.149 -434.844)" fill="#cc1919"/>
    </g>
    <path id="Trazado_9915" data-name="Trazado 9915" d="M-1026.618,475.175l-20.832,41.283h-57.368l19.78-39.2-4.128-2.083L-1173.247,641.8l4.129,2.083,14.752-29.234H-1097l-13.7,27.151,4.129,2.083,84.08-166.623Zm-23.165,45.907-12.283,24.342h-57.368l12.283-24.342Zm-14.617,28.966-12.931,25.625H-1134.7l12.931-25.625Zm-87.632,59.975,15-29.726h57.368l-15,29.726Z" transform="translate(-35.345 -92.683)" fill="#518de5"/>
    <g id="Grupo_10612" data-name="Grupo 10612" transform="translate(-1143.98 254.217)">
      <path id="Trazado_9916" data-name="Trazado 9916" d="M-1049.341,323.8c1.7.287,1.593,5.2,1.542,8.463-.059,3.752-1.315,8.281-4.038,9.709-1.459.765-2.868.425-4.272-.838-6.631-5.966-2.537-11.882.021-14.423C-1054.969,325.6-1051.234,323.481-1049.341,323.8Z" transform="translate(1082.598 -312.18)" fill="#f4ae92"/>
      <path id="Trazado_9917" data-name="Trazado 9917" d="M-1077.883,520.027c-.165,1.117.81,2.638.173,4.322-1.21,3.2-.5,4.361-.173,4.582,2.766,1.9,6.942-.1,10.4-1.253,4.172-1.391,10.979-3.458,10.979-3.458a3.021,3.021,0,0,0-.259-2.2c-.519-1.124-4.564-.492-7.288-.519a7.5,7.5,0,0,1-4.409-.951c-.977-.643-.786-1.739-1.124-2.334C-1071.832,518.7-1075.636,519.537-1077.883,520.027Z" transform="translate(1086.883 -356.768)" fill="#03336d"/>
      <path id="Trazado_9918" data-name="Trazado 9918" d="M-1037.674,521.386c.606,2.161-1.836,6.216.432,8.386,1.988,1.9,5.619.086,9.856-.692,5.548-1.019,7.283-.872,8.731-2.507,1.294-1.459,2.365-3.014,1.539-4.063-.536-.68-2.393-1.384-5.429-1.21-3.217.184-4.237,1.075-5.526.57-1.424-.557-1.893-2.1-2.428-2.991C-1032.8,519.772-1035.368,520.493-1037.674,521.386Z" transform="translate(1077.673 -356.921)" fill="#03336d"/>
      <path id="Trazado_9919" data-name="Trazado 9919" d="M-1088.208,383.373c-.288,2.939.346,6.743-.057,10.6-.349,3.339.975,6.429,1.786,8.76,2.508,7.207,3.054,8.357,4.956,11.988,1.423,2.716-.051,4.211.923,7.377.771,2.508,2.134,4.765,3.978,4.823,2.363-1.556.812-4.025.824-9.885a13.564,13.564,0,0,0-1.464-6.223,80.167,80.167,0,0,1-3.108-14.534,17.819,17.819,0,0,1,1.9-9.74C-1081.619,385.583-1085.058,384.334-1088.208,383.373Z" transform="translate(1089.161 -325.848)" fill="#f4ae92"/>
      <path id="Trazado_9920" data-name="Trazado 9920" d="M-1058.107,349.548c.346-1.642-1.027-3.8,1.913-4.922-.558-.882-.437-3.026-4.276-4.386a12.6,12.6,0,0,0-8.587.115,7.723,7.723,0,0,1,.577,3.689c-.209,2.267-2.215,4.356-2.68,4.9C-1067.069,349-1062.2,349.49-1058.107,349.548Z" transform="translate(1085.225 -315.796)" fill="#f4ae92"/>
      <path id="Trazado_9921" data-name="Trazado 9921" d="M-1051.144,312.328c-2.939-3.976-8.845-4.052-11.872-3.076a12.625,12.625,0,0,0-7.642,7.546s-2.915,1.05-3.653,3.461c-1.057,3.454.069,6.18,2.51,9.257,1.3,1.64,1.073,6.288,2.681,7.278,1.249.768,4.338-.15,6.441-.962a28.94,28.94,0,0,0-.045-4.962c-.207-1.174,2.014-4.044,2.507-4.61a8.239,8.239,0,0,1,4.149-2.1,10.228,10.228,0,0,0,6.077-4.858C-1049.607,318.531-1048.656,315.694-1051.144,312.328Z" transform="translate(1086.039 -308.732)" fill="#03336d"/>
      <path id="Trazado_9922" data-name="Trazado 9922" d="M-1057.044,331.2a1.446,1.446,0,0,0-1.405-1.16,2.084,2.084,0,0,0-1.671.92,3.848,3.848,0,0,0-.626,1.86,3.988,3.988,0,0,0,.2,1.891,2.2,2.2,0,0,0,1.319,1.308,1.535,1.535,0,0,0,1.707-.538" transform="translate(1082.844 -313.618)" fill="#f4ae92"/>
      <path id="Trazado_9923" data-name="Trazado 9923" d="M-1025.73,344.792c2.766-.086,5.733.1,8.471-1.383,2.285-1.239,2.509-2.371,4.755-5.36a50.844,50.844,0,0,1,7.175-7.694,8.651,8.651,0,0,1-.259-4.409c.306-1.49.707-2.85,1.383-3.2,1.057-.545,4.042.185,5.273,2.075,1.309,2.009.086,4.883-1.21,7.521a95.508,95.508,0,0,1-11.584,17.809c-2.248,1.21-5.643,2.825-8.646,4.409a28.24,28.24,0,0,1-4.841,2.247Q-1025.471,350.8-1025.73,344.792Z" transform="translate(1074.807 -311.905)" fill="#f4ae92"/>
      <path id="Trazado_9924" data-name="Trazado 9924" d="M-1078.429,529.623s.385,2.021.951,2.247c.865.346,7.262-.6,11.67-1.9,2.341-.688,7.867-2.421,8.992-3.2.375-.26.389-1.773.389-1.773a91.483,91.483,0,0,1-9.9,3.329A37.481,37.481,0,0,1-1078.429,529.623Z" transform="translate(1086.892 -358.324)" fill="#061230"/>
      <path id="Trazado_9925" data-name="Trazado 9925" d="M-1037.983,529.974s-.113,2.122.4,2.479c1.672,1.152,8.621-.043,11.239-.865,2.452-.77,8.357-2.421,9.106-3.689a10.391,10.391,0,0,0,.4-3.112s-.911,2.991-10.374,5.014C-1034.755,531.415-1037.983,529.974-1037.983,529.974Z" transform="translate(1077.62 -358.276)" fill="#061230"/>
      <g id="Grupo_10610" data-name="Grupo 10610" transform="translate(6.939 88.215)">
        <path id="Trazado_9926" data-name="Trazado 9926" d="M-1061.455,441.564a14.44,14.44,0,0,1-3.2-3.845,22.25,22.25,0,0,1-3.077-5.063,28.288,28.288,0,0,1-1.6-5.319c-.206-1.169-.281-2.326-.385-3.506-1.911.035-4.438.057-6.182.057-2.659,6.727-2.674,12.413-2.882,16.6-.376,7.585,1.661,19.7-.87,30.108-2.307,9.485,1.41,31.4,1.666,31.658,1.158.565,5.95.382,9.869-3.076,0,0-1.537-19.1,1.026-27.813C-1064.1,461.188-1061.857,444.623-1061.455,441.564Z" transform="translate(1080.406 -423.341)" fill="#03336d"/>
        <path id="Trazado_9927" data-name="Trazado 9927" d="M-1036.455,467.2c.263-10.248.668-15.613-1.47-24.292a120.207,120.207,0,0,0-6.052-19.711c-6.969,0-15.6.346-23.244.487.164,1.165.361,2.323.61,3.47a35.371,35.371,0,0,0,1.724,5.839,30,30,0,0,0,2.926,5.3,26.255,26.255,0,0,0,1.884,2.373,8.38,8.38,0,0,0,1.605,1.176,49.975,49.975,0,0,1,8.991,22.131c1.141,7.617.362,10.453,1.844,21.555.74,5.54,1.914,12.447,2.92,17.35,2.478.836,8.6-1.43,9.869-3.332C-1035.944,486.17-1036.643,474.531-1036.455,467.2Z" transform="translate(1077.383 -423.195)" fill="#0944ad"/>
      </g>
      <g id="Grupo_10611" data-name="Grupo 10611" transform="translate(0 32.022)">
        <path id="Trazado_9928" data-name="Trazado 9928" d="M-1081.719,377.792a43.326,43.326,0,0,1-1.154-7.691,34.8,34.8,0,0,1,.064-7.754c.284-1.716.757-4.227,1.218-5.9-.5.314-1.719,1.076-2.255,1.5-2.046,1.614-3.516,4.467-4.726,9.337a45.365,45.365,0,0,0-.778,11.815c1.991,1.446,5.9,2.023,8.72,2.472C-1081,380.457-1081.44,378.939-1081.719,377.792Z" transform="translate(1089.41 -351.697)" fill="#cc1919"/>
        <path id="Trazado_9929" data-name="Trazado 9929" d="M-1036.89,350.657a112.823,112.823,0,0,1-13.256.576c-1.59.058-3.689.288-7.147.346a4.655,4.655,0,0,1-2.882-.951,18.258,18.258,0,0,1-7.031.835,13.2,13.2,0,0,1-5.591-1.181,52.5,52.5,0,0,0-4.5,3.026c-1.3.966-2.2,1.5-3.035,2.02-.373,1.755-.729,3.51-.961,5.282a40.05,40.05,0,0,0-.327,7.885,50.886,50.886,0,0,0,1.029,7.839c.248,1.207.554,2.4.892,3.589l.039.012a49.074,49.074,0,0,1,2.882,9.913c1.419,7.923-.69,16.1-1.638,20.56,1.47,1.239,8.936,2.483,15.765,2.051,6.108-.387,14.612-2.307,16.919-4.229a157.98,157.98,0,0,1-3.076-20.764,91.517,91.517,0,0,1,.443-21.074,30.781,30.781,0,0,0,10.892-1.1,16.882,16.882,0,0,0,1.96-7.953A15.539,15.539,0,0,0-1036.89,350.657Z" transform="translate(1087.638 -350.282)" fill="#ff5757"/>
      </g>
    </g>
    <g id="Grupo_10615" data-name="Grupo 10615" transform="translate(-1327.381 224.367)">
      <ellipse id="Elipse_631" data-name="Elipse 631" cx="44.593" cy="18.986" rx="44.593" ry="18.986" transform="translate(0 249.551)" fill="#b1bee8" opacity="0.7"/>
      <g id="Grupo_10614" data-name="Grupo 10614" transform="translate(1.049)">
        <path id="Trazado_9930" data-name="Trazado 9930" d="M-1242.2,508.42c0,6.766-18.475,12.25-41.266,12.25s-42.556-4.84-42.556-11.606,19.765-12.9,42.556-12.9S-1242.2,501.653-1242.2,508.42Z" transform="translate(1326.02 -321.864)" fill="#03336d"/>
        <path id="Trazado_9931" data-name="Trazado 9931" d="M-1289.537,490.126c7.738-25.791-3.1-63.372-7.054-75.328-5.145-15.538-4.367-32.351-7.062-48.5-3.142-18.825-10.958-36.5-18.7-53.944-5.53,29.017,1.347,58.778,7.628,87.642s4.558,56.6,13.585,87.546" transform="translate(1325.644 -279.714)" fill="#518de5"/>
        <path id="Trazado_9932" data-name="Trazado 9932" d="M-1260.7,485.748c9.727-10.056,11.775-25.26,11.182-39.237s-3.3-28.046-1.049-41.854c1.688-10.36,6.1-20.059,8.829-30.194,4.3-15.945,4.378-32.679,4.431-49.193a222.406,222.406,0,0,0-16.926,34.395c-4.716,12.126-8.357,24.637-11.991,37.13-2.414,8.295-4.841,16.667-5.457,25.284-.838,11.712,1.7,23.373,2.562,35.084s-.22,24.288-7.259,33.687" transform="translate(1314.637 -282.675)" fill="#518de5"/>
        <g id="Grupo_10613" data-name="Grupo 10613" transform="translate(17.356)">
          <path id="Trazado_9933" data-name="Trazado 9933" d="M-1277.011,378.538c0-39.976-12.9-86.4-25.986-108.537-3.275,20.375,10.511,58.244,10.044,104.971-.388,38.709,11.916,78.762,11.6,109.8C-1269.13,450.745-1277.011,414.738-1277.011,378.538Z" transform="translate(1303.5 -270.001)" fill="#99beff"/>
        </g>
        <path id="Trazado_9934" data-name="Trazado 9934" d="M-1234.066,327.17c-3.849,12.328-7.322,24.759-10.6,37.243l-9.75,37.491c-.862,3.125-1.736,6.2-2.361,9.346s-1.107,6.32-1.438,9.514a189.306,189.306,0,0,0-.775,19.283c-.011,6.449.149,12.914-.129,19.382-.319,6.445-1.058,12.974-3.319,19.048a65.725,65.725,0,0,0,2.689-19.069c.147-6.441-.122-12.89-.232-19.352a166.319,166.319,0,0,1,.6-19.409c.315-3.229.768-6.449,1.4-9.638.614-3.193,1.486-6.34,2.323-9.442,3.417-12.443,6.551-24.975,10.04-37.413S-1238.421,339.331-1234.066,327.17Z" transform="translate(1311.439 -283.111)" fill="#fff"/>
        <path id="Trazado_9935" data-name="Trazado 9935" d="M-1321.837,314.62c.8,6.74,1.9,13.435,3.161,20.1,1.229,6.669,2.575,13.317,3.963,19.958,2.771,13.282,5.574,26.567,7.946,39.948,1.177,6.691,2.074,13.441,3.036,20.144s2.069,13.4,3.116,20.107c2.066,13.405,4.589,26.768,5.859,40.294-.856-6.734-2.06-13.41-3.269-20.086l-3.583-20.041c-1.194-6.683-2.26-13.388-3.292-20.1-1-6.725-1.953-13.423-3.129-20.1-2.259-13.368-5.09-26.641-7.641-39.974C-1318.2,341.539-1320.726,328.161-1321.837,314.62Z" transform="translate(1325.061 -280.233)" fill="#fff"/>
        <path id="Trazado_9936" data-name="Trazado 9936" d="M-1302.176,271.534c3.816,16,7.705,31.948,11.26,48.028,1.659,8.072,2.826,16.225,3.848,24.391,1.006,8.168,1.808,16.362,2.343,24.58a205.321,205.321,0,0,1,.158,24.705,117.4,117.4,0,0,0,.223,12.262c.232,4.092.6,8.181.962,12.27.754,8.178,1.7,16.343,2.539,24.522.781,8.181,1.571,16.385,1.558,24.61-.2-8.221-1.2-16.386-2.186-24.541-.963-8.161-2.022-16.312-2.9-24.493-.428-4.091-.849-8.185-1.088-12.3a118.529,118.529,0,0,1-.283-12.378,204.644,204.644,0,0,0-.271-24.579c-.494-8.189-1.255-16.366-2.22-24.517s-2.156-16.278-3.655-24.341Z" transform="translate(1320.552 -270.353)" fill="#0944ad"/>
        <path id="Trazado_9937" data-name="Trazado 9937" d="M-1230.272,401.119c-4.661,23.444-13.465,39.6-19.2,59.718-3.078,10.794-5.848,24.52-2.708,35.3l6.41-1.749c.774-12.479,8.162-23.407,12.922-34.969A86.77,86.77,0,0,0-1230.272,401.119Z" transform="translate(1309.405 -300.068)" fill="#0944ad"/>
        <path id="Trazado_9938" data-name="Trazado 9938" d="M-1309.635,462.935c-6.151-12.843-12.357-26.869-9.573-40.835-5.024,6.953-6.53,15.983-5.705,24.522s3.793,16.715,7.042,24.654c4.388,10.72,9.434,22.354,6.195,33.475l12.275-1.07C-1297.061,489.635-1303.483,475.778-1309.635,462.935Z" transform="translate(1325.815 -304.879)" fill="#0944ad"/>
        <path id="Trazado_9939" data-name="Trazado 9939" d="M-1229.32,402.048A43.212,43.212,0,0,1-1228.156,415a69.261,69.261,0,0,1-2.192,12.877c-2.255,8.432-5.759,16.444-9.225,24.375-1.759,3.958-3.475,7.924-4.931,11.981a74.154,74.154,0,0,0-3.319,12.454,64.635,64.635,0,0,0-.9,12.87,67.828,67.828,0,0,0,1.531,12.864,62.587,62.587,0,0,1-1.61-25.89c1.222-8.7,4.6-16.866,8.053-24.8a187.331,187.331,0,0,0,9.456-24.122C-1228.9,419.368-1227.649,410.607-1229.32,402.048Z" transform="translate(1308.467 -300.281)" fill="#fff"/>
        <path id="Trazado_9940" data-name="Trazado 9940" d="M-1318.953,422.545c-2.71,6.8-2.68,14.279-1.363,21.328a80.239,80.239,0,0,0,2.668,10.475c1.135,3.424,2.516,6.772,3.931,10.111,2.741,6.7,5.813,13.4,7.305,20.609A73.365,73.365,0,0,1-1305,495.931a105.088,105.088,0,0,1-.087,10.918,96.571,96.571,0,0,0-2.3-21.56c-1.656-7.029-4.67-13.643-7.52-20.332-1.389-3.363-2.745-6.757-3.863-10.244a69.05,69.05,0,0,1-2.541-10.675,47.574,47.574,0,0,1-.475-10.962,37.377,37.377,0,0,1,.948-5.4A30.606,30.606,0,0,1-1318.953,422.545Z" transform="translate(1325.079 -304.981)" fill="#fff"/>
        <path id="Trazado_9941" data-name="Trazado 9941" d="M-1252.515,593.759s-9.672,9.672-31.594,9.672-29.015-9.672-29.015-9.672l-12.9-82.531s12.9,10.316,43.845,10.316c24.5,0,39.976-10.316,39.976-10.316Z" transform="translate(1326.02 -325.318)" fill="#061230"/>
      </g>
    </g>
    <g id="Grupo_10617" data-name="Grupo 10617" transform="translate(-790.3 419.544)">
      <ellipse id="Elipse_632" data-name="Elipse 632" cx="29.818" cy="10.832" rx="29.818" ry="10.832" transform="translate(3.444 63.665)" fill="#b1bee8" opacity="0.7"/>
      <g id="Grupo_10616" data-name="Grupo 10616" transform="translate(0)">
        <path id="Trazado_9942" data-name="Trazado 9942" d="M-597.887,544.688c-1.037,0-2.061-.017-3.073-.044-.337-.008-.664-.024-1-.035-.671-.024-1.339-.05-2-.086-.389-.021-.771-.045-1.155-.07-.585-.038-1.164-.079-1.736-.126-.406-.032-.81-.066-1.209-.1-.528-.049-1.046-.1-1.561-.16-.409-.045-.82-.089-1.222-.138-.482-.059-.951-.126-1.421-.191-.408-.057-.823-.11-1.221-.172-.236-.036-.457-.079-.689-.117q-1.632-.268-3.134-.586c-.221-.047-.449-.091-.667-.139-.52-.116-1.017-.239-1.51-.363-.187-.048-.377-.095-.561-.143-.506-.134-.994-.273-1.469-.415l-.384-.118c-.509-.159-1-.321-1.47-.49l-.084-.032a14.48,14.48,0,0,1-5.724-3.3c0,30.734,10.925,61.9,11.472,62.177,19.384,9.691,40.058,1.292,40.058,1.292s11.63-33.167,11.059-63.486C-570.1,541.773-582.76,544.688-597.887,544.688Z" transform="translate(630.191 -526.597)" fill="#fff"/>
        <ellipse id="Elipse_633" data-name="Elipse 633" cx="32.305" cy="9.045" rx="32.305" ry="9.045" fill="#03336d"/>
        <path id="Trazado_9943" data-name="Trazado 9943" d="M-559.871,588.269a24.509,24.509,0,0,1-6.49-.884l1.29-4.571c2.153.6,9.587,2.186,14.889-2.97,5.511-5.366,6.507-15.768,5.1-23.163-.875-4.6-2.4-6.611-3-6.861-.039-.023-2.946-.744-11.532,12.959l-4.028-2.52c7.691-12.282,12.9-16.695,17.4-14.824,3.647,1.529,5.218,7.147,5.829,10.357,1.691,8.891.35,20.829-6.455,27.459A18.181,18.181,0,0,1-559.871,588.269Z" transform="translate(615.788 -528.244)" fill="#fff"/>
      </g>
    </g>
    <path id="Trazado_9944" data-name="Trazado 9944" d="M-565.218,438c-3.132-2.847-6.989-5.667-7.5-9.869-.629-5.144,4.189-10.062,2.8-15.054-1.651-5.91-10.749-7.393-11.949-13.41-.624-3.127,1.228-6.146,2-9.238a14.342,14.342,0,0,0-7.311-15.844c.876,5.312-2.549,10.261-5.591,14.7s-5.974,9.921-4.082,14.961c1.409,3.756,5.375,6.827,4.744,10.787-.909,5.708-9.951,6.175-12.3,11.454-2.97,6.666,7.11,13.224,5.617,20.368-.819,3.926-4.818,6.268-6.921,9.683-2.718,4.414-1.931,10.3.623,14.807a17.858,17.858,0,0,0,11.229,7.983,19.959,19.959,0,0,0,12.423-2.167c3.773-1.94,6.683-6.26,5.579-10.356-.7-2.594-2.879-4.834-2.669-7.513.277-3.538,4.388-5.309,7.883-5.927s7.594-1.2,9.325-4.3C-559.259,445.369-562.086,440.843-565.218,438Z" transform="translate(-165.097 -69.615)" fill="#b1bee8"/>
    <g id="Grupo_10619" data-name="Grupo 10619" transform="translate(-915.021 71)">
      <circle id="Elipse_634" data-name="Elipse 634" cx="16.57" cy="16.57" r="16.57" fill="#b1bee8"/>
      <g id="Grupo_10618" data-name="Grupo 10618" transform="translate(7.839 12.948)">
        <path id="Trazado_9945" data-name="Trazado 9945" d="M-780.667,87.8v1.285h1.164V89.7h-1.164v2.413c0,.554.156.869.61.869a1.811,1.811,0,0,0,.472-.055l.037.61a1.992,1.992,0,0,1-.721.111,1.127,1.127,0,0,1-.878-.342,1.657,1.657,0,0,1-.314-1.165V89.7h-.693v-.619h.693V88.012Z" transform="translate(782.155 -87.8)" fill="#fff"/>
        <path id="Trazado_9946" data-name="Trazado 9946" d="M-777.3,89.467l.98,2.643c.1.3.212.647.286.915h.018c.083-.267.176-.61.287-.933l.888-2.625h.859l-1.22,3.189a6.821,6.821,0,0,1-1.534,2.8,2.2,2.2,0,0,1-1,.526l-.2-.684a2.146,2.146,0,0,0,.712-.4,2.465,2.465,0,0,0,.684-.906.6.6,0,0,0,.064-.194.7.7,0,0,0-.055-.213l-1.655-4.122Z" transform="translate(781.244 -88.182)" fill="#fff"/>
        <path id="Trazado_9947" data-name="Trazado 9947" d="M-771.775,90.9c0-.573-.019-1.035-.037-1.46h.731l.037.767h.018a1.759,1.759,0,0,1,1.589-.869,2.026,2.026,0,0,1,1.9,2.274,2.118,2.118,0,0,1-2.033,2.4,1.567,1.567,0,0,1-1.377-.7h-.018V95.74h-.8Zm.8,1.192a1.9,1.9,0,0,0,.036.333,1.255,1.255,0,0,0,1.22.952c.86,0,1.359-.7,1.359-1.729,0-.9-.472-1.663-1.331-1.663a1.3,1.3,0,0,0-1.23,1.007,1.354,1.354,0,0,0-.055.332Z" transform="translate(779.783 -88.152)" fill="#fff"/>
        <path id="Trazado_9948" data-name="Trazado 9948" d="M-764.579,91.821a1.433,1.433,0,0,0,1.534,1.553,2.936,2.936,0,0,0,1.238-.231l.14.583a3.629,3.629,0,0,1-1.489.277,2.078,2.078,0,0,1-2.2-2.256,2.172,2.172,0,0,1,2.1-2.412,1.9,1.9,0,0,1,1.848,2.108,3.06,3.06,0,0,1-.028.378Zm2.384-.582a1.158,1.158,0,0,0-1.127-1.322,1.348,1.348,0,0,0-1.249,1.322Z" transform="translate(778.303 -88.152)" fill="#fff"/>
      </g>
    </g>
    <g id="Grupo_10622" data-name="Grupo 10622" transform="translate(-862.101 326.097)">
      <g id="Grupo_10621" data-name="Grupo 10621">
        <circle id="Elipse_635" data-name="Elipse 635" cx="23.891" cy="23.891" r="23.891" fill="#b1bee8"/>
        <g id="Grupo_10620" data-name="Grupo 10620" transform="translate(10.557 16.091)">
          <path id="Trazado_9949" data-name="Trazado 9949" d="M-709.961,430.955l8.565-4.411v1.274l-7.218,3.618v.037l7.218,3.618v1.274l-8.565-4.412Z" transform="translate(709.961 -423.719)" fill="#fff"/>
          <path id="Trazado_9950" data-name="Trazado 9950" d="M-697.283,436.263l5.151-13.384h1.255l-5.169,13.384Z" transform="translate(707.054 -422.879)" fill="#fff"/>
          <path id="Trazado_9951" data-name="Trazado 9951" d="M-678.893,431.971l-8.565,4.394v-1.274l7.274-3.618v-.037l-7.274-3.618v-1.274l8.565,4.394Z" transform="translate(704.801 -423.719)" fill="#fff"/>
        </g>
      </g>
      <path id="Trazado_9952" data-name="Trazado 9952" d="M-715.7,450l-4.624,11.56,10.79-5.909" transform="translate(722.895 -413.007)" fill="#b1bee8"/>
    </g>
    <path id="Trazado_9953" data-name="Trazado 9953" d="M-787.036,102.667l-4.624,11.56,10.79-5.909" transform="translate(-122.848 -7.262)" fill="#b1bee8"/>
    <g id="Grupo_10624" data-name="Grupo 10624" transform="translate(-1108.223 98.233)">
      <circle id="Elipse_636" data-name="Elipse 636" cx="17.317" cy="17.317" r="17.317" transform="translate(0 34.181) rotate(-80.717)" fill="#b1bee8"/>
      <g id="Grupo_10623" data-name="Grupo 10623" transform="translate(9.055 15.467)">
        <path id="Trazado_9954" data-name="Trazado 9954" d="M-1031.264,130.77l4.309-2.22v.641l-3.631,1.82v.018l3.631,1.82v.641l-4.309-2.22Z" transform="translate(1031.264 -126.897)" fill="#fff"/>
        <path id="Trazado_9955" data-name="Trazado 9955" d="M-1020.209,126.4v5.433c0,.4.009.854.037,1.161h-.734l-.037-.78h-.018a1.664,1.664,0,0,1-1.532.882,2.049,2.049,0,0,1-1.923-2.284,2.15,2.15,0,0,1,2.015-2.415,1.5,1.5,0,0,1,1.356.687h.018V126.4Zm-.817,3.929a1.448,1.448,0,0,0-.038-.344,1.2,1.2,0,0,0-1.179-.948c-.845,0-1.347.743-1.347,1.737,0,.91.446,1.662,1.329,1.662a1.228,1.228,0,0,0,1.2-.976,1.421,1.421,0,0,0,.038-.352Z" transform="translate(1029.694 -126.405)" fill="#fff"/>
        <path id="Trazado_9956" data-name="Trazado 9956" d="M-1016.314,127.337a.483.483,0,0,1-.52.5.486.486,0,0,1-.492-.5.5.5,0,0,1,.51-.51A.485.485,0,0,1-1016.314,127.337Zm-.91,5.759v-4.5h.818v4.5Z" transform="translate(1028.068 -126.502)" fill="#fff"/>
        <path id="Trazado_9957" data-name="Trazado 9957" d="M-1014.223,129.128l.882,2.526a11.353,11.353,0,0,1,.362,1.152h.028c.1-.372.232-.744.381-1.152l.873-2.526h.855l-1.765,4.5h-.78l-1.709-4.5Z" transform="translate(1027.557 -127.029)" fill="#fff"/>
        <path id="Trazado_9958" data-name="Trazado 9958" d="M-1004.348,131.281l-4.309,2.21v-.641l3.659-1.82v-.018l-3.659-1.82v-.641l4.309,2.21Z" transform="translate(1026.08 -126.897)" fill="#fff"/>
      </g>
    </g>
    <g id="Grupo_10626" data-name="Grupo 10626" transform="translate(-864.413 131.114)">
      <circle id="Elipse_637" data-name="Elipse 637" cx="13.102" cy="13.102" r="13.102" transform="translate(0 0)" fill="#b1bee8"/>
      <g id="Grupo_10625" data-name="Grupo 10625" transform="translate(8.386 7.953)">
        <path id="Trazado_9959" data-name="Trazado 9959" d="M-715.778,164c.893,0,1.019-.491,1.019-.932a7.556,7.556,0,0,0-.1-1.057,7.374,7.374,0,0,1-.1-1.044c0-1.158.755-1.648,1.825-1.648h.264v.692h-.227c-.743,0-.994.4-.994,1.082a5.551,5.551,0,0,0,.088.894,5.894,5.894,0,0,1,.088.956,1.2,1.2,0,0,1-.906,1.358v.026a1.207,1.207,0,0,1,.906,1.371,5.776,5.776,0,0,1-.088.956,5.7,5.7,0,0,0-.088.906c0,.7.289,1.094.994,1.094h.227v.692h-.264c-1.045,0-1.825-.452-1.825-1.724a7.193,7.193,0,0,1,.1-1.031,7.034,7.034,0,0,0,.1-1.02c0-.39-.126-.931-1.019-.931Z" transform="translate(715.778 -159.32)" fill="#fff"/>
        <path id="Trazado_9960" data-name="Trazado 9960" d="M-704.817,164.643c-.894,0-1.02.541-1.02.931a7.035,7.035,0,0,0,.1,1.02,7.183,7.183,0,0,1,.1,1.031c0,1.272-.792,1.724-1.824,1.724h-.264v-.692h.214c.7-.012,1.007-.39,1.007-1.094a7.779,7.779,0,0,0-.088-.906,5.661,5.661,0,0,1-.1-.956,1.229,1.229,0,0,1,.906-1.371V164.3a1.223,1.223,0,0,1-.906-1.358,5.792,5.792,0,0,1,.1-.956,7.576,7.576,0,0,0,.088-.894c0-.679-.264-1.07-.994-1.082h-.227v-.692h.251c1.07,0,1.837.491,1.837,1.648a7.364,7.364,0,0,1-.1,1.044,7.558,7.558,0,0,0-.1,1.057c0,.441.126.932,1.02.932Z" transform="translate(713.931 -159.32)" fill="#fff"/>
      </g>
    </g>
    <g id="Grupo_10628" data-name="Grupo 10628" transform="translate(-1146.099 149.61)">
      <circle id="Elipse_638" data-name="Elipse 638" cx="23.313" cy="23.313" r="23.313" transform="translate(0)" fill="#b1bee8"/>
      <g id="Grupo_10627" data-name="Grupo 10627" transform="translate(10.172 14.55)">
        <path id="Trazado_9961" data-name="Trazado 9961" d="M-1078.961,199.955l8.565-4.411v1.274l-7.218,3.618v.037l7.218,3.618v1.274l-8.565-4.412Z" transform="translate(1078.961 -192.719)" fill="#fff"/>
        <path id="Trazado_9962" data-name="Trazado 9962" d="M-1066.283,205.263l5.15-13.384h1.255l-5.169,13.384Z" transform="translate(1076.054 -191.879)" fill="#fff"/>
        <path id="Trazado_9963" data-name="Trazado 9963" d="M-1047.893,200.971l-8.565,4.394v-1.274l7.274-3.618v-.037l-7.274-3.618v-1.274l8.565,4.394Z" transform="translate(1073.801 -192.719)" fill="#fff"/>
      </g>
    </g>
    <g id="Grupo_10630" data-name="Grupo 10630" transform="translate(-810.465 266.754)">
      <circle id="Elipse_639" data-name="Elipse 639" cx="13.487" cy="13.487" r="13.487" fill="#b1bee8"/>
      <g id="Grupo_10629" data-name="Grupo 10629" transform="translate(6.614 9.56)">
        <path id="Trazado_9964" data-name="Trazado 9964" d="M-648.078,341.432l4.415-2.274v.657l-3.721,1.865v.018l3.721,1.865v.657l-4.415-2.274Z" transform="translate(648.078 -337.807)" fill="#fff"/>
        <path id="Trazado_9965" data-name="Trazado 9965" d="M-640.838,343.332a.557.557,0,0,1,.56-.59.547.547,0,0,1,.562.59.553.553,0,0,1-.562.59A.557.557,0,0,1-640.838,343.332Zm.237-1.36-.133-4.567h.913l-.133,4.567Z" transform="translate(646.418 -337.405)" fill="#fff"/>
        <path id="Trazado_9966" data-name="Trazado 9966" d="M-635.968,341.985v.619h-2.351v-.619Z" transform="translate(645.84 -338.455)" fill="#fff"/>
        <path id="Trazado_9967" data-name="Trazado 9967" d="M-632.176,341.985v.619h-2.351v-.619Z" transform="translate(644.971 -338.455)" fill="#fff"/>
      </g>
    </g>
    <g id="Grupo_10632" data-name="Grupo 10632" transform="translate(-1123.878 73.055)">
      <circle id="Elipse_640" data-name="Elipse 640" cx="10.019" cy="10.019" r="10.019" transform="translate(0 0)" fill="#b1bee8"/>
      <g id="Grupo_10631" data-name="Grupo 10631" transform="translate(8.504 7.275)">
        <path id="Trazado_9968" data-name="Trazado 9968" d="M-1052.292,89.547l2.478-6.441h.6l-2.488,6.441Z" transform="translate(1052.292 -83.106)" fill="#fff"/>
      </g>
    </g>
  </g>
</svg>
