<svg xmlns="http://www.w3.org/2000/svg" width="635" height="232" viewBox="0 0 635 232">
  <g id="Grupo_10363" data-name="Grupo 10363" transform="translate(-256 -1297)">
    <path id="Rectángulo_2828" data-name="Rectángulo 2828" d="M0,0H239a23,23,0,0,1,23,23v0a23,23,0,0,1-23,23H0a0,0,0,0,1,0,0V0A0,0,0,0,1,0,0Z" transform="translate(629 1297)" fill="#e6eef3"/>
    <path id="Rectángulo_2829" data-name="Rectángulo 2829" d="M0,0H239a23,23,0,0,1,23,23v0a23,23,0,0,1-23,23H0a0,0,0,0,1,0,0V0A0,0,0,0,1,0,0Z" transform="translate(629 1356)" fill="#e6eef3"/>
    <path id="Rectángulo_2830" data-name="Rectángulo 2830" d="M0,0H239a23,23,0,0,1,23,23v0a23,23,0,0,1-23,23H0a0,0,0,0,1,0,0V0A0,0,0,0,1,0,0Z" transform="translate(629 1415)" fill="#e6eef3"/>
    <path id="Rectángulo_2831" data-name="Rectángulo 2831" d="M0,0H239a23,23,0,0,1,23,23v0a23,23,0,0,1-23,23H0a0,0,0,0,1,0,0V0A0,0,0,0,1,0,0Z" transform="translate(629 1474)" fill="#e6eef3"/>
    <rect id="Rectángulo_2821" data-name="Rectángulo 2821" width="141" height="46" rx="23" transform="translate(520 1297)" fill="#014c7f"/>
    <rect id="Rectángulo_2822" data-name="Rectángulo 2822" width="141" height="46" rx="23" transform="translate(520 1356)" fill="#015e7a"/>
    <rect id="Rectángulo_2823" data-name="Rectángulo 2823" width="141" height="46" rx="23" transform="translate(520 1415)" fill="#006d72"/>
    <rect id="Rectángulo_2824" data-name="Rectángulo 2824" width="141" height="46" rx="23" transform="translate(520 1474)" fill="#007a6b"/>
    <text id="int" transform="translate(520 1308)" fill="#fff" font-size="18" font-family="CerebriSans-Bold, Cerebri Sans" font-weight="700"><tspan x="58.841" y="17">int</tspan></text>
    <text id="valor_17_" data-name="valor = 17;" transform="translate(671 1308)" fill="#00223d" font-size="18" font-family="CerebriSans-Regular, Cerebri Sans"><tspan x="0" y="17">valor = 17;</tspan></text>
    <text id="nota_3.8_" data-name="nota = 3.8;" transform="translate(671 1367)" fill="#00223d" font-size="18" font-family="CerebriSans-Regular, Cerebri Sans"><tspan x="0" y="17">nota = 3.8;</tspan></text>
    <text id="texto_Bienvenidos_" data-name="texto = &quot;Bienvenidos&quot;;" transform="translate(671 1426)" fill="#00223d" font-size="18" font-family="CerebriSans-Regular, Cerebri Sans"><tspan x="0" y="17">texto = &quot;Bienvenidos&quot;;</tspan></text>
    <text id="acepta_false_" data-name="acepta = false;" transform="translate(671 1485)" fill="#00223d" font-size="18" font-family="CerebriSans-Regular, Cerebri Sans"><tspan x="0" y="17">acepta = false;</tspan></text>
    <text id="long" transform="translate(520 1367)" fill="#fff" font-size="18" font-family="CerebriSans-Bold, Cerebri Sans" font-weight="700"><tspan x="51.182" y="17">long</tspan></text>
    <text id="string" transform="translate(520 1426)" fill="#fff" font-size="18" font-family="CerebriSans-Bold, Cerebri Sans" font-weight="700"><tspan x="45.42" y="17">string</tspan></text>
    <text id="boolean" transform="translate(520 1485)" fill="#fff" font-size="18" font-family="CerebriSans-Bold, Cerebri Sans" font-weight="700"><tspan x="35.361" y="17">boolean</tspan></text>
    <g id="Grupo_10362" data-name="Grupo 10362">
      <circle id="Elipse_625" data-name="Elipse 625" cx="114" cy="114" r="114" transform="translate(256 1301)" fill="#e6eef3"/>
      <g id="Grupo_10353" data-name="Grupo 10353" transform="translate(299.999 1341)">
        <path id="Trazado_9558" data-name="Trazado 9558" d="M156.814,186.423h3.347a2.051,2.051,0,1,0,0-4.1h-3.347a2.051,2.051,0,1,0,0,4.1Z" transform="translate(-112.444 -132.468)" fill="#3f6073"/>
        <path id="Trazado_9559" data-name="Trazado 9559" d="M194.907,184.373a2.05,2.05,0,0,0,2.051,2.051h40.285a2.051,2.051,0,1,0,0-4.1H196.958a2.051,2.051,0,0,0-2.051,2.051Z" transform="translate(-141.611 -132.468)" fill="#3f6073"/>
        <path id="Trazado_9560" data-name="Trazado 9560" d="M156.814,218.837h3.347a2.051,2.051,0,0,0,0-4.1h-3.347a2.051,2.051,0,0,0,0,4.1Z" transform="translate(-112.444 -156.018)" fill="#3f6073"/>
        <path id="Trazado_9561" data-name="Trazado 9561" d="M237.243,214.735H196.958a2.051,2.051,0,1,0,0,4.1h40.285a2.051,2.051,0,0,0,0-4.1Z" transform="translate(-141.611 -156.018)" fill="#3f6073"/>
        <path id="Trazado_9562" data-name="Trazado 9562" d="M156.814,251.25h3.347a2.051,2.051,0,0,0,0-4.1h-3.347a2.051,2.051,0,0,0,0,4.1Z" transform="translate(-112.444 -179.568)" fill="#3f6073"/>
        <path id="Trazado_9563" data-name="Trazado 9563" d="M237.243,247.148H196.958a2.051,2.051,0,0,0,0,4.1h40.285a2.051,2.051,0,0,0,0-4.1Z" transform="translate(-141.611 -179.568)" fill="#3f6073"/>
        <path id="Trazado_9564" data-name="Trazado 9564" d="M156.814,283.664h3.347a2.051,2.051,0,0,0,0-4.1h-3.347a2.051,2.051,0,0,0,0,4.1Z" transform="translate(-112.444 -203.119)" fill="#3f6073"/>
        <path id="Trazado_9565" data-name="Trazado 9565" d="M237.243,279.562H196.958a2.051,2.051,0,1,0,0,4.1h40.285a2.051,2.051,0,0,0,0-4.1Z" transform="translate(-141.611 -203.119)" fill="#3f6073"/>
        <path id="Trazado_9566" data-name="Trazado 9566" d="M156.814,316.077h3.347a2.051,2.051,0,1,0,0-4.1h-3.347a2.051,2.051,0,1,0,0,4.1Z" transform="translate(-112.444 -226.67)" fill="#3f6073"/>
        <path id="Trazado_9567" data-name="Trazado 9567" d="M237.243,311.976H196.958a2.051,2.051,0,1,0,0,4.1h40.285a2.051,2.051,0,1,0,0-4.1Z" transform="translate(-141.611 -226.67)" fill="#3f6073"/>
        <path id="Trazado_9568" data-name="Trazado 9568" d="M285.219,109.217a2.051,2.051,0,0,0,2.884.311l8.6-6.927a2.051,2.051,0,0,0,0-3.194l-8.6-6.927a2.051,2.051,0,1,0-2.573,3.194l6.618,5.33-6.618,5.33A2.051,2.051,0,0,0,285.219,109.217Z" transform="translate(-206.899 -66.862)" fill="#3f6073"/>
        <path id="Trazado_9569" data-name="Trazado 9569" d="M195.252,102.6l8.6,6.927a2.051,2.051,0,1,0,2.573-3.194L199.808,101l6.617-5.33a2.051,2.051,0,0,0-2.573-3.194l-8.6,6.927a2.051,2.051,0,0,0,0,3.194Z" transform="translate(-141.307 -66.862)" fill="#3f6073"/>
        <path id="Trazado_9570" data-name="Trazado 9570" d="M248.546,109.881a2.051,2.051,0,0,0,2.584-1.317l4.5-13.855a2.051,2.051,0,1,0-3.9-1.266l-4.5,13.855a2.051,2.051,0,0,0,1.317,2.584Z" transform="translate(-179.553 -66.861)" fill="#3f6073"/>
        <path id="Trazado_9571" data-name="Trazado 9571" d="M9.436,140h55.78a2.051,2.051,0,0,0,0-4.1H9.436A5.376,5.376,0,0,1,4.1,130.493V125.41H48.128v1.657a5.354,5.354,0,0,0,5.332,5.364H86.541a5.354,5.354,0,0,0,5.332-5.364V125.41H135.9v5.083a5.376,5.376,0,0,1-5.334,5.406H74.786a2.051,2.051,0,0,0,0,4.1h55.779A9.482,9.482,0,0,0,140,130.493v-5.527a3.654,3.654,0,0,0-3.642-3.657h-7.012a11.551,11.551,0,0,0,2.682-7.36V42.46a11.6,11.6,0,0,0-11.581-11.581H109.373V5.64A5.647,5.647,0,0,0,103.733,0H48.6a2.067,2.067,0,0,0-1.45.6L31.229,16.52a2.069,2.069,0,0,0-.6,1.45V30.878H19.554A11.6,11.6,0,0,0,7.973,42.46v71.489a11.549,11.549,0,0,0,2.682,7.36H3.643A3.653,3.653,0,0,0,0,124.966v5.527A9.482,9.482,0,0,0,9.436,140Zm78.336-12.933a1.264,1.264,0,0,1-1.23,1.263H53.46a1.264,1.264,0,0,1-1.231-1.263V125.41H87.772ZM46.548,7v7.379a1.54,1.54,0,0,1-1.539,1.539H37.63ZM34.73,20.021H45.01a5.647,5.647,0,0,0,5.64-5.64V4.1h53.083a1.54,1.54,0,0,1,1.539,1.539v94.5a1.478,1.478,0,0,1-1.476,1.476H36.206a1.478,1.478,0,0,1-1.476-1.476V20.021ZM12.074,42.46a7.488,7.488,0,0,1,7.48-7.48H30.628v4.4H20.3a3.765,3.765,0,0,0-3.761,3.761v70.027a3.765,3.765,0,0,0,3.761,3.761h99.411a3.765,3.765,0,0,0,3.76-3.761V83.83a2.051,2.051,0,1,0-4.1,0v28.993H20.636V43.478h9.992v56.659a5.584,5.584,0,0,0,5.578,5.578H103.8a5.584,5.584,0,0,0,5.578-5.578V43.478h9.992V74.26a2.051,2.051,0,1,0,4.1,0V43.137a3.765,3.765,0,0,0-3.76-3.761H109.373v-4.4h11.074a7.488,7.488,0,0,1,7.48,7.48v71.489a7.546,7.546,0,0,1-6.15,7.36H18.225a7.546,7.546,0,0,1-6.151-7.36Z" transform="translate(0)" fill="#3f6073"/>
      </g>
    </g>
  </g>
</svg>
