<svg xmlns="http://www.w3.org/2000/svg" width="674.383" height="178.575" viewBox="0 0 674.383 178.575">
  <g id="Grupo_9918" data-name="Grupo 9918" transform="translate(-221 -972.835)">
    <g id="Grupo_9849" data-name="Grupo 9849" transform="translate(160.457 949.775)">
      <g id="Grupo_9846" data-name="Grupo 9846" transform="translate(60.543 39.945)">
        <path id="Trazado_8964" data-name="Trazado 8964" d="M194.479,171.8a22.679,22.679,0,0,0-19.692,33.936L214.1,183.1A22.67,22.67,0,0,0,194.479,171.8Z" transform="translate(-125.893 -117.394)" fill="#4187c5" fill-rule="evenodd"/>
        <path id="Trazado_8965" data-name="Trazado 8965" d="M83.577,117.03a45.557,45.557,0,0,1,85-22.8l27.458-15.811a13.1,13.1,0,0,0-4.963-4.835q-27.393-15.794-54.8-31.567c-4.922-2.842-9.693-2.738-14.579.144-7.268,4.287-43.66,25.136-54.5,31.417a12.666,12.666,0,0,0-6.64,11.685q-.011,31.764-.007,63.527a13.674,13.674,0,0,0,1.6,6.718L89.609,139.7A45.348,45.348,0,0,1,83.577,117.03Z" transform="translate(-60.543 -39.945)" fill="#4187c5" fill-rule="evenodd"/>
      </g>
      <g id="Grupo_9847" data-name="Grupo 9847" transform="translate(62.147 116.824)">
        <path id="Trazado_8966" data-name="Trazado 8966" d="M179.046,237.731A22.678,22.678,0,0,0,218.5,237.6l-19.556-11.329Z" transform="translate(-131.755 -226.271)" fill="#003e75"/>
        <path id="Trazado_8967" data-name="Trazado 8967" d="M131.412,304.486A45.534,45.534,0,0,1,91.892,281.6L64.43,297.415a13.056,13.056,0,0,0,5.037,4.966c10.845,6.281,47.241,27.129,54.508,31.417,4.888,2.883,9.659,2.986,14.583.144q27.384-15.811,54.8-31.567a13.051,13.051,0,0,0,5.037-4.966l-27.42-15.885A45.537,45.537,0,0,1,131.412,304.486Z" transform="translate(-64.43 -258.727)" fill="#003e75"/>
      </g>
      <path id="Trazado_8968" data-name="Trazado 8968" d="M295.649,140.049a13.608,13.608,0,0,0-1.676-6.849L227.28,171.6l66.773,38.683a13.693,13.693,0,0,0,1.6-6.719S295.656,161.225,295.649,140.049Zm-22.711,34.318h-5.217v5.218H262.5v-5.218h-5.218v-5.218H262.5v-5.218h5.218v5.218h5.217Zm19.04,0H286.76v5.218h-5.219v-5.218h-5.217v-5.218h5.217v-5.218h5.219v5.218h5.218Z" transform="translate(-97.941 -54.777)" fill="#005192"/>
      <g id="Grupo_9848" data-name="Grupo 9848" transform="translate(83.577 71.478)">
        <path id="Trazado_8969" data-name="Trazado 8969" d="M356.581,207.681h-5.219V212.9h-5.217v5.218h5.217v5.218h5.219v-5.218H361.8V212.9h-5.218Z" transform="translate(-251.338 -170.005)" fill="#fff"/>
        <path id="Trazado_8970" data-name="Trazado 8970" d="M310.438,207.681H305.22V212.9H300v5.218h5.218v5.218h5.218v-5.218h5.217V212.9h-5.217Z" transform="translate(-224.234 -170.005)" fill="#fff"/>
        <path id="Trazado_8971" data-name="Trazado 8971" d="M181.687,173.043a22.683,22.683,0,1,1-.148-22.5l19.827-11.416a45.553,45.553,0,1,0,.118,45.389Z" transform="translate(-116.368 -116.368)" fill="#fff"/>
      </g>
    </g>
    <g id="Grupo_9850" data-name="Grupo 9850" transform="translate(425 995.437)">
      <path id="Trazado_8972" data-name="Trazado 8972" d="M127.031,41.977a12.608,12.608,0,0,0-1.553-6.343,12.129,12.129,0,0,0-4.6-4.477Q95.513,16.529,70.134,1.921a12.458,12.458,0,0,0-13.5.134C49.9,6.025,16.2,25.334,6.156,31.151A11.73,11.73,0,0,0,.006,41.972Q0,71.389,0,100.806a12.652,12.652,0,0,0,1.485,6.222,12.087,12.087,0,0,0,4.665,4.6c10.043,5.817,43.75,25.124,50.48,29.1a12.459,12.459,0,0,0,13.5.134q25.361-14.643,50.751-29.235a12.091,12.091,0,0,0,4.665-4.6,12.669,12.669,0,0,0,1.485-6.222s0-39.212-.006-58.823" transform="translate(0 0)" fill="#a179dc"/>
      <path id="Trazado_8973" data-name="Trazado 8973" d="M65.216,143.241,2.988,179.07a12.087,12.087,0,0,0,4.665,4.6c10.043,5.817,43.75,25.124,50.48,29.1a12.459,12.459,0,0,0,13.5.134Q97,198.256,122.39,183.664a12.091,12.091,0,0,0,4.665-4.6l-61.84-35.824" transform="translate(-1.503 -72.043)" fill="#280068"/>
      <path id="Trazado_8974" data-name="Trazado 8974" d="M191.5,78.034a12.608,12.608,0,0,0-1.553-6.343l-61.765,35.564,61.839,35.824a12.68,12.68,0,0,0,1.485-6.222s0-39.212-.006-58.823" transform="translate(-64.469 -36.057)" fill="#390091"/>
      <path id="Trazado_8975" data-name="Trazado 8975" d="M191.727,116.294v6.7h6.7v-6.7h3.349v6.7h6.7v3.349h-6.7v6.7h6.7v3.349h-6.7v6.7h-3.349v-6.7h-6.7v6.7h-3.349v-6.7h-6.7v-3.349h6.7v-6.7h-6.7v-3.349h6.7v-6.7Zm6.7,10.046h-6.7v6.7h6.7Z" transform="translate(-91.377 -58.49)" fill="#fff"/>
      <path id="Trazado_8976" data-name="Trazado 8976" d="M80.676,48.626a47.2,47.2,0,0,1,40.888,23.588l-.08-.136L100.933,83.912A23.5,23.5,0,0,0,80.944,72.334h-.268a23.513,23.513,0,1,0,20.489,35.043l-.1.171,20.522,11.888A47.205,47.205,0,0,1,81.2,143.063l-.526,0a47.22,47.22,0,1,1,0-94.44Z" transform="translate(-16.827 -24.457)" fill="#fff"/>
    </g>
    <g id="Grupo_9853" data-name="Grupo 9853" transform="translate(788.325 950.466)">
      <path id="Trazado_8980" data-name="Trazado 8980" d="M148.384,22.534a14.4,14.4,0,0,1,2.99,12.145c-.885,4.73-3.509,8.911-6.591,12.512a60.911,60.911,0,0,1-8.27,7.843c-3.448,2.777-6.836,5.768-9,9.674A12.629,12.629,0,0,0,126.5,75.235c2.044,5.92,6.8,10.314,9.4,15.9-2.869-2.533-5.676-5.157-8.3-7.934a37.992,37.992,0,0,1-7.049-9.7,11.608,11.608,0,0,1-.794-8.27c.885-2.777,2.869-5,4.852-7.08,5.523-5.523,12.329-9.582,17.73-15.2a22.575,22.575,0,0,0,6.317-11.017,22.2,22.2,0,0,0-.274-9.4Z" transform="translate(-75.916)" fill="#e11322" stroke="#e11322" stroke-miterlimit="10" stroke-width="0.094"/>
      <path id="Trazado_8981" data-name="Trazado 8981" d="M181.972,115.59c5.92-4.364,12.847-7.141,19.866-9.155-5.554,3.54-11.352,6.774-16.143,11.321a15.028,15.028,0,0,0-4.15,5.951,7.589,7.589,0,0,0,.367,5.31c1.281,2.929,3.448,5.31,5.1,7.995a8.463,8.463,0,0,1,.58,7.69c-1.618,3.631-4.791,6.287-8.087,8.392-.428.244-.793.7-1.313.763a10.636,10.636,0,0,0,3.845-7.812,9.37,9.37,0,0,0-2.777-5.859c-3.021-3.6-5.554-8.178-5.035-13.03s4-8.758,7.751-11.565Z" transform="translate(-114.774 -58.298)" fill="#e11322" stroke="#e11322" stroke-miterlimit="10" stroke-width="0.094"/>
      <path id="Trazado_8982" data-name="Trazado 8982" d="M262.113,246.784c1.281-1.556,3.326-1.953,5.188-2.2a11.363,11.363,0,0,1,9.124,2.625,8.288,8.288,0,0,1,2.716,7.324c-.458,3.143-2.563,5.767-4.943,7.751-4.3,3.448-9.613,5.462-14.923,6.805a4.8,4.8,0,0,1,1.038-.885c4.028-2.167,8.025-4.7,10.986-8.24,1.8-2.2,3.2-5.066,2.624-7.965a7.777,7.777,0,0,0-7.2-5.981c-1.587-.153-3.082.458-4.608.763Z" transform="translate(-175.018 -156.086)" fill="#0062af" stroke="#0062af" stroke-miterlimit="10" stroke-width="0.094"/>
      <path id="Trazado_8983" data-name="Trazado 8983" d="M58.576,252.3a44,44,0,0,1,17.852-3.875,70.521,70.521,0,0,0-10.589,3.509,4.853,4.853,0,0,0-2.167,1.648c-.244.641.427,1.068.915,1.282a22.869,22.869,0,0,0,6.592,1.19,182.028,182.028,0,0,0,23.436-.275c7.69-.488,15.319-1.526,22.917-2.746a42.291,42.291,0,0,0-4.943,2.594,7.641,7.641,0,0,1-2.655.916,141.4,141.4,0,0,1-28.441,2.869c-3.692.03-7.354-.031-11.016-.275a63.477,63.477,0,0,1-12.206-1.648,8.16,8.16,0,0,1-3.3-1.526,1.068,1.068,0,0,1-.061-1.526,12.271,12.271,0,0,1,3.662-2.136Z" transform="translate(-29.148 -158.709)" fill="#0062af" stroke="#0062af" stroke-miterlimit="10" stroke-width="0.094"/>
      <path id="Trazado_8984" data-name="Trazado 8984" d="M88.465,297.858a18.32,18.32,0,0,1,5.371-2.624c-.61.732-1.465,1.435-1.526,2.441a1.715,1.715,0,0,0,1.007,1.435,9.94,9.94,0,0,0,3.265.854,103.84,103.84,0,0,0,17.7.549,130.783,130.783,0,0,0,16.113-2.106,17.925,17.925,0,0,0,5.035,3.143,96.456,96.456,0,0,1-19.714,3.509,83.519,83.519,0,0,1-18.92-.61,26.18,26.18,0,0,1-7.263-2.136,3.944,3.944,0,0,1-2.227-2.2,2.457,2.457,0,0,1,1.159-2.258Z" transform="translate(-53.512 -191.588)" fill="#0062af" stroke="#0062af" stroke-miterlimit="10" stroke-width="0.094"/>
      <path id="Trazado_8985" data-name="Trazado 8985" d="M100.46,342.432a13.461,13.461,0,0,1,4.852-2.2c-.549.518-1.526,1.159-1.1,2.044.824,1.068,2.35,1.19,3.57,1.465a77.926,77.926,0,0,0,15.533.671,104.4,104.4,0,0,0,11.566-1.617,56.783,56.783,0,0,0,6.835,3.357,50.69,50.69,0,0,1-11.352,3.387,60.125,60.125,0,0,1-19.836.275,27.684,27.684,0,0,1-8.484-2.625,5.133,5.133,0,0,1-2.5-2.38,2.2,2.2,0,0,1,.915-2.381Z" transform="translate(-62.034 -223.206)" fill="#0062af" stroke="#0062af" stroke-miterlimit="10" stroke-width="0.094"/>
      <path id="Trazado_8986" data-name="Trazado 8986" d="M29.125,371.621a27.941,27.941,0,0,1,8.3-1.8,5.869,5.869,0,0,1,3.3.641,24.2,24.2,0,0,0-9.82,2.716,3.319,3.319,0,0,0-1.7,1.678c0,.946,1.023,1.251,1.7,1.556,4.238,1.648,8.768,2.167,13.211,2.655a219.626,219.626,0,0,0,39.809-.4,87.864,87.864,0,0,0,14.877-2.594c1.549-.549,3.3-1.1,4.325-2.533a2.183,2.183,0,0,0-.409-2.655c.993.58,2.4,1.312,2.192,2.716-.38,1.464-1.812,2.227-2.982,2.929a45.85,45.85,0,0,1-11.954,3.876,156.406,156.406,0,0,1-36.184,2.625,194.68,194.68,0,0,1-27.241-2.869c-1.608-.4-3.42-.733-4.589-2.045-.76-.915-.088-2.2.643-2.868a18.73,18.73,0,0,1,6.518-3.631Z" transform="translate(-6.222 -244.036)" fill="#0062af" stroke="#0062af" stroke-miterlimit="10" stroke-width="0.094"/>
      <path id="Trazado_8987" data-name="Trazado 8987" d="M143.68,399.373c3.082-1.068,6.378-2.2,8.667-4.638-.4,2.655-2.685,4.486-4.943,5.676-4.334,2.258-9.185,3.3-14.007,4.15a176.922,176.922,0,0,1-30.882,1.831c-7.049-.213-14.16-.488-21.087-1.953a15.907,15.907,0,0,1-4.852-1.739,146.871,146.871,0,0,0,18.676,1.709,200.055,200.055,0,0,0,30.821-1.373,105.515,105.515,0,0,0,17.608-3.662Z" transform="translate(-48.071 -261.52)" fill="#0062af" stroke="#0062af" stroke-miterlimit="10" stroke-width="0.094"/>
      <path id="Trazado_8988" data-name="Trazado 8988" d="M18.87,489.793c.031-10.01-.03-20.019.031-30.058,2.075.061,4.15,0,6.225.061-.03,11.2,0,22.429-.03,33.66-.061,3.143-.122,6.439-1.648,9.246a15.028,15.028,0,0,1-7.843,6.317c-1.007-1.1-1.923-2.258-2.93-3.357h0c2.563-1.5,5.127-3.632,5.737-6.714a53.963,53.963,0,0,0,.458-9.155Z" transform="translate(0 -308.151)" fill="#e11322" stroke="#e11322" stroke-miterlimit="10" stroke-width="0.094"/>
      <path id="Trazado_8989" data-name="Trazado 8989" d="M68.912,493.935a26.452,26.452,0,0,1,13.183-2.2,9.232,9.232,0,0,1,6.225,2.991A8.785,8.785,0,0,1,90,500.343v20.476H85.391c-.153-1.007-.305-2.044-.428-3.082a15.886,15.886,0,0,1-5.768,3.234,12.445,12.445,0,0,1-7.6-.366,6.67,6.67,0,0,1-3.845-4.394,9.266,9.266,0,0,1,1.648-8.453,12.116,12.116,0,0,1,7.2-3.631,38.789,38.789,0,0,1,7.537-.489c-.061-1.922.305-4.028-.793-5.737a5.063,5.063,0,0,0-4-1.923,23.5,23.5,0,0,0-9.582,1.618c-.305-1.221-.58-2.441-.854-3.662m7.568,14.159a4.277,4.277,0,0,0-2.96,2.807,5.447,5.447,0,0,0,.7,4.7,4.606,4.606,0,0,0,4.272,1.4,11.461,11.461,0,0,0,5.645-2.777c0-2.289-.031-4.547,0-6.836-2.563,0-5.188-.153-7.66.7Z" transform="translate(-38.831 -330.297)" fill="#e11322" stroke="#e11322" stroke-miterlimit="10" stroke-width="0.094"/>
      <path id="Trazado_8990" data-name="Trazado 8990" d="M244.74,493.909a26.351,26.351,0,0,1,13.244-2.2,9.276,9.276,0,0,1,6.072,2.868,9.084,9.084,0,0,1,1.8,6.043c-.031,6.744.03,13.457-.061,20.2-1.526-.061-3.052.031-4.577-.061-.153-1.038-.275-2.045-.458-3.052a13.673,13.673,0,0,1-7.6,3.57c-2.655.244-5.645-.091-7.721-1.984-2.167-2.014-2.533-5.279-1.984-8.056a8.584,8.584,0,0,1,4.761-5.8c3.631-1.77,7.782-1.861,11.749-1.831-.061-1.862.274-3.845-.672-5.523a4.683,4.683,0,0,0-3.753-2.106,23.134,23.134,0,0,0-9.949,1.587c-.274-1.221-.579-2.441-.854-3.662m7.476,14.19a4.367,4.367,0,0,0-2.869,2.746,5.625,5.625,0,0,0,.671,4.73,4.7,4.7,0,0,0,4.364,1.4A11.142,11.142,0,0,0,260,514.111c-.061-2.227-.031-4.486-.031-6.744-2.594,0-5.249-.153-7.751.733Z" transform="translate(-163.87 -330.271)" fill="#e11322" stroke="#e11322" stroke-miterlimit="10" stroke-width="0.094"/>
      <path id="Trazado_8991" data-name="Trazado 8991" d="M152.876,493.235h6.408c1.251,4.028,2.471,8.025,3.723,12.054.732,2.471,1.648,4.913,2.167,7.446.275,1.129.518,2.289.854,3.387a113.61,113.61,0,0,0,5.676-22.887h6.225a116.551,116.551,0,0,1-8.911,28.715h-7.324q-4.394-14.373-8.819-28.715Z" transform="translate(-99.57 -331.428)" fill="#e11322" stroke="#e11322" stroke-miterlimit="10" stroke-width="0.094"/>
      <g id="Grupo_9852" data-name="Grupo 9852" transform="translate(102.454 161.888)">
        <path id="Trazado_8992" data-name="Trazado 8992" d="M319.657,490.8h-.75v-.271h1.826v.271h-.754V493h-.322Z" transform="translate(-318.907 -490.53)" fill="#e11322" stroke="#e11322" stroke-miterlimit="10" stroke-width="0.094"/>
        <path id="Trazado_8993" data-name="Trazado 8993" d="M327.723,491.914c-.018-.344-.04-.761-.04-1.065h-.008c-.088.285-.186.6-.311.937l-.436,1.2h-.241l-.4-1.175c-.117-.351-.213-.666-.282-.959H326c-.007.307-.026.717-.047,1.091L325.882,493h-.3l.172-2.467h.406l.421,1.193c.1.3.183.575.249.831h.007c.066-.249.154-.52.264-.831l.439-1.193h.406L328.1,493h-.315Z" transform="translate(-323.542 -490.53)" fill="#e11322" stroke="#e11322" stroke-miterlimit="10" stroke-width="0.094"/>
      </g>
    </g>
    <g id="Grupo_9917" data-name="Grupo 9917" transform="translate(342.704 992.987)">
      <path id="Trazado_9260" data-name="Trazado 9260" d="M333.258.026a73.8,73.8,0,0,0-13.346,1.19c-11.859,2.073-13.941,6.38-13.941,14.536V26.429h27.882v3.56H295.59c-8.011,0-15.121,4.893-17.347,14.085-2.523,10.679-2.667,17.2,0,28.323,1.928,8.309,6.678,14.085,14.833,14.085h9.642V73.731a17.769,17.769,0,0,1,17.347-17.347h27.729a14.086,14.086,0,0,0,13.941-14.238V15.6c0-7.561-6.38-13.2-13.941-14.536A81.576,81.576,0,0,0,333.258.026Zm-15.13,8.453a5.337,5.337,0,1,1-5.191,5.335,5.191,5.191,0,0,1,5.191-5.336Z" fill="#436a9a"/>
      <path id="Trazado_9261" data-name="Trazado 9261" d="M664.77,329.4v12.31a17.851,17.851,0,0,1-17.5,17.645H619.541A14.281,14.281,0,0,0,605.6,373.593v26.548c0,7.561,6.524,12.012,13.941,14.238,8.75,2.667,17.2,3.118,27.882,0,6.966-2.073,13.941-6.083,13.941-14.238V389.462H633.473V385.9H675.3c8.011,0,11.12-5.632,13.941-14.085,2.965-8.75,2.821-17.05,0-28.323-1.929-8.011-5.785-14.085-13.941-14.085Zm-15.725,67.181a5.337,5.337,0,1,1-5.191,5.335,5.282,5.282,0,0,1,5.191-5.335Z" transform="translate(-299.629 -299.717)" fill="#f7d654"/>
      <g id="Grupo_9916" data-name="Grupo 9916" transform="translate(290.767 125.511)">
        <path id="Trazado_9262" data-name="Trazado 9262" d="M447.491,1409.941c0-4.308-1.229-6.457-3.691-6.536a7.175,7.175,0,0,0-2.845.462,3.462,3.462,0,0,0-1.462.771v10.148a6.981,6.981,0,0,0,4.153,1.383C446.183,1415.935,447.491,1413.86,447.491,1409.941Zm3,.154a8.749,8.749,0,0,1-1.537,5.382,5.508,5.508,0,0,1-4.766,2.462,8.19,8.19,0,0,1-4.691-1.463v9.228l-2.616-.925V1404.25a6.978,6.978,0,0,1,1.616-1.383,10.874,10.874,0,0,1,5.611-1.383,5.38,5.38,0,0,1,4.691,2.462,10.707,10.707,0,0,1,1.691,6.148Zm15.913,6.074c0,2.92-.308,4.92-.846,6a6.649,6.649,0,0,1-3.308,2.691,11.618,11.618,0,0,1-4.308.846l-.463-1.617a32.742,32.742,0,0,0,3.308-.617,4.447,4.447,0,0,0,2.612-2,9.8,9.8,0,0,0,.537-4.074v-.691a12.968,12.968,0,0,1-5.611,1.229,4.829,4.829,0,0,1-3.383-1.229,4.126,4.126,0,0,1-1.617-3.383v-10.839l2.612-.92v10.919a3.272,3.272,0,0,0,1.154,2.691,4.425,4.425,0,0,0,2.92.92,6.945,6.945,0,0,0,3.845-1.383v-12.769h2.612Zm10.148,1.691h-.846a5.33,5.33,0,0,1-3.462-1.074,3.567,3.567,0,0,1-1.229-2.92v-10.3h-1.766v-1.621h1.766v-4.382l2.612-.921v5.3h2.92v1.616h-2.92v10.148a2.359,2.359,0,0,0,.771,2.074,4.517,4.517,0,0,0,2.154.617Zm15.838-.233h-2.612v-10.073a4.713,4.713,0,0,0-.691-2.612,2.545,2.545,0,0,0-2.308-1.229,7.974,7.974,0,0,0-4.457,1.92v12.073H479.71V1393.64l2.612-.846v10.919a9,9,0,0,1,5.457-1.845,4.526,4.526,0,0,1,3.383,1.383,4.951,4.951,0,0,1,1.308,3.462Zm13.839-8.148a8.213,8.213,0,0,0-.92-4.074,3.916,3.916,0,0,0-3.462-2.074c-2.845.154-4.308,2.229-4.308,6.148a9.962,9.962,0,0,0,.92,4.537,3.7,3.7,0,0,0,3.462,2.308c2.845-.081,4.308-2.309,4.308-6.846Zm2.845,0a9.618,9.618,0,0,1-1.766,5.845,6.562,6.562,0,0,1-5.382,2.612,6.269,6.269,0,0,1-5.382-2.612,9.433,9.433,0,0,1-1.766-5.845,7.987,7.987,0,0,1,1.92-5.536,6.481,6.481,0,0,1,5.228-2.383,6.642,6.642,0,0,1,5.3,2.383,8.593,8.593,0,0,1,1.848,5.535Zm14.993,8.148h-2.612v-10.611a3.472,3.472,0,0,0-1.075-2.691,3.739,3.739,0,0,0-2.845-.92,6.177,6.177,0,0,0-3.537,1.229v13.147h-2.612v-13.456a12.016,12.016,0,0,1,4.154-2.154,12.933,12.933,0,0,1,3.154-.463,12.143,12.143,0,0,1,1.766.154,5.051,5.051,0,0,1,2.462,1.308,3.663,3.663,0,0,1,1.075,2.612Z" transform="translate(-436.881 -1392.794)" fill="#656565"/>
        <path id="Trazado_9263" data-name="Trazado 9263" d="M1448.943,1436.15h.463v-2.845h1.074v-.383h-2.612v.383h1.075Zm2,0h.383v-2.612l.846,2.612h.463l.846-2.612v2.612h.463v-3.228h-.537l-1,2.766-.846-2.766h-.617Z" transform="translate(-1356.763 -1429.306)" fill="#656565"/>
      </g>
    </g>
  </g>
</svg>
