<svg xmlns="http://www.w3.org/2000/svg" width="430" height="367.629" viewBox="0 0 430 367.629">
  <g id="Grupo_10600" data-name="Grupo 10600" transform="translate(-546.364 -186.525)">
    <g id="Grupo_10492" data-name="Grupo 10492" transform="translate(546.364 300.367)" opacity="0.2">
      <path id="Trazado_9729" data-name="Trazado 9729" d="M976.364,542.242l-193.4,112.4-236.6-136.6,193.4-112.4Z" transform="translate(-546.364 -405.64)" fill="#29abe2"/>
    </g>
    <g id="Grupo_10493" data-name="Grupo 10493" transform="translate(610.416 337.458)" opacity="0.2">
      <path id="Trazado_9730" data-name="Trazado 9730" d="M971.543,572.937,835.761,651.852,669.647,555.946l135.782-78.915Z" transform="translate(-669.647 -477.031)" fill="#29abe2"/>
    </g>
    <g id="Grupo_10518" data-name="Grupo 10518" transform="translate(677.324 222.06)">
      <g id="Grupo_10494" data-name="Grupo 10494" transform="translate(92.409 192.656)">
        <path id="Trazado_9731" data-name="Trazado 9731" d="M997.581,642.983l-14.374,8.353c.456-.265.8-.868.8-2.077.01-3.561-7.331-14.591-7.717-15.171l14.374-8.353c.387.58,7.728,11.61,7.718,15.171C998.379,642.115,998.037,642.717,997.581,642.983Z" transform="translate(-976.291 -625.734)" fill="#ccc"/>
      </g>
      <g id="Grupo_10495" data-name="Grupo 10495" transform="translate(56.962 160.93)">
        <path id="Trazado_9732" data-name="Trazado 9732" d="M943.568,585.148l-.032,11.3-35.47-20.479.032-11.3Z" transform="translate(-908.065 -564.669)" fill="#ccc"/>
      </g>
      <g id="Grupo_10496" data-name="Grupo 10496" transform="translate(49.161 160.93)">
        <path id="Trazado_9733" data-name="Trazado 9733" d="M936.321,596.445l-35.47-20.479-.023,8.3c-.389.133-7.768,2.664-7.778,6.225a6.365,6.365,0,0,0,3.089,5.35l44.767,25.847c.155.09,3.1,1.789,3.109-1.772s-7.331-14.591-7.717-15.171Zm-35.438-31.776-.032,11.3Z" transform="translate(-893.049 -564.669)" fill="#fff"/>
      </g>
      <g id="Grupo_10497" data-name="Grupo 10497" transform="translate(92.409 184.352)">
        <path id="Trazado_9734" data-name="Trazado 9734" d="M976.314,618.1l14.374-8.353-.024,8.3-14.374,8.353Z" transform="translate(-976.291 -609.75)" fill="#ccc"/>
      </g>
      <g id="Grupo_10498" data-name="Grupo 10498" transform="translate(92.433 173.055)">
        <path id="Trazado_9735" data-name="Trazado 9735" d="M976.368,596.361l14.374-8.353-.032,11.3-14.374,8.353Z" transform="translate(-976.336 -588.007)" fill="#ccc"/>
      </g>
      <g id="Grupo_10499" data-name="Grupo 10499" transform="translate(3.807)">
        <path id="Trazado_9736" data-name="Trazado 9736" d="M805.755,263.952l14.374-8.353c1.843-1.071,4.648-1.057,8.916,1.407l-14.374,8.353C810.4,262.895,807.6,262.881,805.755,263.952Z" transform="translate(-805.755 -254.921)" fill="#ccc"/>
      </g>
      <g id="Grupo_10500" data-name="Grupo 10500" transform="translate(145.353 191.364)">
        <path id="Trazado_9737" data-name="Trazado 9737" d="M1092.568,631.748l-14.375,8.353c3.516-2.043,3.532-8.034,3.534-8.5l14.374-8.353C1096.1,623.714,1096.084,629.705,1092.568,631.748Z" transform="translate(-1078.194 -623.246)" fill="#ccc"/>
      </g>
      <g id="Grupo_10501" data-name="Grupo 10501" transform="translate(12.723 2.084)">
        <path id="Trazado_9738" data-name="Trazado 9738" d="M822.916,267.287l14.374-8.353,62.034,35.815L884.95,303.1Z" transform="translate(-822.916 -258.933)" fill="#ccc"/>
      </g>
      <g id="Grupo_10512" data-name="Grupo 10512" transform="translate(9.804 20.798)">
        <g id="Grupo_10511" data-name="Grupo 10511" style="isolation: isolate">
          <g id="Grupo_10502" data-name="Grupo 10502" transform="translate(8.143 86.668)">
            <path id="Trazado_9739" data-name="Trazado 9739" d="M890.859,494.547a3.166,3.166,0,0,1,1.441,2.5c0,.913-.656,1.285-1.45.827l-56.437-32.584a3.188,3.188,0,0,1-1.441-2.5c0-.927.656-1.285,1.45-.826Z" transform="translate(-832.972 -461.764)" fill="#12b878"/>
          </g>
          <g id="Grupo_10503" data-name="Grupo 10503" transform="translate(8.195 68.263)">
            <path id="Trazado_9740" data-name="Trazado 9740" d="M834.513,429.86a3.19,3.19,0,0,1-1.441-2.5c0-.928.656-1.285,1.45-.827l41.957,24.224a3.141,3.141,0,0,1,1.44,2.5c0,.912-.643,1.292-1.45.826Z" transform="translate(-833.072 -426.339)" fill="#12b878"/>
          </g>
          <g id="Grupo_10504" data-name="Grupo 10504" transform="translate(8.274 40.643)">
            <path id="Trazado_9741" data-name="Trazado 9741" d="M834.664,376.7a3.166,3.166,0,0,1-1.441-2.5c0-.913.656-1.285,1.45-.827l27.476,15.863a3.193,3.193,0,0,1,1.454,2.5c0,.927-.656,1.285-1.463.819Z" transform="translate(-833.223 -373.179)" fill="#12b878"/>
          </g>
          <g id="Grupo_10505" data-name="Grupo 10505" transform="translate(8.3 31.441)">
            <path id="Trazado_9742" data-name="Trazado 9742" d="M834.714,358.985a3.167,3.167,0,0,1-1.441-2.5c0-.913.656-1.285,1.45-.827l70.917,40.944a3.189,3.189,0,0,1,1.441,2.5c0,.928-.656,1.285-1.45.827Z" transform="translate(-833.273 -355.467)" fill="#12b878"/>
          </g>
          <g id="Grupo_10506" data-name="Grupo 10506">
            <path id="Trazado_9743" data-name="Trazado 9743" d="M946.689,369.6a11.393,11.393,0,0,1,.515,2.59l-.272,95.974a4.918,4.918,0,0,1-.593,2.145c-.209.314-.432.62-2.19-.395L820.076,398.281c-1.81-1.045-2.03-1.637-2.25-2.318-.116-.337-.22-.7-.3-1.026a10.018,10.018,0,0,1-.23-1.572l.272-95.974a4.975,4.975,0,0,1,.606-2.123c.21-.328.419-.642,2.19.38l124.073,71.634C946.249,368.327,946.443,368.9,946.689,369.6Zm-19.837,36.387c.807.467,1.447.087,1.45-.841a3.166,3.166,0,0,0-1.44-2.5L827,344.993c-.794-.458-1.448-.086-1.45.827a3.193,3.193,0,0,0,1.441,2.51l99.865,57.657m-14.545,19.255c.794.459,1.447.086,1.45-.827a3.166,3.166,0,0,0-1.441-2.5l-85.4-49.3c-.794-.459-1.447-.1-1.45.826a3.19,3.19,0,0,0,1.441,2.5l85.4,49.3m-85.258-98.653c-.794-.459-1.448-.086-1.45.827a3.167,3.167,0,0,0,1.441,2.5l70.917,40.944c.794.458,1.448.1,1.45-.827a3.189,3.189,0,0,0-1.441-2.5l-70.917-40.944m56.271,91.135c.794.458,1.448.086,1.45-.827a3.166,3.166,0,0,0-1.441-2.5l-56.437-32.584c-.794-.459-1.448-.1-1.45.826a3.188,3.188,0,0,0,1.441,2.5l56.437,32.584M827.074,317.386c-.794-.459-1.448-.086-1.45.827a3.19,3.19,0,0,0,1.441,2.5l41.957,24.224c.807.466,1.448.086,1.45-.827a3.165,3.165,0,0,0-1.441-2.5l-41.957-24.224m-.13,46.027c-.794-.458-1.448-.1-1.45.827a3.189,3.189,0,0,0,1.441,2.5l41.956,24.224c.807.466,1.448.086,1.45-.826a3.141,3.141,0,0,0-1.44-2.5l-41.957-24.224m.078-27.622c-.794-.458-1.447-.086-1.45.827a3.166,3.166,0,0,0,1.441,2.5l27.476,15.864c.807.466,1.46.109,1.463-.819a3.194,3.194,0,0,0-1.454-2.5l-27.476-15.863m-1.5,19.246a3.189,3.189,0,0,0,1.441,2.5l13.009,7.511c.794.459,1.447.086,1.45-.827a3.192,3.192,0,0,0-1.441-2.51L826.97,354.2c-.794-.459-1.448-.087-1.451.841" transform="translate(-817.298 -294.951)" fill="#091a51"/>
          </g>
          <g id="Grupo_10507" data-name="Grupo 10507" transform="translate(8.221 59.049)">
            <path id="Trazado_9744" data-name="Trazado 9744" d="M847.581,416.311,834.572,408.8c-.794-.459-1.448-.087-1.45.841a3.189,3.189,0,0,0,1.441,2.5l13.009,7.511c.794.459,1.447.086,1.45-.826A3.192,3.192,0,0,0,847.581,416.311Z" transform="translate(-833.122 -408.604)" fill="#12b878"/>
          </g>
          <g id="Grupo_10508" data-name="Grupo 10508" transform="translate(8.169 77.465)">
            <path id="Trazado_9745" data-name="Trazado 9745" d="M919.87,493.555a3.167,3.167,0,0,1,1.441,2.5c0,.913-.656,1.285-1.45.827l-85.4-49.3a3.189,3.189,0,0,1-1.441-2.5c0-.928.656-1.285,1.45-.826Z" transform="translate(-833.022 -444.051)" fill="#12b878"/>
          </g>
          <g id="Grupo_10509" data-name="Grupo 10509" transform="translate(8.326 22.239)">
            <path id="Trazado_9746" data-name="Trazado 9746" d="M834.764,341.273a3.19,3.19,0,0,1-1.441-2.5c0-.913.656-1.285,1.45-.827l41.957,24.224a3.166,3.166,0,0,1,1.441,2.5c0,.913-.643,1.293-1.45.827Z" transform="translate(-833.323 -337.755)" fill="#12b878"/>
          </g>
          <g id="Grupo_10510" data-name="Grupo 10510" transform="translate(8.248 49.846)">
            <path id="Trazado_9747" data-name="Trazado 9747" d="M934.488,448.745a3.167,3.167,0,0,1,1.44,2.5c0,.928-.643,1.308-1.45.841l-99.865-57.657a3.193,3.193,0,0,1-1.441-2.511c0-.913.656-1.285,1.45-.827Z" transform="translate(-833.173 -390.891)" fill="#12b878"/>
          </g>
        </g>
      </g>
      <g id="Grupo_10513" data-name="Grupo 10513" transform="translate(9.623 44.801)" opacity="0.2">
        <path id="Trazado_9748" data-name="Trazado 9748" d="M905.165,367l-87.972,50.133a8.913,8.913,0,0,1-.243-1.579l.141-49.736,43.294-24.672Z" transform="translate(-816.95 -341.151)" fill="#fff"/>
      </g>
      <g id="Grupo_10514" data-name="Grupo 10514" transform="translate(148.887 95.139)">
        <path id="Trazado_9749" data-name="Trazado 9749" d="M1085.269,446.392l14.374-8.353-.273,96.225L1085,542.617Z" transform="translate(-1084.996 -438.039)" fill="#ccc"/>
      </g>
      <g id="Grupo_10515" data-name="Grupo 10515" transform="translate(74.757 37.9)">
        <path id="Trazado_9750" data-name="Trazado 9750" d="M942.315,336.222l14.374-8.353,62.034,35.815-14.374,8.353Z" transform="translate(-942.315 -327.868)" fill="#ccc"/>
      </g>
      <g id="Grupo_10516" data-name="Grupo 10516" transform="translate(0 8.353)">
        <path id="Trazado_9751" data-name="Trazado 9751" d="M935.219,344.715c12.409,7.165,12.371,20.711,12.369,21.424l-.273,96.225c0,.713-.04,14.259-12.45,7.1l-62.034-35.816L810.8,397.827c-12.409-7.165-12.371-20.711-12.369-21.424l.273-96.225c0-.713.041-14.26,12.45-7.1L873.185,308.9Zm2.461,111.95.272-95.985a10.805,10.805,0,0,0-.385-2.2c-.375-1.086-.569-1.662-2.379-2.707l-22.618-13.058-16.3-9.413-44.781-25.854-40.367-23.305c-1.758-1.015-1.981-.709-2.177-.373a4.835,4.835,0,0,0-.619,2.115l-.272,95.97a8.916,8.916,0,0,0,.243,1.579,8.085,8.085,0,0,0,.284,1.018c.233.689.44,1.273,2.25,2.318L934.9,458.4c1.771,1.022,1.98.709,2.19.4a4.917,4.917,0,0,0,.593-2.131" transform="translate(-798.428 -270.999)" fill="#fff"/>
      </g>
      <g id="Grupo_10517" data-name="Grupo 10517" transform="translate(136.791 73.715)">
        <path id="Trazado_9752" data-name="Trazado 9752" d="M1061.714,405.157l14.374-8.353c12.409,7.164,12.37,20.711,12.369,21.424l-14.374,8.353C1074.085,425.868,1074.123,412.322,1061.714,405.157Z" transform="translate(-1061.714 -396.804)" fill="#ccc"/>
      </g>
    </g>
    <g id="Grupo_10522" data-name="Grupo 10522" transform="translate(762.827 355.07)">
      <g id="Grupo_10519" data-name="Grupo 10519" opacity="0.4">
        <path id="Trazado_9753" data-name="Trazado 9753" d="M1071.677,572.75c1.547.893,1.713,1.386,1.923,1.981a9.77,9.77,0,0,1,.439,2.214l-.233,82.029a4.04,4.04,0,0,1-.518,1.827c-.168.274-.358.536-1.861-.332L965.384,599.245c-1.547-.893-1.735-1.4-1.923-1.981a9.087,9.087,0,0,1-.254-.877,10.64,10.64,0,0,1-.208-1.35l.233-82.028a4.452,4.452,0,0,1,.529-1.809c.179-.281.358-.549,1.872.325Z" transform="translate(-962.999 -510.929)" fill="#0071bc"/>
      </g>
      <g id="Grupo_10520" data-name="Grupo 10520" transform="translate(117.158 67.545)" opacity="0.6">
        <path id="Trazado_9754" data-name="Trazado 9754" d="M1210.391,652.747c1.547.893,1.713,1.386,1.923,1.982l.111.333a9.073,9.073,0,0,1,.329,1.881l-.071,25.156a4.043,4.043,0,0,1-.518,1.827c-.168.275-.359.536-1.861-.331l-19.433-11.22c-1.547-.893-1.724-1.405-1.923-1.981a6.892,6.892,0,0,1-.243-.871,8.857,8.857,0,0,1-.208-1.362l.071-25.143a4.092,4.092,0,0,1,.529-1.809c.168-.287.358-.549,1.861.319Z" transform="translate(-1188.497 -640.935)" fill="#0071bc"/>
      </g>
      <g id="Grupo_10521" data-name="Grupo 10521" transform="translate(116.997 105.49)" opacity="0.8">
        <path id="Trazado_9755" data-name="Trazado 9755" d="M1210.135,725.781c1.547.893,1.713,1.4,1.923,1.982l.111.333a9.2,9.2,0,0,1,.329,1.894l-.125,44.071a4.046,4.046,0,0,1-.518,1.827c-.168.275-.359.536-1.861-.331l-19.433-11.22c-1.547-.893-1.724-1.392-1.923-1.981a6.977,6.977,0,0,1-.243-.871,8.952,8.952,0,0,1-.208-1.35l.125-44.071a4.183,4.183,0,0,1,.529-1.82c.168-.287.359-.549,1.861.318Z" transform="translate(-1188.187 -713.969)" fill="#0071bc"/>
      </g>
    </g>
    <g id="Grupo_10532" data-name="Grupo 10532" transform="translate(611.213 415.006)">
      <g id="Grupo_10531" data-name="Grupo 10531" transform="translate(0)" style="isolation: isolate">
        <g id="Grupo_10523" data-name="Grupo 10523" transform="translate(0 82.82)">
          <path id="Trazado_9756" data-name="Trazado 9756" d="M745.592,827.838a4.069,4.069,0,0,1,1.852,3.208c0,1.173-.843,1.652-1.864,1.062l-72.547-41.885a4.1,4.1,0,0,1-1.852-3.208c0-1.192.843-1.652,1.864-1.062Z" transform="translate(-671.181 -785.697)" fill="#0cc6af"/>
        </g>
        <g id="Grupo_10524" data-name="Grupo 10524" transform="translate(0.067 59.162)">
          <path id="Trazado_9757" data-name="Trazado 9757" d="M673.162,744.687a4.1,4.1,0,0,1-1.852-3.208c0-1.192.843-1.652,1.864-1.062l53.934,31.138a4.04,4.04,0,0,1,1.852,3.208c0,1.173-.826,1.662-1.864,1.063Z" transform="translate(-671.31 -740.161)" fill="#0cc6af"/>
        </g>
        <g id="Grupo_10525" data-name="Grupo 10525" transform="translate(0.168 23.659)">
          <path id="Trazado_9758" data-name="Trazado 9758" d="M673.356,676.349a4.069,4.069,0,0,1-1.852-3.208c0-1.173.843-1.652,1.864-1.062l35.32,20.392a4.1,4.1,0,0,1,1.868,3.217c0,1.193-.843,1.652-1.881,1.053Z" transform="translate(-671.504 -671.826)" fill="#0cc6af"/>
        </g>
        <g id="Grupo_10526" data-name="Grupo 10526" transform="translate(0.202 11.829)">
          <path id="Trazado_9759" data-name="Trazado 9759" d="M673.421,653.581a4.07,4.07,0,0,1-1.852-3.208c0-1.174.843-1.652,1.864-1.062l91.161,52.632a4.1,4.1,0,0,1,1.852,3.208c0,1.192-.843,1.652-1.864,1.062Z" transform="translate(-671.569 -649.058)" fill="#0cc6af"/>
        </g>
        <g id="Grupo_10527" data-name="Grupo 10527" transform="translate(0.101 47.318)">
          <path id="Trazado_9760" data-name="Trazado 9760" d="M689.961,727.27l-16.722-9.654c-1.021-.59-1.861-.111-1.864,1.081a4.1,4.1,0,0,0,1.852,3.208l16.722,9.655c1.021.589,1.861.111,1.864-1.062A4.1,4.1,0,0,0,689.961,727.27Z" transform="translate(-671.375 -717.364)" fill="#0cc6af"/>
        </g>
        <g id="Grupo_10528" data-name="Grupo 10528" transform="translate(0.034 70.991)">
          <path id="Trazado_9761" data-name="Trazado 9761" d="M782.885,826.564a4.067,4.067,0,0,1,1.852,3.208c0,1.173-.843,1.652-1.864,1.062L673.1,767.455a4.1,4.1,0,0,1-1.852-3.208c0-1.192.843-1.652,1.864-1.062Z" transform="translate(-671.246 -762.929)" fill="#0cc6af"/>
        </g>
        <g id="Grupo_10529" data-name="Grupo 10529" transform="translate(0.235)">
          <path id="Trazado_9762" data-name="Trazado 9762" d="M673.485,630.813a4.1,4.1,0,0,1-1.852-3.208c0-1.174.843-1.652,1.864-1.062l53.933,31.138a4.07,4.07,0,0,1,1.852,3.208c0,1.173-.826,1.661-1.864,1.062Z" transform="translate(-671.633 -626.29)" fill="#0cc6af"/>
        </g>
        <g id="Grupo_10530" data-name="Grupo 10530" transform="translate(0.134 35.488)">
          <path id="Trazado_9763" data-name="Trazado 9763" d="M801.676,768.962a4.07,4.07,0,0,1,1.852,3.208c0,1.193-.826,1.681-1.864,1.082L673.291,699.136a4.107,4.107,0,0,1-1.852-3.227c0-1.173.843-1.652,1.864-1.062Z" transform="translate(-671.439 -694.594)" fill="#0cc6af"/>
        </g>
      </g>
    </g>
    <g id="Grupo_10561" data-name="Grupo 10561" transform="translate(808.388 198.298)">
      <g id="Grupo_10542" data-name="Grupo 10542" transform="translate(0 19.056)" opacity="0.4">
        <g id="Grupo_10541" data-name="Grupo 10541" style="isolation: isolate">
          <g id="Grupo_10533" data-name="Grupo 10533" transform="translate(0 82.82)">
            <path id="Trazado_9764" data-name="Trazado 9764" d="M1125.1,447.41a4.069,4.069,0,0,1,1.852,3.208c0,1.174-.843,1.652-1.864,1.062l-72.547-41.885a4.1,4.1,0,0,1-1.852-3.208c0-1.192.843-1.652,1.864-1.062Z" transform="translate(-1050.692 -405.269)" fill="#29abe2"/>
          </g>
          <g id="Grupo_10534" data-name="Grupo 10534" transform="translate(0.067 59.162)">
            <path id="Trazado_9765" data-name="Trazado 9765" d="M1052.673,364.259a4.1,4.1,0,0,1-1.852-3.208c0-1.193.843-1.652,1.864-1.062l53.933,31.139a4.041,4.041,0,0,1,1.852,3.208c0,1.173-.827,1.661-1.864,1.062Z" transform="translate(-1050.821 -359.732)" fill="#29abe2"/>
          </g>
          <g id="Grupo_10535" data-name="Grupo 10535" transform="translate(0.168 23.658)">
            <path id="Trazado_9766" data-name="Trazado 9766" d="M1052.867,295.921a4.07,4.07,0,0,1-1.852-3.208c0-1.173.843-1.652,1.864-1.062l35.319,20.392a4.1,4.1,0,0,1,1.869,3.217c0,1.193-.843,1.652-1.881,1.053Z" transform="translate(-1051.015 -291.398)" fill="#29abe2"/>
          </g>
          <g id="Grupo_10536" data-name="Grupo 10536" transform="translate(0.201 11.829)">
            <path id="Trazado_9767" data-name="Trazado 9767" d="M1052.931,273.153a4.071,4.071,0,0,1-1.852-3.208c0-1.173.843-1.652,1.864-1.062l91.161,52.632a4.1,4.1,0,0,1,1.852,3.208c0,1.193-.843,1.652-1.864,1.062Z" transform="translate(-1051.079 -268.63)" fill="#29abe2"/>
          </g>
          <g id="Grupo_10537" data-name="Grupo 10537" transform="translate(0.1 47.317)">
            <path id="Trazado_9768" data-name="Trazado 9768" d="M1069.472,346.842l-16.722-9.655c-1.021-.589-1.861-.111-1.864,1.082a4.1,4.1,0,0,0,1.852,3.208l16.722,9.654c1.021.59,1.861.111,1.864-1.062A4.105,4.105,0,0,0,1069.472,346.842Z" transform="translate(-1050.885 -336.935)" fill="#29abe2"/>
          </g>
          <g id="Grupo_10538" data-name="Grupo 10538" transform="translate(0.033 70.991)">
            <path id="Trazado_9769" data-name="Trazado 9769" d="M1162.4,446.135a4.072,4.072,0,0,1,1.852,3.208c0,1.173-.843,1.652-1.864,1.062l-109.775-63.379a4.1,4.1,0,0,1-1.853-3.208c0-1.192.843-1.652,1.864-1.062Z" transform="translate(-1050.756 -382.501)" fill="#29abe2"/>
          </g>
          <g id="Grupo_10539" data-name="Grupo 10539" transform="translate(0.235)">
            <path id="Trazado_9770" data-name="Trazado 9770" d="M1053,250.384a4.1,4.1,0,0,1-1.852-3.208c0-1.173.843-1.652,1.864-1.062l53.933,31.138a4.068,4.068,0,0,1,1.852,3.208c0,1.173-.826,1.662-1.864,1.063Z" transform="translate(-1051.144 -245.862)" fill="#29abe2"/>
          </g>
          <g id="Grupo_10540" data-name="Grupo 10540" transform="translate(0.134 35.487)">
            <path id="Trazado_9771" data-name="Trazado 9771" d="M1181.186,388.534a4.07,4.07,0,0,1,1.852,3.208c0,1.192-.827,1.681-1.864,1.082L1052.8,318.708a4.1,4.1,0,0,1-1.852-3.227c0-1.174.843-1.652,1.864-1.062Z" transform="translate(-1050.95 -314.166)" fill="#29abe2"/>
          </g>
        </g>
      </g>
      <g id="Grupo_10560" data-name="Grupo 10560" transform="translate(88.392 0)" opacity="0.2">
        <g id="Grupo_10559" data-name="Grupo 10559">
          <g id="Grupo_10543" data-name="Grupo 10543" transform="translate(42.293 47.791)">
            <path id="Trazado_9772" data-name="Trazado 9772" d="M1307.409,301.888c2.974,1.717,5.152,5.571,5.139,10.137s-2.205,5.9-5.179,4.179-5.156-5.569-5.143-10.138S1304.45,300.179,1307.409,301.888Zm-.033,11.606c1.394.8,2.358.057,2.367-3.089s-.948-5-2.342-5.808-2.344-.045-2.353,3.1.948,5,2.328,5.8" transform="translate(-1302.226 -301.17)" fill="#29abe2"/>
          </g>
          <g id="Grupo_10544" data-name="Grupo 10544" transform="translate(43.494 70.214)">
            <path id="Trazado_9773" data-name="Trazado 9773" d="M1304.539,346.9l.007-2.572,5.194,3-.039,13.842-2.787-1.609.032-11.27Z" transform="translate(-1304.539 -344.328)" fill="#29abe2"/>
          </g>
          <g id="Grupo_10545" data-name="Grupo 10545" transform="translate(36.748 66.319)">
            <path id="Trazado_9774" data-name="Trazado 9774" d="M1291.554,339.4l.007-2.572,5.2,3-.039,13.842-2.787-1.609.032-11.27Z" transform="translate(-1291.554 -336.831)" fill="#29abe2"/>
          </g>
          <g id="Grupo_10546" data-name="Grupo 10546" transform="translate(30.609 41.045)">
            <path id="Trazado_9775" data-name="Trazado 9775" d="M1290.064,299.042c-.013,4.569-2.206,5.9-5.183,4.177-2.96-1.708-5.156-5.569-5.142-10.138s2.223-5.886,5.183-4.177C1287.9,290.623,1290.076,294.477,1290.064,299.042Zm-5.176,1.468c1.394.8,2.362.059,2.371-3.087s-.952-5-2.345-5.81c-1.376-.794-2.344-.045-2.353,3.1s.952,5.005,2.328,5.8" transform="translate(-1279.738 -288.186)" fill="#29abe2"/>
          </g>
          <g id="Grupo_10547" data-name="Grupo 10547" transform="translate(30.005 62.426)">
            <path id="Trazado_9776" data-name="Trazado 9776" d="M1278.575,331.91l.007-2.572,5.194,3-.039,13.842-2.787-1.609.032-11.27Z" transform="translate(-1278.575 -329.338)" fill="#29abe2"/>
          </g>
          <g id="Grupo_10548" data-name="Grupo 10548" transform="translate(18.963 58.085)">
            <path id="Trazado_9777" data-name="Trazado 9777" d="M1262.506,321.7c2.977,1.719,5.156,5.569,5.143,10.139s-2.206,5.9-5.183,4.177c-2.96-1.708-5.156-5.573-5.143-10.138S1259.546,319.993,1262.506,321.7Zm-.033,11.606c1.394.8,2.361.055,2.37-3.087s-.951-5-2.345-5.81c-1.376-.794-2.344-.049-2.353,3.1s.951,5,2.328,5.8" transform="translate(-1257.323 -320.983)" fill="#29abe2"/>
          </g>
          <g id="Grupo_10549" data-name="Grupo 10549" transform="translate(7.283 51.341)">
            <path id="Trazado_9778" data-name="Trazado 9778" d="M1240.024,308.721c2.974,1.717,5.152,5.567,5.139,10.136s-2.206,5.9-5.18,4.179-5.155-5.573-5.143-10.139S1237.061,307.011,1240.024,308.721Zm-.033,11.606c1.394.8,2.358.053,2.367-3.089s-.948-5-2.342-5.808-2.344-.049-2.353,3.1.948,5,2.328,5.8" transform="translate(-1234.841 -308.002)" fill="#29abe2"/>
          </g>
          <g id="Grupo_10550" data-name="Grupo 10550" transform="translate(0.604 23.722)">
            <path id="Trazado_9779" data-name="Trazado 9779" d="M1232.311,265.7c-.013,4.569-2.206,5.9-5.183,4.177-2.96-1.709-5.156-5.569-5.143-10.138s2.223-5.886,5.183-4.177C1230.146,257.28,1232.324,261.134,1232.311,265.7Zm-5.175,1.468c1.394.8,2.361.059,2.37-3.087s-.952-5-2.345-5.81c-1.376-.794-2.344-.045-2.353,3.1s.952,5,2.328,5.8" transform="translate(-1221.986 -254.843)" fill="#29abe2"/>
          </g>
          <g id="Grupo_10551" data-name="Grupo 10551" transform="translate(0 45.103)">
            <path id="Trazado_9780" data-name="Trazado 9780" d="M1220.823,298.567l.007-2.572,5.194,3-.039,13.842-2.787-1.609.032-11.27Z" transform="translate(-1220.823 -295.995)" fill="#29abe2"/>
          </g>
          <g id="Grupo_10552" data-name="Grupo 10552" transform="translate(0.671)">
            <path id="Trazado_9781" data-name="Trazado 9781" d="M1227.257,224.218c-2.959-1.709-5.155-5.573-5.142-10.139s2.224-5.885,5.183-4.177c2.978,1.719,5.156,5.569,5.143,10.138S1230.235,225.937,1227.257,224.218Zm.033-11.61c-1.376-.794-2.344-.045-2.353,3.1s.951,5,2.328,5.8c1.394.8,2.362.055,2.371-3.087s-.952-5.009-2.345-5.813" transform="translate(-1222.115 -209.184)" fill="#29abe2"/>
          </g>
          <g id="Grupo_10553" data-name="Grupo 10553" transform="translate(11.713 4.34)">
            <path id="Trazado_9782" data-name="Trazado 9782" d="M1245.743,232.77l.032-11.27-2.407-1.39.007-2.572,5.2,3-.039,13.842Z" transform="translate(-1243.367 -217.538)" fill="#29abe2"/>
          </g>
          <g id="Grupo_10554" data-name="Grupo 10554" transform="translate(12.288 30.467)">
            <path id="Trazado_9783" data-name="Trazado 9783" d="M1244.474,272.721c.013-4.565,2.22-5.888,5.183-4.177s5.152,5.571,5.139,10.136-2.206,5.9-5.179,4.179S1244.461,277.291,1244.474,272.721Zm5.175-1.467c-1.379-.8-2.344-.045-2.353,3.1s.948,5,2.328,5.8,2.358.057,2.367-3.089-.948-5-2.342-5.808" transform="translate(-1244.474 -267.825)" fill="#29abe2"/>
          </g>
          <g id="Grupo_10555" data-name="Grupo 10555" transform="translate(23.326 34.81)">
            <path id="Trazado_9784" data-name="Trazado 9784" d="M1270.886,293.027l-2.787-1.609.032-11.274-2.411-1.392.007-2.568,5.2,3Z" transform="translate(-1265.72 -276.183)" fill="#29abe2"/>
          </g>
          <g id="Grupo_10556" data-name="Grupo 10556" transform="translate(18.996 10.58)">
            <path id="Trazado_9785" data-name="Trazado 9785" d="M1262.528,244.581c-2.959-1.709-5.155-5.573-5.142-10.139s2.223-5.886,5.183-4.177c2.977,1.719,5.155,5.569,5.142,10.139S1265.506,246.3,1262.528,244.581Zm.033-11.61c-1.376-.794-2.344-.045-2.353,3.1s.952,5,2.327,5.8c1.394.8,2.362.056,2.371-3.087s-.952-5.009-2.345-5.814" transform="translate(-1257.386 -229.547)" fill="#29abe2"/>
          </g>
          <g id="Grupo_10557" data-name="Grupo 10557" transform="translate(30.676 17.323)">
            <path id="Trazado_9786" data-name="Trazado 9786" d="M1285.009,257.561c-2.96-1.709-5.156-5.573-5.142-10.139s2.224-5.885,5.183-4.177c2.977,1.719,5.155,5.569,5.142,10.138S1287.987,259.28,1285.009,257.561Zm.033-11.61c-1.376-.794-2.344-.045-2.352,3.1s.951,5,2.328,5.8c1.393.8,2.361.055,2.371-3.087s-.952-5.01-2.346-5.814" transform="translate(-1279.867 -242.527)" fill="#29abe2"/>
          </g>
          <g id="Grupo_10558" data-name="Grupo 10558" transform="translate(41.718 21.664)">
            <path id="Trazado_9787" data-name="Trazado 9787" d="M1303.495,266.113l.032-11.27-2.407-1.39.007-2.572,5.2,3-.039,13.842Z" transform="translate(-1301.12 -250.881)" fill="#29abe2"/>
          </g>
        </g>
      </g>
    </g>
    <g id="Grupo_10579" data-name="Grupo 10579" transform="translate(607.644 261.65)">
      <g id="Grupo_10568" data-name="Grupo 10568" transform="translate(0 45.892)">
        <g id="Grupo_10562" data-name="Grupo 10562" transform="translate(39.024 63.608)">
          <path id="Trazado_9788" data-name="Trazado 9788" d="M751.12,544.3l-11.7,6.8c1-.581,1-2.285,1-2.418l11.7-6.8C752.124,542.012,752.12,543.715,751.12,544.3Z" transform="translate(-739.424 -541.879)" fill="#009688"/>
        </g>
        <g id="Grupo_10563" data-name="Grupo 10563" transform="translate(1.112)">
          <path id="Trazado_9789" data-name="Trazado 9789" d="M666.454,426.439l11.7-6.8c.524-.3,1.322-.3,2.535.4l-11.7,6.8C667.775,426.139,666.978,426.134,666.454,426.439Z" transform="translate(-666.454 -419.45)" fill="#009688"/>
        </g>
        <g id="Grupo_10564" data-name="Grupo 10564" transform="translate(0 6.797)">
          <path id="Trazado_9790" data-name="Trazado 9790" d="M700.933,452.161a7.247,7.247,0,0,1,3.517,6.091l-.108,37.888c0,.2-.011,4.054-3.54,2.018L667.83,479.121a7.248,7.248,0,0,1-3.517-6.091l.108-37.888c0-.2.011-4.054,3.54-2.017Z" transform="translate(-664.313 -432.532)" fill="#0cc6af"/>
        </g>
        <g id="Grupo_10565" data-name="Grupo 10565" transform="translate(40.029 25.72)">
          <path id="Trazado_9791" data-name="Trazado 9791" d="M741.466,475.751l11.7-6.8-.108,37.888-11.7,6.8Z" transform="translate(-741.358 -468.954)" fill="#009688"/>
        </g>
        <g id="Grupo_10566" data-name="Grupo 10566" transform="translate(3.647 0.593)">
          <path id="Trazado_9792" data-name="Trazado 9792" d="M671.333,427.387l11.7-6.8L716,439.627l-11.7,6.8Z" transform="translate(-671.333 -420.59)" fill="#009688"/>
        </g>
        <g id="Grupo_10567" data-name="Grupo 10567" transform="translate(36.62 19.629)">
          <path id="Trazado_9793" data-name="Trazado 9793" d="M734.8,464.028l11.7-6.8a7.248,7.248,0,0,1,3.517,6.091l-11.7,6.8A7.248,7.248,0,0,0,734.8,464.028Z" transform="translate(-734.796 -457.231)" fill="#009688"/>
        </g>
        <path id="Trazado_9794" data-name="Trazado 9794" d="M672.074,479.838l.008-3.082,11.18,1.374-.008,3.29-6.947-.919,6.93,7.082-.011,3.773Z" transform="translate(-668.042 -446.983)" fill="#091a51"/>
        <path id="Trazado_9795" data-name="Trazado 9795" d="M692.724,495.519l7.86-21.028,2.955,1.707-7.86,21.027Z" transform="translate(-677.963 -445.894)" fill="#091a51"/>
        <path id="Trazado_9796" data-name="Trazado 9796" d="M712.261,502.968l.01-3.292,6.973.945-6.955-7.106.011-3.775,11.152,11.52-.008,3.082Z" transform="translate(-687.35 -453.221)" fill="#091a51"/>
      </g>
      <g id="Grupo_10576" data-name="Grupo 10576" transform="translate(203.4 0)">
        <g id="Grupo_10569" data-name="Grupo 10569" transform="translate(41.939 68.362)">
          <path id="Trazado_9797" data-name="Trazado 9797" d="M1149.1,465.3l-12.57,7.3c1.074-.624,1.08-2.455,1.08-2.6l12.571-7.305C1150.176,462.842,1150.171,464.673,1149.1,465.3Z" transform="translate(-1136.526 -462.699)" fill="#009688"/>
        </g>
        <g id="Grupo_10570" data-name="Grupo 10570" transform="translate(1.191)">
          <path id="Trazado_9798" data-name="Trazado 9798" d="M1058.1,338.633l12.571-7.3c.565-.328,1.425-.324,2.736.433l-12.571,7.305C1059.524,338.309,1058.663,338.305,1058.1,338.633Z" transform="translate(-1058.098 -331.121)" fill="#009688"/>
        </g>
        <g id="Grupo_10571" data-name="Grupo 10571" transform="translate(43.019 27.641)">
          <path id="Trazado_9799" data-name="Trazado 9799" d="M1138.72,391.627l12.571-7.305-.116,40.721-12.57,7.305Z" transform="translate(-1138.605 -384.321)" fill="#009688"/>
        </g>
        <g id="Grupo_10572" data-name="Grupo 10572" transform="translate(3.928 0.64)">
          <path id="Trazado_9800" data-name="Trazado 9800" d="M1063.365,339.658l12.571-7.305,35.427,20.454-12.571,7.305Z" transform="translate(-1063.365 -332.353)" fill="#009688"/>
        </g>
        <g id="Grupo_10574" data-name="Grupo 10574" transform="translate(0 7.312)">
          <g id="Grupo_10573" data-name="Grupo 10573">
            <path id="Trazado_9801" data-name="Trazado 9801" d="M1098.932,372.82l-.107,40.738c0,.214-.018,4.352-3.8,2.158-3.817-2.194-33.852-19.53-35.44-20.458a7.806,7.806,0,0,1-3.781-6.546l.107-40.719c0-.214.018-4.352,3.817-2.158l35.422,20.44A7.8,7.8,0,0,1,1098.932,372.82Z" transform="translate(-1055.805 -345.195)" fill="#0cc6af"/>
          </g>
        </g>
        <g id="Grupo_10575" data-name="Grupo 10575" transform="translate(39.355 21.094)">
          <path id="Trazado_9802" data-name="Trazado 9802" d="M1131.552,379.026l12.57-7.305a7.789,7.789,0,0,1,3.78,6.547l-12.571,7.3A7.788,7.788,0,0,0,1131.552,379.026Z" transform="translate(-1131.552 -371.721)" fill="#009688"/>
        </g>
        <path id="Trazado_9803" data-name="Trazado 9803" d="M1081.152,407.3l-.115-.28a39.244,39.244,0,0,1-2.89-14.921c.014-5.217,1.115-9.423,3.1-11.841l.48-.585,3.694,2.133-.555.8c-1.806,2.583-2.653,6.017-2.667,10.808a38.257,38.257,0,0,0,2.694,14.218l.9,2.35Z" transform="translate(-1066.54 -354.447)" fill="#333b57"/>
        <path id="Trazado_9804" data-name="Trazado 9804" d="M1102.111,417.489l.558-.8c1.821-2.6,2.675-6.034,2.689-10.8a38.308,38.308,0,0,0-2.717-14.23l-.9-2.351,4.626,2.671.117.276A39.041,39.041,0,0,1,1109.4,407.2c-.016,5.243-1.094,9.331-3.119,11.824l-.479.59Z" transform="translate(-1077.874 -359.08)" fill="#333b57"/>
      </g>
      <g id="Grupo_10578" data-name="Grupo 10578" transform="translate(248.017 216.593)">
        <g id="Grupo_10577" data-name="Grupo 10577" transform="translate(0 6.34)">
          <path id="Trazado_9805" data-name="Trazado 9805" d="M1179.1,784.187l-.1,35.323c0,.184-.009,3.776-3.306,1.879s-29.354-16.947-30.727-17.74a6.792,6.792,0,0,1-3.288-5.692l.1-35.323c0-.184.009-3.776,3.307-1.87l30.736,17.74A6.751,6.751,0,0,1,1179.1,784.187Z" transform="translate(-1141.681 -760.208)" fill="#0cc6af"/>
        </g>
        <path id="Trazado_9806" data-name="Trazado 9806" d="M1187.684,766.3l-30.732-17.743c-1.137-.657-1.883-.66-2.373-.376l-10.9,6.337c.49-.285,1.236-.281,2.373.376l30.731,17.743a6.758,6.758,0,0,1,3.279,5.679l-.1,35.324c0,.124-.005,1.713-.937,2.254l10.9-6.337c.932-.541.937-2.13.937-2.254l.1-35.324A6.756,6.756,0,0,0,1187.684,766.3Z" transform="translate(-1142.639 -748.006)" fill="#009688"/>
        <path id="Trazado_9807" data-name="Trazado 9807" d="M1164.641,815.306a6.36,6.36,0,0,1-3.371-5.773l.016-5.506a1.406,1.406,0,0,0-.7-1.339l-.963-.555.008-2.98,1.421.819a.922.922,0,0,0,.219.1c0-.038.022-.146.022-.356l.016-5.518c.006-2.421,1.174-2.783,1.869-2.783a4.1,4.1,0,0,1,1.983.664l1.15.663-.009,2.958-1.212-.7a1.281,1.281,0,0,0-.592-.219c-.235,0-.262.555-.263.793l-.015,5.255c0,.452-.005,1.507-.7,1.891a4.124,4.124,0,0,1,.684,2.513l-.015,5.245a2.538,2.538,0,0,0,1.306,2.363l.755.435-.009,2.957Z" transform="translate(-1150.304 -768.861)" fill="#091a51"/>
        <path id="Trazado_9808" data-name="Trazado 9808" d="M1186.063,824.883a4.115,4.115,0,0,1-1.992-.667l-1.15-.664.009-2.957,1.192.687a1.376,1.376,0,0,0,.634.236c.234,0,.26-.558.261-.8l.015-5.244c0-.453,0-1.515.681-1.9a4.092,4.092,0,0,1-.669-2.5l.014-5.256a2.532,2.532,0,0,0-1.344-2.375l-.735-.423.009-2.958,1.606.929a6.363,6.363,0,0,1,3.392,5.771l-.016,5.517a1.387,1.387,0,0,0,.685,1.322l.942.545-.008,2.979-1.4-.808a.834.834,0,0,0-.206-.091c0,.034-.025.144-.025.366l-.016,5.506C1187.936,824.521,1186.762,824.883,1186.063,824.883Z" transform="translate(-1161.495 -773.015)" fill="#091a51"/>
      </g>
    </g>
    <g id="Grupo_10599" data-name="Grupo 10599" transform="translate(607.034 186.525)">
      <g id="Grupo_10597" data-name="Grupo 10597" transform="translate(0 21.64)" opacity="0.6">
        <g id="Grupo_10596" data-name="Grupo 10596">
          <g id="Grupo_10580" data-name="Grupo 10580" transform="translate(49.62 56.071)">
            <path id="Trazado_9809" data-name="Trazado 9809" d="M764.724,336.942c3.489,2.014,6.044,6.536,6.029,11.893s-2.588,6.917-6.077,4.9c-3.473-2-6.049-6.534-6.034-11.9S761.252,334.937,764.724,336.942Zm-.039,13.616c1.635.944,2.767.067,2.777-3.624s-1.112-5.87-2.747-6.814c-1.618-.934-2.75-.052-2.76,3.634s1.112,5.87,2.731,6.8" transform="translate(-758.643 -336.099)" fill="#29abe2"/>
          </g>
          <g id="Grupo_10581" data-name="Grupo 10581" transform="translate(51.03 82.379)">
            <path id="Trazado_9810" data-name="Trazado 9810" d="M761.356,389.752l.008-3.018,6.094,3.519-.046,16.24-3.27-1.888.038-13.223Z" transform="translate(-761.356 -386.734)" fill="#29abe2"/>
          </g>
          <g id="Grupo_10582" data-name="Grupo 10582" transform="translate(43.115 77.809)">
            <path id="Trazado_9811" data-name="Trazado 9811" d="M746.122,380.956l.009-3.017,6.1,3.521-.046,16.24-3.27-1.888.037-13.223Z" transform="translate(-746.122 -377.939)" fill="#29abe2"/>
          </g>
          <g id="Grupo_10583" data-name="Grupo 10583" transform="translate(35.912 48.157)">
            <path id="Trazado_9812" data-name="Trazado 9812" d="M744.373,333.6c-.016,5.361-2.588,6.917-6.081,4.9-3.472-2-6.049-6.534-6.033-11.9s2.608-6.905,6.081-4.9C741.833,323.725,744.388,328.247,744.373,333.6Zm-6.072,1.722c1.635.944,2.771.07,2.781-3.622s-1.117-5.872-2.752-6.816c-1.615-.932-2.751-.053-2.761,3.634s1.117,5.872,2.731,6.8" transform="translate(-732.259 -320.866)" fill="#29abe2"/>
          </g>
          <g id="Grupo_10584" data-name="Grupo 10584" transform="translate(35.204 73.242)">
            <path id="Trazado_9813" data-name="Trazado 9813" d="M730.895,372.165l.009-3.017L737,372.666l-.046,16.24-3.27-1.888.037-13.223Z" transform="translate(-730.895 -369.147)" fill="#29abe2"/>
          </g>
          <g id="Grupo_10585" data-name="Grupo 10585" transform="translate(22.249 68.149)">
            <path id="Trazado_9814" data-name="Trazado 9814" d="M712.042,360.189c3.493,2.017,6.049,6.533,6.033,11.895s-2.588,6.918-6.081,4.9c-3.472-2-6.049-6.539-6.033-11.9S708.569,358.184,712.042,360.189ZM712,373.806c1.635.944,2.771.064,2.781-3.622s-1.117-5.873-2.752-6.817c-1.615-.932-2.75-.057-2.761,3.634s1.117,5.872,2.731,6.8" transform="translate(-705.961 -359.345)" fill="#29abe2"/>
          </g>
          <g id="Grupo_10586" data-name="Grupo 10586" transform="translate(8.545 60.236)">
            <path id="Trazado_9815" data-name="Trazado 9815" d="M685.665,344.959c3.489,2.015,6.044,6.531,6.029,11.893s-2.588,6.917-6.077,4.9-6.049-6.538-6.034-11.895S682.188,342.952,685.665,344.959Zm-.038,13.617c1.635.944,2.767.062,2.777-3.624s-1.112-5.87-2.747-6.814c-1.618-.935-2.75-.058-2.76,3.634s1.112,5.869,2.731,6.8" transform="translate(-679.584 -344.115)" fill="#29abe2"/>
          </g>
          <g id="Grupo_10587" data-name="Grupo 10587" transform="translate(0.708 27.832)">
            <path id="Trazado_9816" data-name="Trazado 9816" d="M676.615,294.483c-.015,5.361-2.588,6.917-6.081,4.9-3.473-2-6.049-6.534-6.034-11.9s2.609-6.905,6.081-4.9C674.075,284.606,676.63,289.127,676.615,294.483Zm-6.072,1.722c1.635.944,2.771.07,2.781-3.622s-1.117-5.872-2.752-6.816c-1.614-.932-2.75-.052-2.76,3.634s1.117,5.872,2.731,6.8" transform="translate(-664.501 -281.746)" fill="#29abe2"/>
          </g>
          <g id="Grupo_10588" data-name="Grupo 10588" transform="translate(0 52.917)">
            <path id="Trazado_9817" data-name="Trazado 9817" d="M663.137,333.045l.009-3.018,6.094,3.519-.046,16.24-3.27-1.888.037-13.223Z" transform="translate(-663.137 -330.028)" fill="#29abe2"/>
          </g>
          <g id="Grupo_10589" data-name="Grupo 10589" transform="translate(0.787)">
            <path id="Trazado_9818" data-name="Trazado 9818" d="M670.687,245.816c-3.473-2-6.049-6.539-6.034-11.9s2.609-6.905,6.081-4.9c3.493,2.017,6.049,6.534,6.034,11.9S674.179,247.832,670.687,245.816Zm.038-13.622c-1.614-.932-2.75-.052-2.76,3.638s1.117,5.872,2.731,6.8c1.635.944,2.771.064,2.781-3.622s-1.117-5.877-2.752-6.821" transform="translate(-664.653 -228.177)" fill="#29abe2"/>
          </g>
          <g id="Grupo_10590" data-name="Grupo 10590" transform="translate(13.742 5.093)">
            <path id="Trazado_9819" data-name="Trazado 9819" d="M692.374,255.849l.037-13.223L689.587,241l.009-3.018,6.1,3.521-.046,16.24Z" transform="translate(-689.587 -237.979)" fill="#29abe2"/>
          </g>
          <g id="Grupo_10591" data-name="Grupo 10591" transform="translate(14.417 35.745)">
            <path id="Trazado_9820" data-name="Trazado 9820" d="M690.886,302.721c.015-5.357,2.6-6.907,6.081-4.9s6.044,6.536,6.029,11.893-2.588,6.917-6.077,4.9S690.87,308.083,690.886,302.721ZM696.958,301c-1.619-.934-2.75-.052-2.761,3.634s1.112,5.87,2.731,6.8c1.635.944,2.767.067,2.777-3.624s-1.112-5.87-2.747-6.814" transform="translate(-690.886 -296.977)" fill="#29abe2"/>
          </g>
          <g id="Grupo_10592" data-name="Grupo 10592" transform="translate(27.367 40.841)">
            <path id="Trazado_9821" data-name="Trazado 9821" d="M721.873,326.545l-3.27-1.888.038-13.228-2.828-1.633.008-3.013,6.1,3.521Z" transform="translate(-715.812 -306.784)" fill="#29abe2"/>
          </g>
          <g id="Grupo_10593" data-name="Grupo 10593" transform="translate(22.287 12.413)">
            <path id="Trazado_9822" data-name="Trazado 9822" d="M712.067,269.707c-3.472-2-6.048-6.538-6.033-11.895s2.609-6.905,6.081-4.9c3.493,2.017,6.049,6.534,6.034,11.9S715.56,271.724,712.067,269.707Zm.039-13.621c-1.615-.932-2.75-.053-2.761,3.638s1.116,5.872,2.731,6.8c1.635.944,2.771.065,2.781-3.622s-1.117-5.877-2.752-6.821" transform="translate(-706.034 -252.068)" fill="#29abe2"/>
          </g>
          <g id="Grupo_10594" data-name="Grupo 10594" transform="translate(35.991 20.325)">
            <path id="Trazado_9823" data-name="Trazado 9823" d="M738.443,284.936c-3.472-2-6.049-6.539-6.034-11.9s2.609-6.905,6.081-4.9c3.493,2.017,6.049,6.533,6.033,11.895S741.936,286.952,738.443,284.936Zm.038-13.622c-1.614-.932-2.75-.052-2.76,3.638s1.116,5.872,2.731,6.8c1.635.943,2.771.064,2.782-3.622s-1.117-5.877-2.752-6.821" transform="translate(-732.41 -267.296)" fill="#29abe2"/>
          </g>
          <g id="Grupo_10595" data-name="Grupo 10595" transform="translate(48.946 25.417)">
            <path id="Trazado_9824" data-name="Trazado 9824" d="M760.132,294.969l.037-13.223-2.824-1.631.009-3.017,6.1,3.521-.046,16.24Z" transform="translate(-757.345 -277.098)" fill="#29abe2"/>
          </g>
        </g>
      </g>
      <g id="Grupo_10598" data-name="Grupo 10598" transform="translate(57.678)" opacity="0.4">
        <path id="Trazado_9825" data-name="Trazado 9825" d="M814.3,208.133c2.83,1.634,3.133,2.559,3.518,3.624l.2.609a16.822,16.822,0,0,1,.6,3.464l-.229,80.62a7.4,7.4,0,0,1-.948,3.343c-.307.5-.655.98-3.4-.606l-35.549-20.524c-2.83-1.634-3.154-2.547-3.518-3.624a12.729,12.729,0,0,1-.444-1.592,16.421,16.421,0,0,1-.38-2.469l.229-80.621a7.637,7.637,0,0,1,.968-3.331c.307-.526.655-1,3.4.583Z" transform="translate(-774.152 -186.525)" fill="#29abe2"/>
      </g>
    </g>
  </g>
</svg>
