<svg xmlns="http://www.w3.org/2000/svg" width="242" height="242" viewBox="0 0 242 242">
  <g id="Grupo_10473" data-name="Grupo 10473" transform="translate(-47 -840)">
    <circle id="Elipse_627" data-name="Elipse 627" cx="121" cy="121" r="121" transform="translate(47 840)" fill="#e6eef3"/>
    <g id="desarrollador" transform="translate(101.999 887.986)">
      <path id="Trazado_9722" data-name="Trazado 9722" d="M346.213,112.211a2,2,0,0,0-1.8-1.93.794.794,0,0,0-.5.133l-6.715,4.361a1.747,1.747,0,0,0,0,2.961l6.715,4.361a.794.794,0,0,0,.5.133,2,2,0,0,0,1.8-1.93,1.211,1.211,0,0,0-.476-1.031l-4.653-3.013,4.653-3.013a1.214,1.214,0,0,0,.476-1.031Zm0,0" transform="translate(-240.377 -78.807)" fill="#3f6073"/>
      <path id="Trazado_9723" data-name="Trazado 9723" d="M391.081,85.367a1.163,1.163,0,0,0-1.11.661l-9.279,19.058a1.187,1.187,0,0,0-.133.5,1.463,1.463,0,0,0,1.482,1.4,1.326,1.326,0,0,0,1.19-.66l9.3-19.059a1.148,1.148,0,0,0,.106-.5,1.516,1.516,0,0,0-1.56-1.4Zm0,0" transform="translate(-271.948 -61.004)" fill="#3f6073"/>
      <path id="Trazado_9724" data-name="Trazado 9724" d="M441.63,114.775l-6.714-4.361a.8.8,0,0,0-.5-.133,2,2,0,0,0-1.8,1.93,1.211,1.211,0,0,0,.476,1.031l4.652,3.013-4.652,3.013a1.211,1.211,0,0,0-.476,1.031,2,2,0,0,0,1.8,1.93.8.8,0,0,0,.5-.133l6.714-4.361a1.747,1.747,0,0,0,0-2.961Zm0,0" transform="translate(-309.149 -78.807)" fill="#3f6073"/>
      <path id="Trazado_9725" data-name="Trazado 9725" d="M135.774,10.642H89.687A16.571,16.571,0,0,0,74.231,0H43.319A16.562,16.562,0,0,0,26.777,16.542V35.326A6.98,6.98,0,0,0,24.529,41.9l1.215,6.687a5.823,5.823,0,0,0,2.6,4.062,6.292,6.292,0,0,0,3.31.876v1.188c0,6.029,3.517,12.673,9.65,18.231a39.4,39.4,0,0,0,3.58,2.882v3.585a2.268,2.268,0,0,1-1.854,2.23c-.05.009-.1.02-.148.032s-3.711.968-8.515,2.33h-15.7a6.38,6.38,0,0,0-6.365,6.835l.042.6C5.331,94.964.914,101.277.492,108.451l0,.09L0,138a8.019,8.019,0,0,0,8.02,8.118H109.528a8.021,8.021,0,0,0,8.02-8.127l-.487-29.455c0-.03,0-.06,0-.09-.433-7.381-5.095-13.85-12.473-17.3-.135-.064-.276-.128-.423-.194l.008-.113A6.38,6.38,0,0,0,97.8,84H83.181c-4.8-1.362-8.478-2.32-8.515-2.329s-.1-.025-.148-.033a2.268,2.268,0,0,1-1.854-2.23V75.828a39.607,39.607,0,0,0,3.58-2.883,31.268,31.268,0,0,0,8.292-11.476H98.444l-2.429,9.8a3.863,3.863,0,0,0,1.653,4.21,3.861,3.861,0,0,0,4.521-.171l18.022-13.844h15.563A10.238,10.238,0,0,0,146,51.242V20.87a10.239,10.239,0,0,0-10.227-10.227ZM85.9,39.023a9.236,9.236,0,0,1,2.1-.439,2.761,2.761,0,0,1,.813,2.551L87.6,47.788c-.176.929-.533,1.149-.65,1.222a2.089,2.089,0,0,1-1.055.237ZM31.058,16.542A12.275,12.275,0,0,1,43.319,4.281H74.232A12.275,12.275,0,0,1,86.492,16.542V34.476a12.458,12.458,0,0,0-3.666,1.233V22.667a8.516,8.516,0,0,0-8.506-8.506H68.536a8.744,8.744,0,0,0-5.517,1.968l-.566.464a5.811,5.811,0,0,1-7.355,0l-.567-.465a8.741,8.741,0,0,0-5.517-1.968H43.229a8.515,8.515,0,0,0-8.506,8.506V35.708a12.452,12.452,0,0,0-3.666-1.232ZM30.6,49.01c-.117-.072-.474-.293-.647-1.2l-1.212-6.67a2.766,2.766,0,0,1,.81-2.551,9.238,9.238,0,0,1,2.1.437l0,10.225A2.1,2.1,0,0,1,30.6,49.01ZM11.661,140.291a5.831,5.831,0,0,0,.21,1.551H8.022a3.74,3.74,0,0,1-3.74-3.776l.487-29.408a15.712,15.712,0,0,1,7.918-12.509L15.3,132.814a6.329,6.329,0,0,0,.443,1.915,5.84,5.84,0,0,0-4.081,5.562Zm89.516-7.477,2.656-37.256c5.371,2.882,8.61,7.6,8.949,13.1l.487,29.4a3.74,3.74,0,0,1-3.74,3.785H105.68a5.832,5.832,0,0,0-4.861-7.331,6.3,6.3,0,0,0,.358-1.7Zm.431,7.477a1.552,1.552,0,0,1-1.55,1.551H17.491a1.55,1.55,0,0,1,0-3.1h82.568A1.552,1.552,0,0,1,101.608,140.291ZM99.342,88.955a2.078,2.078,0,0,1,.557,1.581l-2.992,41.976a2.107,2.107,0,0,1-2.095,1.95H21.664a2.108,2.108,0,0,1-2.095-1.951L16.578,90.535a2.1,2.1,0,0,1,2.095-2.25H97.8a2.082,2.082,0,0,1,1.537.669ZM70.264,84H47.286a6.541,6.541,0,0,0,1.881-4.592v-.958a21.7,21.7,0,0,0,9.608,2.727,21.7,21.7,0,0,0,9.609-2.727v.958A6.54,6.54,0,0,0,70.264,84Zm3.1-14.232C68.589,74.1,62.861,76.9,58.774,76.9s-9.814-2.8-14.593-7.128c-5.24-4.746-8.244-10.235-8.244-15.059l0-13.485h.084A2.992,2.992,0,0,0,39,38.241V22.667a4.23,4.23,0,0,1,4.225-4.225h5.785a4.445,4.445,0,0,1,2.806,1l.569.465a10.09,10.09,0,0,0,12.773,0l.567-.464a4.448,4.448,0,0,1,2.807-1H74.32a4.231,4.231,0,0,1,4.226,4.225V38.241a2.992,2.992,0,0,0,3.07,2.988l0,13.486c0,4.823-3,10.312-8.244,15.058ZM141.72,51.242a5.953,5.953,0,0,1-5.946,5.946h-16.29a2.136,2.136,0,0,0-1.3.444L100.426,71.27l2.831-11.426a2.14,2.14,0,0,0-2.077-2.656H85.7a16.539,16.539,0,0,0,.191-2.474V53.526A6.291,6.291,0,0,0,89.2,52.65a5.83,5.83,0,0,0,2.605-4.079l1.212-6.67a6.979,6.979,0,0,0-2.247-6.575V16.542c0-.545-.027-1.086-.079-1.619h45.079a5.953,5.953,0,0,1,5.946,5.946Zm0,0" fill="#3f6073"/>
      <path id="Trazado_9726" data-name="Trazado 9726" d="M185.79,384.07a8.047,8.047,0,1,0-8.047-8.047A8.056,8.056,0,0,0,185.79,384.07Zm0-11.813a3.766,3.766,0,1,1-3.766,3.766A3.77,3.77,0,0,1,185.79,372.257Zm0,0" transform="translate(-127.015 -262.957)" fill="#3f6073"/>
    </g>
  </g>
</svg>
