<svg xmlns="http://www.w3.org/2000/svg" width="242" height="242" viewBox="0 0 242 242">
  <g id="Grupo_10463" data-name="Grupo 10463" transform="translate(-47 -840)">
    <circle id="Elipse_627" data-name="Elipse 627" cx="121" cy="121" r="121" transform="translate(47 840)" fill="#e6eef3"/>
    <g id="desarrollo-web" transform="translate(97 890)">
      <path id="Trazado_9683" data-name="Trazado 9683" d="M19.028,19.814l6.9,4.6a2.3,2.3,0,0,0,2.553-3.827L24.444,17.9l4.03-2.686a2.3,2.3,0,0,0-2.553-3.827l-6.9,4.6a2.3,2.3,0,0,0,0,3.827Z" transform="translate(20.796 11.7)" fill="#3f6073"/>
      <path id="Trazado_9684" data-name="Trazado 9684" d="M29.387,23.777a2.3,2.3,0,0,0,3.19.637l6.9-4.6a2.3,2.3,0,0,0,0-3.827l-6.9-4.6a2.3,2.3,0,1,0-2.553,3.827L34.06,17.9l-4.03,2.686a2.3,2.3,0,0,0-.644,3.19Z" transform="translate(35.1 11.7)" fill="#3f6073"/>
      <path id="Trazado_9685" data-name="Trazado 9685" d="M25.577,28.285a2.3,2.3,0,0,0,2.907-1.456l4.6-13.8a2.3,2.3,0,0,0-4.37-1.454l-4.6,13.8a2.3,2.3,0,0,0,1.463,2.909Z" transform="translate(28.596 10.398)" fill="#3f6073"/>
      <path id="Trazado_9686" data-name="Trazado 9686" d="M19,19H32.8v4.6H19Z" transform="translate(22.1 22.1)" fill="#3f6073"/>
      <path id="Trazado_9687" data-name="Trazado 9687" d="M27,19h4.6v4.6H27Z" transform="translate(32.5 22.1)" fill="#3f6073"/>
      <path id="Trazado_9688" data-name="Trazado 9688" d="M23,22H50.6v4.6H23Z" transform="translate(27.3 26)" fill="#3f6073"/>
      <path id="Trazado_9689" data-name="Trazado 9689" d="M41,22H61.7v4.6H41Z" transform="translate(50.7 26)" fill="#3f6073"/>
      <path id="Trazado_9690" data-name="Trazado 9690" d="M23,25h4.6v4.6H23Z" transform="translate(27.3 29.9)" fill="#3f6073"/>
      <path id="Trazado_9691" data-name="Trazado 9691" d="M27,25H54.6v4.6H27Z" transform="translate(32.5 29.9)" fill="#3f6073"/>
      <path id="Trazado_9692" data-name="Trazado 9692" d="M41,25h9.2v4.6H41Z" transform="translate(50.7 29.9)" fill="#3f6073"/>
      <path id="Trazado_9693" data-name="Trazado 9693" d="M30,28H43.8v4.6H30Z" transform="translate(36.4 33.8)" fill="#3f6073"/>
      <path id="Trazado_9694" data-name="Trazado 9694" d="M38,28h4.6v4.6H38Z" transform="translate(46.8 33.8)" fill="#3f6073"/>
      <path id="Trazado_9695" data-name="Trazado 9695" d="M37,22h4.6v4.6H37Z" transform="translate(45.5 26)" fill="#3f6073"/>
      <path id="Trazado_9696" data-name="Trazado 9696" d="M137.7,107.8H98.177a6.822,6.822,0,0,0,.423-2.3,6.9,6.9,0,0,0-6.9-6.9H84.158L81.09,89.4H114.7a11.514,11.514,0,0,0,11.5-11.5V13.5A11.514,11.514,0,0,0,114.7,2H27.3A11.514,11.514,0,0,0,15.8,13.5V61.8H4.3A2.3,2.3,0,0,0,2,64.1v73.6A2.3,2.3,0,0,0,4.3,140H59.5a2.3,2.3,0,0,0,2.3-2.3V112.4h4.6v25.3a2.3,2.3,0,0,0,2.3,2.3h69a2.3,2.3,0,0,0,2.3-2.3V110.1A2.3,2.3,0,0,0,137.7,107.8ZM79.308,98.6H61.8V89.4H76.242ZM114.7,84.8H61.8V75.6h59.8v2.3A6.9,6.9,0,0,1,114.7,84.8ZM27.3,6.6h87.4a6.9,6.9,0,0,1,6.477,4.6H20.823A6.9,6.9,0,0,1,27.3,6.6Zm-6.9,9.2H121.6V71H61.8V64.1a2.3,2.3,0,0,0-2.3-2.3H34.2V25a2.3,2.3,0,0,0-4.6,0V61.8H20.4ZM57.2,135.4H6.6v-69H57.2Zm4.6-32.2H91.7a2.3,2.3,0,1,1,0,4.6H61.8Zm73.6,32.2H71v-23h64.4Z" transform="translate(0)" fill="#3f6073"/>
      <path id="Trazado_9697" data-name="Trazado 9697" d="M36,51h4.6v4.6H36Z" transform="translate(44.2 63.7)" fill="#3f6073"/>
      <path id="Trazado_9698" data-name="Trazado 9698" d="M39,51h4.6v4.6H39Z" transform="translate(48.1 63.7)" fill="#3f6073"/>
      <path id="Trazado_9699" data-name="Trazado 9699" d="M42,51h4.6v4.6H42Z" transform="translate(52 63.7)" fill="#3f6073"/>
      <path id="Trazado_9700" data-name="Trazado 9700" d="M45,51h4.6v4.6H45Z" transform="translate(55.9 63.7)" fill="#3f6073"/>
      <path id="Trazado_9701" data-name="Trazado 9701" d="M48,51h4.6v4.6H48Z" transform="translate(59.8 63.7)" fill="#3f6073"/>
      <path id="Trazado_9702" data-name="Trazado 9702" d="M51,51h4.6v4.6H51Z" transform="translate(63.7 63.7)" fill="#3f6073"/>
      <path id="Trazado_9703" data-name="Trazado 9703" d="M54,51h4.6v4.6H54Z" transform="translate(67.6 63.7)" fill="#3f6073"/>
      <path id="Trazado_9704" data-name="Trazado 9704" d="M36,54h4.6v4.6H36Z" transform="translate(44.2 67.6)" fill="#3f6073"/>
      <path id="Trazado_9705" data-name="Trazado 9705" d="M39,54h4.6v4.6H39Z" transform="translate(48.1 67.6)" fill="#3f6073"/>
      <path id="Trazado_9706" data-name="Trazado 9706" d="M42,54h4.6v4.6H42Z" transform="translate(52 67.6)" fill="#3f6073"/>
      <path id="Trazado_9707" data-name="Trazado 9707" d="M45,54h4.6v4.6H45Z" transform="translate(55.9 67.6)" fill="#3f6073"/>
      <path id="Trazado_9708" data-name="Trazado 9708" d="M48,54h4.6v4.6H48Z" transform="translate(59.8 67.6)" fill="#3f6073"/>
      <path id="Trazado_9709" data-name="Trazado 9709" d="M51,54h4.6v4.6H51Z" transform="translate(63.7 67.6)" fill="#3f6073"/>
      <path id="Trazado_9710" data-name="Trazado 9710" d="M54,54h4.6v4.6H54Z" transform="translate(67.6 67.6)" fill="#3f6073"/>
      <path id="Trazado_9711" data-name="Trazado 9711" d="M36,57h4.6v4.6H36Z" transform="translate(44.2 71.5)" fill="#3f6073"/>
      <path id="Trazado_9712" data-name="Trazado 9712" d="M39,57H71.2v4.6H39Z" transform="translate(48.1 71.5)" fill="#3f6073"/>
      <path id="Trazado_9713" data-name="Trazado 9713" d="M54,57h4.6v4.6H54Z" transform="translate(67.6 71.5)" fill="#3f6073"/>
      <path id="Trazado_9714" data-name="Trazado 9714" d="M57,51h4.6v4.6H57Z" transform="translate(71.5 63.7)" fill="#3f6073"/>
      <path id="Trazado_9715" data-name="Trazado 9715" d="M57,54h4.6v4.6H57Z" transform="translate(71.5 67.6)" fill="#3f6073"/>
      <path id="Trazado_9716" data-name="Trazado 9716" d="M57,57h4.6v4.6H57Z" transform="translate(71.5 71.5)" fill="#3f6073"/>
      <path id="Trazado_9717" data-name="Trazado 9717" d="M33,51h4.6v4.6H33Z" transform="translate(40.3 63.7)" fill="#3f6073"/>
      <path id="Trazado_9718" data-name="Trazado 9718" d="M33,54h4.6v4.6H33Z" transform="translate(40.3 67.6)" fill="#3f6073"/>
      <path id="Trazado_9719" data-name="Trazado 9719" d="M33,57h4.6v4.6H33Z" transform="translate(40.3 71.5)" fill="#3f6073"/>
      <path id="Trazado_9720" data-name="Trazado 9720" d="M27.251,42.5a5.75,5.75,0,0,0,0-11.5h-11.5a5.75,5.75,0,0,0,0,11.5H19.2v5.479L11.273,51.93a2.3,2.3,0,0,0,0,4.117L19.2,60.021V65.5H12.3A2.3,2.3,0,0,0,10,67.8V77a2.3,2.3,0,0,0,2.3,2.3h6.9v4.6h-3.45a5.75,5.75,0,0,0,0,11.5h11.5a5.75,5.75,0,0,0,0-11.5H23.8V79.3h6.9A2.3,2.3,0,0,0,33,77V67.8a2.3,2.3,0,0,0-2.3-2.3H23.8V60.021l7.928-3.951a2.3,2.3,0,0,0,0-4.117L23.8,47.979V42.5ZM28.4,89.65a1.15,1.15,0,0,1-1.15,1.15h-11.5a1.15,1.15,0,1,1,0-2.3h11.5A1.15,1.15,0,0,1,28.4,89.65Zm0-19.55v4.6H14.6V70.1ZM21.5,56.029,17.444,54,21.5,51.971,25.558,54ZM14.6,36.75a1.15,1.15,0,0,1,1.15-1.15h11.5a1.15,1.15,0,0,1,0,2.3h-11.5A1.15,1.15,0,0,1,14.6,36.75Z" transform="translate(10.399 37.7)" fill="#3f6073"/>
    </g>
  </g>
</svg>
