<svg xmlns="http://www.w3.org/2000/svg" width="901" height="395" viewBox="0 0 901 395">
  <g id="Grupo_10384" data-name="Grupo 10384" transform="translate(-111 -1011)">
    <rect id="Rectángulo_2821" data-name="Rectángulo 2821" width="232" height="46" rx="23" transform="translate(439 1011)" fill="#014c7f"/>
    <text id="CLASES" transform="translate(439 1022)" fill="#fff" font-size="18" font-family="CerebriSans-Bold, Cerebri Sans" font-weight="700"><tspan x="81.626" y="17">CLASES</tspan></text>
    <g id="Grupo_10377" data-name="Grupo 10377" transform="translate(-140 -70)">
      <rect id="Rectángulo_2822" data-name="Rectángulo 2822" width="263" height="46" rx="23" transform="translate(251 1167)" fill="#015e7a"/>
      <text id="CADENAS_DE_CARACTERES" data-name="CADENAS DE CARACTERES" transform="translate(251 1178)" fill="#fff" font-size="16" font-family="CerebriSans-Regular, Cerebri Sans"><tspan x="29.746" y="16">CADENAS DE CARACTERES</tspan></text>
    </g>
    <text id="Instancia_de_la_clase_string." data-name="Instancia de la clase string." transform="translate(167 1171)" fill="#00223d" font-size="16" font-family="CerebriSans-Regular, Cerebri Sans"><tspan x="0" y="16">Instancia de la clase string.</tspan></text>
    <text id="También_llamados_vectores." data-name="También llamados vectores." transform="translate(466 1171)" fill="#00223d" font-size="16" font-family="CerebriSans-Regular, Cerebri Sans"><tspan x="0" y="16">También llamados vectores.</tspan></text>
    <text id="Clases_del_lenguaje." data-name="Clases del lenguaje." transform="translate(798 1171)" fill="#00223d" font-size="16" font-family="CerebriSans-Regular, Cerebri Sans"><tspan x="0" y="16">Clases del lenguaje.</tspan></text>
    <text id="Al_crear_una_cadena_se_crea_un_objeto." data-name="Al crear una cadena se crea un objeto." transform="translate(167 1223)" fill="#00223d" font-size="16" font-family="CerebriSans-Regular, Cerebri Sans"><tspan x="0" y="16">Al crear una cadena se crea </tspan><tspan x="0" y="40">un objeto.</tspan></text>
    <text id="Matrices_si_son_dos_o_más_dimensiones." data-name="Matrices si son dos o más dimensiones." transform="translate(466 1223)" fill="#00223d" font-size="16" font-family="CerebriSans-Regular, Cerebri Sans"><tspan x="0" y="16">Matrices si son dos o más </tspan><tspan x="0" y="40">dimensiones.</tspan></text>
    <text id="Clases_escritas_por_el_programador." data-name="Clases escritas por el programador." transform="translate(798 1223)" fill="#00223d" font-size="16" font-family="CerebriSans-Regular, Cerebri Sans"><tspan x="0" y="16">Clases escritas por el </tspan><tspan x="0" y="40">programador.</tspan></text>
    <text id="Se_delimitan_con_comillas_dobles." data-name="Se delimitan con comillas dobles." transform="translate(167 1291)" fill="#00223d" font-size="16" font-family="CerebriSans-Regular, Cerebri Sans"><tspan x="0" y="16">Se delimitan con comillas </tspan><tspan x="0" y="40">dobles.</tspan></text>
    <text id="Se_numeran_desde_0." data-name="Se numeran desde 0." transform="translate(466 1291)" fill="#00223d" font-size="16" font-family="CerebriSans-Regular, Cerebri Sans"><tspan x="0" y="16">Se numeran desde 0.</tspan></text>
    <text id="Tiene_métodos_para_manipularlas." data-name="Tiene métodos para manipularlas." transform="translate(167 1360)" fill="#00223d" font-size="16" font-family="CerebriSans-Regular, Cerebri Sans"><tspan x="0" y="16">Tiene métodos para </tspan><tspan x="0" y="40">manipularlas.</tspan></text>
    <text id="Almacenan_múltiples_valores." data-name="Almacenan múltiples valores." transform="translate(466 1336)" fill="#00223d" font-size="16" font-family="CerebriSans-Regular, Cerebri Sans"><tspan x="0" y="16">Almacenan múltiples valores.</tspan></text>
    <g id="Grupo_10378" data-name="Grupo 10378" transform="translate(-17 -70)">
      <rect id="Rectángulo_2903" data-name="Rectángulo 2903" width="304" height="46" rx="23" transform="translate(420 1167)" fill="#015e7a"/>
      <text id="ARRAYS" transform="translate(420 1178)" fill="#fff" font-size="16" font-family="CerebriSans-Regular, Cerebri Sans"><tspan x="122.539" y="16">ARRAYS</tspan></text>
    </g>
    <g id="Grupo_10379" data-name="Grupo 10379" transform="translate(145 -70)">
      <rect id="Rectángulo_2904" data-name="Rectángulo 2904" width="278" height="46" rx="23" transform="translate(589 1167)" fill="#015e7a"/>
      <text id="DEFINIDOS_POR_EL_USUARIO" data-name="DEFINIDOS POR EL USUARIO" transform="translate(589 1178)" fill="#fff" font-size="16" font-family="CerebriSans-Regular, Cerebri Sans"><tspan x="31.293" y="16">DEFINIDOS POR EL USUARIO</tspan></text>
    </g>
    <path id="Trazado_9604" data-name="Trazado 9604" d="M6022-5512v229" transform="translate(-5890 6655)" fill="none" stroke="#ff8f00" stroke-width="1"/>
    <path id="Trazado_9633" data-name="Trazado 9633" d="M6022-5512v205" transform="translate(-5591 6655)" fill="none" stroke="#ff8f00" stroke-width="1"/>
    <path id="Trazado_9639" data-name="Trazado 9639" d="M6022-5512v91.483" transform="translate(-5259 6655)" fill="none" stroke="#ff8f00" stroke-width="1"/>
    <path id="Trazado_9605" data-name="Trazado 9605" d="M6022-5489h19" transform="translate(-5890 6672)" fill="none" stroke="#ff8f00" stroke-width="1"/>
    <path id="Trazado_9634" data-name="Trazado 9634" d="M6022-5489h19" transform="translate(-5591 6672)" fill="none" stroke="#ff8f00" stroke-width="1"/>
    <path id="Trazado_9635" data-name="Trazado 9635" d="M6022-5489h19" transform="translate(-5259 6672)" fill="none" stroke="#ff8f00" stroke-width="1"/>
    <path id="Trazado_9606" data-name="Trazado 9606" d="M6022-5489h19" transform="translate(-5890 6723)" fill="none" stroke="#ff8f00" stroke-width="1"/>
    <path id="Trazado_9632" data-name="Trazado 9632" d="M6022-5489h19" transform="translate(-5591 6723)" fill="none" stroke="#ff8f00" stroke-width="1"/>
    <path id="Trazado_9636" data-name="Trazado 9636" d="M6022-5489h19" transform="translate(-5259 6723)" fill="none" stroke="#ff8f00" stroke-width="1"/>
    <path id="Trazado_9607" data-name="Trazado 9607" d="M6022-5489h19" transform="translate(-5890 6792)" fill="none" stroke="#ff8f00" stroke-width="1"/>
    <path id="Trazado_9630" data-name="Trazado 9630" d="M6022-5489h19" transform="translate(-5591 6792)" fill="none" stroke="#ff8f00" stroke-width="1"/>
    <path id="Trazado_9608" data-name="Trazado 9608" d="M6022-5489h19" transform="translate(-5890 6861)" fill="none" stroke="#ff8f00" stroke-width="1"/>
    <path id="Trazado_9631" data-name="Trazado 9631" d="M6022-5489h19" transform="translate(-5591 6837)" fill="none" stroke="#ff8f00" stroke-width="1"/>
    <path id="Trazado_9624" data-name="Trazado 9624" d="M6087-5597h630" transform="translate(-5844 6672)" fill="none" stroke="#ff8f00" stroke-width="1"/>
    <path id="Trazado_9625" data-name="Trazado 9625" d="M6171-5576v-22" transform="translate(-5928 6673)" fill="none" stroke="#ff8f00" stroke-width="1"/>
    <path id="Trazado_9626" data-name="Trazado 9626" d="M6171-5576v-22" transform="translate(-5616 6673)" fill="none" stroke="#ff8f00" stroke-width="1"/>
    <path id="Trazado_9628" data-name="Trazado 9628" d="M6171-5576v-22" transform="translate(-5298 6673)" fill="none" stroke="#ff8f00" stroke-width="1"/>
    <path id="Trazado_9629" data-name="Trazado 9629" d="M6336-5615v17.667" transform="translate(-5781 6672)" fill="none" stroke="#ff8f00" stroke-width="1"/>
  </g>
</svg>
