<svg xmlns="http://www.w3.org/2000/svg" width="98.106" height="98" viewBox="0 0 98.106 98">
  <g id="datos" transform="translate(0 -0.5)">
    <path id="Trazado_9005" data-name="Trazado 9005" d="M38.2,138.725a1.436,1.436,0,1,0,2.031-2.031l-3.486-3.486,3.486-3.486a1.436,1.436,0,0,0-2.031-2.031l-4.5,4.5a1.436,1.436,0,0,0,0,2.031Zm0,0" transform="translate(-26.898 -102.48)" fill="#7ca7c9"/>
    <path id="Trazado_9006" data-name="Trazado 9006" d="M116.838,133.2l-3.486,3.486a1.436,1.436,0,1,0,2.031,2.031l4.5-4.5a1.435,1.435,0,0,0,0-2.03l-4.5-4.5a1.436,1.436,0,1,0-2.03,2.031Zm0,0" transform="translate(-91.292 -102.476)" fill="#7ca7c9"/>
    <path id="Trazado_9007" data-name="Trazado 9007" d="M77.328,139.041a1.435,1.435,0,0,0,1.861-.811l3.537-9a1.436,1.436,0,1,0-2.672-1.05l-3.537,9A1.436,1.436,0,0,0,77.328,139.041Zm0,0" transform="translate(-61.775 -102.475)" fill="#7ca7c9"/>
    <path id="Trazado_9008" data-name="Trazado 9008" d="M38.951,221.087h9.673a1.436,1.436,0,0,0,0-2.872H38.951a1.436,1.436,0,0,0,0,2.872Zm0,0" transform="translate(-30.327 -175.998)" fill="#7ca7c9"/>
    <path id="Trazado_9009" data-name="Trazado 9009" d="M133.953,218.215H116.947a1.436,1.436,0,0,0,0,2.872h17.006a1.436,1.436,0,1,0,0-2.872Zm0,0" transform="translate(-93.379 -175.998)" fill="#7ca7c9"/>
    <path id="Trazado_9010" data-name="Trazado 9010" d="M38.951,252.693h4.12a1.436,1.436,0,0,0,0-2.872h-4.12a1.436,1.436,0,0,0,0,2.872Zm0,0" transform="translate(-30.327 -201.547)" fill="#7ca7c9"/>
    <path id="Trazado_9011" data-name="Trazado 9011" d="M178.283,249.82a1.436,1.436,0,0,0,0,2.872h2.509a1.436,1.436,0,1,0,0-2.872Zm0,0" transform="translate(-142.962 -201.547)" fill="#7ca7c9"/>
    <path id="Trazado_9012" data-name="Trazado 9012" d="M100.508,251.256a1.436,1.436,0,0,0-1.436-1.436H86.748a1.436,1.436,0,0,0,0,2.872H99.073A1.436,1.436,0,0,0,100.508,251.256Zm0,0" transform="translate(-68.966 -201.548)" fill="#7ca7c9"/>
    <path id="Trazado_9013" data-name="Trazado 9013" d="M213.7,251.256a1.436,1.436,0,0,0,1.436,1.436h4.7a1.436,1.436,0,1,0,0-2.872h-4.7A1.436,1.436,0,0,0,213.7,251.256Zm0,0" transform="translate(-172.755 -201.548)" fill="#7ca7c9"/>
    <path id="Trazado_9014" data-name="Trazado 9014" d="M166.835,152.15h4.957a1.436,1.436,0,1,0,0-2.872h-4.957a1.436,1.436,0,1,0,0,2.872Zm0,0" transform="translate(-133.707 -120.27)" fill="#7ca7c9"/>
    <path id="Trazado_9015" data-name="Trazado 9015" d="M221.682,152.15H251.93a1.436,1.436,0,0,0,0-2.872H221.682a1.436,1.436,0,1,0,0,2.872Zm0,0" transform="translate(-178.044 -120.27)" fill="#7ca7c9"/>
    <path id="Trazado_9016" data-name="Trazado 9016" d="M303.872,182.246H291.619a1.436,1.436,0,0,0,0,2.872h12.253a1.436,1.436,0,0,0,0-2.872Zm0,0" transform="translate(-234.581 -146.921)" fill="#7ca7c9"/>
    <path id="Trazado_9017" data-name="Trazado 9017" d="M249.874,182.246h-4.212a1.436,1.436,0,0,0,0,2.872h4.212a1.436,1.436,0,0,0,0-2.872Zm0,0" transform="translate(-197.429 -146.921)" fill="#7ca7c9"/>
    <path id="Trazado_9018" data-name="Trazado 9018" d="M166.835,185.118h10.318a1.436,1.436,0,0,0,0-2.872H166.835a1.436,1.436,0,1,0,0,2.872Zm0,0" transform="translate(-133.707 -146.921)" fill="#7ca7c9"/>
    <path id="Trazado_9019" data-name="Trazado 9019" d="M110.355,281.16h-9.672a1.436,1.436,0,1,0,0,2.871h9.672a1.436,1.436,0,0,0,0-2.871Zm0,0" transform="translate(-80.23 -226.882)" fill="#7ca7c9"/>
    <path id="Trazado_9020" data-name="Trazado 9020" d="M46.382,281.16H38.951a1.436,1.436,0,1,0,0,2.871h7.431a1.436,1.436,0,0,0,0-2.871Zm0,0" transform="translate(-30.327 -226.882)" fill="#7ca7c9"/>
    <path id="Trazado_9021" data-name="Trazado 9021" d="M189.36,281.16H176.725a1.436,1.436,0,1,0,0,2.871H189.36a1.436,1.436,0,1,0,0-2.871Zm0,0" transform="translate(-141.702 -226.882)" fill="#7ca7c9"/>
    <path id="Trazado_9022" data-name="Trazado 9022" d="M302.692,242.668h-6.909a1.436,1.436,0,0,0,0,2.872h6.909a1.436,1.436,0,0,0,0-2.872Zm0,0" transform="translate(-237.947 -195.765)" fill="#7ca7c9"/>
    <path id="Trazado_9023" data-name="Trazado 9023" d="M394.412,245.54h9.754a1.436,1.436,0,1,0,0-2.872h-9.754a1.436,1.436,0,0,0,0,2.872Zm0,0" transform="translate(-317.677 -195.765)" fill="#7ca7c9"/>
    <path id="Trazado_9024" data-name="Trazado 9024" d="M359.527,242.668h-2.235a1.436,1.436,0,1,0,0,2.872h2.235a1.436,1.436,0,0,0,0-2.872Zm0,0" transform="translate(-287.669 -195.765)" fill="#7ca7c9"/>
    <path id="Trazado_9025" data-name="Trazado 9025" d="M295.783,327.2h6.909a1.436,1.436,0,1,0,0-2.871h-6.909a1.436,1.436,0,1,0,0,2.871Zm0,0" transform="translate(-237.947 -261.779)" fill="#7ca7c9"/>
    <path id="Trazado_9026" data-name="Trazado 9026" d="M394.412,327.2h9.754a1.436,1.436,0,1,0,0-2.871h-9.754a1.436,1.436,0,0,0,0,2.871Zm0,0" transform="translate(-317.677 -261.779)" fill="#7ca7c9"/>
    <path id="Trazado_9027" data-name="Trazado 9027" d="M357.3,327.2h2.235a1.436,1.436,0,1,0,0-2.871H357.3a1.436,1.436,0,0,0,0,2.871Zm0,0" transform="translate(-287.672 -261.779)" fill="#7ca7c9"/>
    <path id="Trazado_9028" data-name="Trazado 9028" d="M302.692,405.988h-6.909a1.436,1.436,0,1,0,0,2.871h6.909a1.436,1.436,0,0,0,0-2.871Zm0,0" transform="translate(-237.947 -327.791)" fill="#7ca7c9"/>
    <path id="Trazado_9029" data-name="Trazado 9029" d="M404.166,405.988h-9.754a1.436,1.436,0,0,0,0,2.871h9.754a1.436,1.436,0,1,0,0-2.871Zm0,0" transform="translate(-317.677 -327.791)" fill="#7ca7c9"/>
    <path id="Trazado_9030" data-name="Trazado 9030" d="M359.527,405.988h-2.235a1.436,1.436,0,1,0,0,2.871h2.235a1.436,1.436,0,1,0,0-2.871Zm0,0" transform="translate(-287.669 -327.791)" fill="#7ca7c9"/>
    <path id="Trazado_9031" data-name="Trazado 9031" d="M91.787.5H6.319A6.327,6.327,0,0,0,0,6.819V76.292a6.327,6.327,0,0,0,6.32,6.319h5.4a1.436,1.436,0,1,0,0-2.871h-5.4a3.451,3.451,0,0,1-3.448-3.448V70.845h52.31V73.32H54.043a2.827,2.827,0,0,0-2.824,2.824v3.6H20.452a1.436,1.436,0,1,0,0,2.871H34.257v5.15H29.922a5.251,5.251,0,0,0-5.245,5.245v3.1A2.4,2.4,0,0,0,27.07,98.5H70.926a2.4,2.4,0,0,0,2.393-2.393v-3.1a5.251,5.251,0,0,0-5.245-5.245H63.739V85.946H90.283a2.827,2.827,0,0,0,2.823-2.824v-.676A6.328,6.328,0,0,0,98,76.292l.109-69.474A6.325,6.325,0,0,0,91.787.5Zm-37.7,66.927V60.545H90.235v6.882Zm3.962-9.754V54.652h28.22v3.021ZM86.272,70.3V73.32H58.053V70.3ZM37.128,82.611h14.09v.511a2.827,2.827,0,0,0,2.824,2.823h6.825v1.815H37.128Zm30.946,8.022a2.375,2.375,0,0,1,2.373,2.373v2.623h-42.9V93.005a2.376,2.376,0,0,1,2.373-2.373Zm22.16-7.559H54.091V76.192H90.235Zm4.891-6.781a3.448,3.448,0,0,1-2.019,3.133V76.143a2.827,2.827,0,0,0-2.824-2.823H89.144V70.845h5.981Zm0-8.318H93.06c.029-.162.047-7.477.047-7.477a2.827,2.827,0,0,0-2.824-2.824H89.144V54.652h1.138a2.828,2.828,0,0,0,2.824-2.824V44.85a2.828,2.828,0,0,0-2.824-2.824h-8.11a1.436,1.436,0,0,0,0,2.872h8.062V51.78H54.091V44.9H73.239a1.436,1.436,0,0,0,0-2.872h-19.2a2.827,2.827,0,0,0-2.824,2.824v6.978a2.827,2.827,0,0,0,2.824,2.824h1.138v3.021H54.043A2.827,2.827,0,0,0,51.219,60.5s.018,7.315.047,7.477H2.871V20.031H95.125Zm0-50.815H2.977V6.819A3.451,3.451,0,0,1,6.425,3.372H91.678a3.451,3.451,0,0,1,3.448,3.448Zm0,0" transform="translate(0 0)" fill="#7ca7c9"/>
    <path id="Trazado_9032" data-name="Trazado 9032" d="M37.487,29.262A4.214,4.214,0,1,0,41.7,33.475,4.218,4.218,0,0,0,37.487,29.262Zm0,5.555a1.342,1.342,0,1,1,1.342-1.342A1.344,1.344,0,0,1,37.487,34.817Zm0,0" transform="translate(-26.898 -23.251)" fill="#7ca7c9"/>
    <path id="Trazado_9033" data-name="Trazado 9033" d="M93.472,29.262a4.214,4.214,0,1,0,4.213,4.213A4.219,4.219,0,0,0,93.472,29.262Zm0,5.555a1.342,1.342,0,1,1,1.342-1.342A1.343,1.343,0,0,1,93.472,34.817Zm0,0" transform="translate(-72.155 -23.251)" fill="#7ca7c9"/>
    <path id="Trazado_9034" data-name="Trazado 9034" d="M149.459,29.262a4.214,4.214,0,1,0,4.214,4.213A4.218,4.218,0,0,0,149.459,29.262Zm0,5.555a1.342,1.342,0,1,1,1.342-1.342A1.344,1.344,0,0,1,149.459,34.817Zm0,0" transform="translate(-117.415 -23.251)" fill="#7ca7c9"/>
  </g>
</svg>
