<svg xmlns="http://www.w3.org/2000/svg" width="152" height="139.333" viewBox="0 0 152 139.333">
  <g id="Grupo_9798" data-name="Grupo 9798" transform="translate(0 -21.333)">
    <path id="Trazado_8933" data-name="Trazado 8933" d="M136.1,214.709a4.752,4.752,0,1,0-6.72,6.72L146.6,238.656l-17.221,17.22a4.749,4.749,0,1,0,6.714,6.72l20.583-20.584a4.751,4.751,0,0,0,0-6.719Z" transform="translate(-89.989 -134.989)" fill="#aac6dc"/>
    <path id="Trazado_8934" data-name="Trazado 8934" d="M289.25,352h-28.5a4.75,4.75,0,0,0,0,9.5h28.5a4.75,4.75,0,0,0,0-9.5Z" transform="translate(-180 -232.5)" fill="#aac6dc"/>
    <path id="Trazado_8935" data-name="Trazado 8935" d="M134.583,21.333H17.417A17.431,17.431,0,0,0,0,38.75v104.5a17.431,17.431,0,0,0,17.417,17.417H134.583A17.431,17.431,0,0,0,152,143.25V38.75A17.431,17.431,0,0,0,134.583,21.333Zm-117.166,9.5H134.583A7.928,7.928,0,0,1,142.5,38.75V43.5H9.5V38.75A7.928,7.928,0,0,1,17.417,30.833ZM134.583,151.167H17.417A7.928,7.928,0,0,1,9.5,143.25V53h133v90.25A7.928,7.928,0,0,1,134.583,151.167Z" fill="#aac6dc"/>
  </g>
</svg>
