<svg xmlns="http://www.w3.org/2000/svg" width="35" height="32.083" viewBox="0 0 35 32.083">
  <g id="Grupo_9873" data-name="Grupo 9873" transform="translate(-81 -5205.167)">
    <g id="Grupo_9866" data-name="Grupo 9866" transform="translate(81 5205.167)">
      <path id="Trazado_9002" data-name="Trazado 9002" d="M129.852,213.638a1.094,1.094,0,0,0-1.547,1.547l3.967,3.967-3.965,3.965a1.094,1.094,0,1,0,1.546,1.547l4.74-4.74a1.094,1.094,0,0,0,0-1.547Z" transform="translate(-119.235 -200.194)" fill="#ff8f00"/>
      <path id="Trazado_9003" data-name="Trazado 9003" d="M263.656,352h-6.562a1.094,1.094,0,0,0,0,2.188h6.563a1.094,1.094,0,0,0,0-2.187Z" transform="translate(-238.5 -329.396)" fill="#ff8f00"/>
      <path id="Trazado_9004" data-name="Trazado 9004" d="M30.99,21.333H4.01A4.014,4.014,0,0,0,0,25.343V49.406a4.014,4.014,0,0,0,4.01,4.01H30.99A4.014,4.014,0,0,0,35,49.406V25.343A4.014,4.014,0,0,0,30.99,21.333ZM4.01,23.521H30.99a1.825,1.825,0,0,1,1.823,1.823v1.094H2.188V25.343A1.825,1.825,0,0,1,4.01,23.521ZM30.99,51.229H4.01a1.825,1.825,0,0,1-1.823-1.823V28.625H32.813V49.406A1.825,1.825,0,0,1,30.99,51.229Z" transform="translate(0 -21.333)" fill="#ff8f00"/>
    </g>
  </g>
</svg>
