<svg id="Grupo_10413" data-name="Grupo 10413" xmlns="http://www.w3.org/2000/svg" width="82.5" height="82.5" viewBox="0 0 82.5 82.5">
  <path id="Trazado_9671" data-name="Trazado 9671" d="M53.281,10.313H48.125V8.594a1.719,1.719,0,0,0-1.719-1.719H39.359a8.6,8.6,0,0,0-16.844,0H15.469A1.719,1.719,0,0,0,13.75,8.594v1.719H8.594A8.6,8.6,0,0,0,0,18.906v55A8.6,8.6,0,0,0,8.594,82.5H53.281a8.6,8.6,0,0,0,8.594-8.594v-55A8.6,8.6,0,0,0,53.281,10.313Zm-36.094,0h6.875a1.719,1.719,0,0,0,1.719-1.719,5.156,5.156,0,0,1,10.313,0,1.719,1.719,0,0,0,1.719,1.719h6.875v5.156a1.722,1.722,0,0,1-1.719,1.719H18.906a1.722,1.722,0,0,1-1.719-1.719Zm41.25,63.594a5.163,5.163,0,0,1-5.156,5.156H8.594a5.163,5.163,0,0,1-5.156-5.156v-55A5.163,5.163,0,0,1,8.594,13.75H13.75v1.719a5.163,5.163,0,0,0,5.156,5.156H42.969a5.163,5.163,0,0,0,5.156-5.156V13.75h5.156a5.163,5.163,0,0,1,5.156,5.156Z" fill="#002b45"/>
  <path id="Trazado_9672" data-name="Trazado 9672" d="M433.542,128a6.882,6.882,0,0,0-6.875,6.875v31.034a8.63,8.63,0,0,0,.908,3.843l4.431,8.862a1.719,1.719,0,0,0,3.073,0l4.431-8.862a8.629,8.629,0,0,0,.908-3.843V134.875A6.882,6.882,0,0,0,433.542,128Zm3.438,37.909a5.218,5.218,0,0,1-.543,2.307L433.542,174l-2.894-5.785a5.216,5.216,0,0,1-.543-2.307V134.875a3.438,3.438,0,1,1,6.875,0Z" transform="translate(-357.917 -107.375)" fill="#002b45"/>
  <path id="Trazado_9673" data-name="Trazado 9673" d="M103.531,192H65.719a1.719,1.719,0,1,0,0,3.437h37.812a1.719,1.719,0,1,0,0-3.437Z" transform="translate(-53.687 -161.063)" fill="#002b45"/>
  <path id="Trazado_9674" data-name="Trazado 9674" d="M103.531,256H65.719a1.719,1.719,0,1,0,0,3.437h37.812a1.719,1.719,0,1,0,0-3.437Z" transform="translate(-53.687 -214.75)" fill="#002b45"/>
  <path id="Trazado_9675" data-name="Trazado 9675" d="M103.531,320H65.719a1.719,1.719,0,1,0,0,3.437h37.812a1.719,1.719,0,1,0,0-3.437Z" transform="translate(-53.687 -268.437)" fill="#002b45"/>
  <path id="Trazado_9676" data-name="Trazado 9676" d="M103.531,384H65.719a1.719,1.719,0,1,0,0,3.437h37.812a1.719,1.719,0,1,0,0-3.437Z" transform="translate(-53.687 -322.125)" fill="#002b45"/>
</svg>
