<svg xmlns="http://www.w3.org/2000/svg" width="791" height="505" viewBox="0 0 791 505">
  <g id="Grupo_10843" data-name="Grupo 10843" transform="translate(-175 -924)">
    <rect id="Rectángulo_2821" data-name="Rectángulo 2821" width="232" height="46" rx="23" transform="translate(460 924)" fill="#014c7f"/>
    <path id="Trazado_10531" data-name="Trazado 10531" d="M62.259,17.176a6.9,6.9,0,0,1-3.335-.8,5.766,5.766,0,0,1-2.316-2.29,6.886,6.886,0,0,1-.844-3.445,6.879,6.879,0,0,1,.844-3.45,5.744,5.744,0,0,1,2.316-2.281,7.418,7.418,0,0,1,6.667,0A5.752,5.752,0,0,1,67.9,7.2a6.879,6.879,0,0,1,.844,3.45,6.886,6.886,0,0,1-.844,3.445,5.766,5.766,0,0,1-2.316,2.29A6.885,6.885,0,0,1,62.259,17.176Zm-2.777-3.524a4.031,4.031,0,0,0,5.555,0,4.1,4.1,0,0,0,1.09-3,4.075,4.075,0,0,0-1.09-2.988,4.036,4.036,0,0,0-5.555,0,4.075,4.075,0,0,0-1.09,2.988A4.118,4.118,0,0,0,59.482,13.651ZM76.454,4.3A3.822,3.822,0,0,1,79.38,5.482,4.112,4.112,0,0,1,80.488,8.4a4.011,4.011,0,0,1-1.1,2.9,3.891,3.891,0,0,1-2.936,1.138H73.808V17H71.171V4.3Zm-.439,5.941a1.938,1.938,0,0,0,1.45-.5,1.888,1.888,0,0,0,.483-1.375,1.873,1.873,0,0,0-.488-1.358,1.92,1.92,0,0,0-1.446-.505H73.808v3.735ZM90.068,6.62H85.357V9.5h4.175V11.8H85.357v2.874h4.711V17H82.7V4.3h7.365ZM99.49,17l-3.3-5.59H95.42V17H92.784V4.3h4.605a5.327,5.327,0,0,1,1.846.294,3.191,3.191,0,0,1,1.279.817,3.5,3.5,0,0,1,.721,1.2,4.388,4.388,0,0,1,.242,1.485,3.1,3.1,0,0,1-.694,2.087,3.5,3.5,0,0,1-2,1.094L102.61,17ZM95.42,6.488V9.521h1.556q1.978,0,1.978-1.512a1.377,1.377,0,0,0-.483-1.116,2.3,2.3,0,0,0-1.494-.4ZM113.148,17l-.923-2.619H106.89L105.967,17h-2.7l4.676-12.7h3.226L115.846,17Zm-5.484-4.825h3.788l-1.89-5.388ZM117.753,17V4.3h4.6a7.166,7.166,0,0,1,2.65.457,4.881,4.881,0,0,1,1.9,1.3,5.64,5.64,0,0,1,1.125,2,8.255,8.255,0,0,1,.382,2.593,8.286,8.286,0,0,1-.382,2.6,5.64,5.64,0,0,1-1.125,2,4.881,4.881,0,0,1-1.9,1.3,7.166,7.166,0,0,1-2.65.457Zm2.637-2.329h1.828a3.12,3.12,0,0,0,2.566-1.033,4.629,4.629,0,0,0,.844-2.993,4.629,4.629,0,0,0-.844-2.993,3.12,3.12,0,0,0-2.566-1.033H120.39Zm16.11,2.5a6.9,6.9,0,0,1-3.335-.8,5.766,5.766,0,0,1-2.316-2.29,6.886,6.886,0,0,1-.844-3.445,6.879,6.879,0,0,1,.844-3.45,5.744,5.744,0,0,1,2.316-2.281,7.418,7.418,0,0,1,6.667,0A5.752,5.752,0,0,1,142.143,7.2a6.879,6.879,0,0,1,.844,3.45,6.886,6.886,0,0,1-.844,3.445,5.766,5.766,0,0,1-2.316,2.29A6.885,6.885,0,0,1,136.5,17.176Zm-2.777-3.524a4.031,4.031,0,0,0,5.555,0,4.1,4.1,0,0,0,1.09-3,4.075,4.075,0,0,0-1.09-2.988,4.036,4.036,0,0,0-5.555,0,4.075,4.075,0,0,0-1.09,2.988A4.118,4.118,0,0,0,133.723,13.651ZM152.119,17l-3.3-5.59h-.765V17h-2.637V4.3h4.605a5.327,5.327,0,0,1,1.846.294,3.191,3.191,0,0,1,1.279.817,3.5,3.5,0,0,1,.721,1.2A4.388,4.388,0,0,1,154.1,8.1a3.1,3.1,0,0,1-.694,2.087,3.5,3.5,0,0,1-2,1.094L155.239,17ZM148.049,6.488V9.521H149.6q1.978,0,1.978-1.512a1.377,1.377,0,0,0-.483-1.116,2.3,2.3,0,0,0-1.494-.4Zm16.488.132h-4.711V9.5H164V11.8h-4.175v2.874h4.711V17h-7.365V4.3h7.365Zm6.935,10.556a6.136,6.136,0,0,1-3.524-.971,3.9,3.9,0,0,1-1.714-2.72l2.725-.624a2.314,2.314,0,0,0,.839,1.6,2.785,2.785,0,0,0,1.78.558,2.3,2.3,0,0,0,1.389-.391,1.319,1.319,0,0,0,.527-1.156,1.233,1.233,0,0,0-.448-.94,2.929,2.929,0,0,0-.892-.576q-.444-.171-1.428-.47-.132-.044-.193-.062-.5-.158-.809-.264t-.76-.294a5.063,5.063,0,0,1-.738-.369,5.405,5.405,0,0,1-.611-.457,2.394,2.394,0,0,1-.51-.584,3.1,3.1,0,0,1-.308-.729,3.219,3.219,0,0,1-.123-.905,3.4,3.4,0,0,1,.593-2,3.633,3.633,0,0,1,1.6-1.274,5.822,5.822,0,0,1,2.29-.426,7.233,7.233,0,0,1,1.657.185,5.8,5.8,0,0,1,1.481.567,3.628,3.628,0,0,1,1.182,1.046,3.933,3.933,0,0,1,.672,1.542L173.6,8.1a2.065,2.065,0,0,0-2.285-1.819,2.5,2.5,0,0,0-1.415.369,1.251,1.251,0,0,0-.554,1.116q0,.694.923,1.125a13.752,13.752,0,0,0,1.767.606q.519.158.844.264t.817.308a5.68,5.68,0,0,1,.8.391,5.918,5.918,0,0,1,.668.488,2.627,2.627,0,0,1,.567.633,3.422,3.422,0,0,1,.347.787,3.288,3.288,0,0,1,.141.98,3.85,3.85,0,0,1-.255,1.433,3.118,3.118,0,0,1-.7,1.081,4.058,4.058,0,0,1-1.05.743,5.1,5.1,0,0,1-1.292.439A7.431,7.431,0,0,1,171.472,17.176Z" transform="translate(460 935)" fill="#fff"/>
    <rect id="Rectángulo_2822" data-name="Rectángulo 2822" width="160" height="46" rx="23" transform="translate(313 1010)" fill="#015e7a"/>
    <path id="Trazado_10530" data-name="Trazado 10530" d="M36.77,16l-.945-2.633H30.848L29.91,16H28.449L32.5,5h1.672L38.23,16Zm-5.477-3.867h4.094L33.34,6.406ZM46.379,16l-2.828-4.961H41.824V16h-1.4V5h3.648a3.285,3.285,0,0,1,2.465.871,3.075,3.075,0,0,1,.848,2.238,2.753,2.753,0,0,1-2.437,2.875L48.012,16ZM41.824,6.227V9.938h2.063a2.3,2.3,0,0,0,1.609-.5,1.741,1.741,0,0,0,.539-1.348,1.772,1.772,0,0,0-.543-1.359,2.271,2.271,0,0,0-1.605-.508ZM50.387,16V5h1.4V16Zm10.6-11V6.273h-2.82V16H56.777V6.273H53.949V5Zm13.8,11H73.426l-.734-9.078L69.176,16H68.34L64.848,6.953,64.105,16H62.738l.836-11h1.844l3.336,8.578L72.1,5h1.859Zm8.18-14.164-1.75,2.023h-.93l1.961-2.547Zm.758,4.438H79.254v3.6h3.938v1.258H79.254v3.594h4.469V16h-5.9V5h5.9ZM92.152,5V6.273h-2.82V16H87.941V6.273H85.113V5Zm2.164,11V5h1.4V16Zm9.563.148a5.844,5.844,0,0,1-2.164-.395,5.226,5.226,0,0,1-1.738-1.109,4.949,4.949,0,0,1-1.156-1.785,6.456,6.456,0,0,1-.418-2.367,6.35,6.35,0,0,1,.422-2.355,4.939,4.939,0,0,1,2.891-2.895,5.9,5.9,0,0,1,2.164-.391,5.589,5.589,0,0,1,2.926.773,4.819,4.819,0,0,1,1.934,2.148l-1.289.531a3.622,3.622,0,0,0-1.441-1.566,4.137,4.137,0,0,0-2.129-.551,4.374,4.374,0,0,0-1.6.289,3.838,3.838,0,0,0-1.3.828,3.739,3.739,0,0,0-.871,1.359,5.044,5.044,0,0,0-.316,1.828,5.075,5.075,0,0,0,.316,1.832,3.733,3.733,0,0,0,.871,1.363,3.888,3.888,0,0,0,1.3.832,4.323,4.323,0,0,0,1.6.293,4.137,4.137,0,0,0,2.129-.551,3.631,3.631,0,0,0,1.441-1.559l1.289.523a4.794,4.794,0,0,1-1.93,2.152A5.6,5.6,0,0,1,103.879,16.148Zm11.969,0a5.844,5.844,0,0,1-2.164-.395,5.226,5.226,0,0,1-1.738-1.109,4.949,4.949,0,0,1-1.156-1.785,6.456,6.456,0,0,1-.418-2.367,6.35,6.35,0,0,1,.422-2.355,4.939,4.939,0,0,1,2.891-2.895,5.9,5.9,0,0,1,2.164-.391A5.8,5.8,0,0,1,118,5.246a5.183,5.183,0,0,1,1.734,1.109,5.024,5.024,0,0,1,1.156,1.781,6.35,6.35,0,0,1,.422,2.355,6.412,6.412,0,0,1-.422,2.363,5.011,5.011,0,0,1-1.156,1.789A5.183,5.183,0,0,1,118,15.754,5.8,5.8,0,0,1,115.848,16.148Zm0-1.32a3.931,3.931,0,0,0,2.91-1.16,4.308,4.308,0,0,0,1.152-3.176,5.044,5.044,0,0,0-.316-1.828,3.766,3.766,0,0,0-.867-1.359,3.8,3.8,0,0,0-1.289-.828,4.322,4.322,0,0,0-1.59-.289,4.374,4.374,0,0,0-1.6.289,3.838,3.838,0,0,0-1.3.828,3.739,3.739,0,0,0-.871,1.359,5.044,5.044,0,0,0-.316,1.828,5.13,5.13,0,0,0,.316,1.844,3.728,3.728,0,0,0,.871,1.367,3.888,3.888,0,0,0,1.3.832A4.323,4.323,0,0,0,115.848,14.828Zm11.367,1.32a5.021,5.021,0,0,1-2.871-.777,3.291,3.291,0,0,1-1.434-2.137l1.414-.336a2.319,2.319,0,0,0,.992,1.5,3.355,3.355,0,0,0,1.945.547,4.058,4.058,0,0,0,.727-.062,2.779,2.779,0,0,0,.66-.207,2.021,2.021,0,0,0,.543-.355,1.484,1.484,0,0,0,.359-.539,1.845,1.845,0,0,0,.125-.734,1.588,1.588,0,0,0-.1-.52,1.649,1.649,0,0,0-.219-.41,1.473,1.473,0,0,0-.371-.332,4.972,4.972,0,0,0-.445-.266,4.026,4.026,0,0,0-.551-.223q-.348-.117-.582-.184l-.633-.176q-.078-.023-.117-.031-.453-.117-.738-.2t-.684-.238a4.5,4.5,0,0,1-.652-.3,4.416,4.416,0,0,1-.535-.375,1.921,1.921,0,0,1-.441-.488,2.577,2.577,0,0,1-.266-.621,2.764,2.764,0,0,1-.105-.781,2.79,2.79,0,0,1,.512-1.687,2.994,2.994,0,0,1,1.32-1.031,4.793,4.793,0,0,1,1.816-.328,4.973,4.973,0,0,1,2.645.676,3.011,3.011,0,0,1,1.4,2l-1.359.344a2.069,2.069,0,0,0-.914-1.352,3.132,3.132,0,0,0-1.719-.453,3.4,3.4,0,0,0-.844.1,2.507,2.507,0,0,0-.73.313,1.517,1.517,0,0,0-.527.574,1.746,1.746,0,0,0-.2.84,1.35,1.35,0,0,0,.078.465,1.427,1.427,0,0,0,.2.371,1.39,1.39,0,0,0,.336.3,3.413,3.413,0,0,0,.41.242,4.157,4.157,0,0,0,.512.2q.32.105.547.172t.6.16a12.727,12.727,0,0,1,2.117.7,2.679,2.679,0,0,1,1.633,2.023,3.489,3.489,0,0,1,.031.477,3.074,3.074,0,0,1-.316,1.422,2.565,2.565,0,0,1-.867.984,4.146,4.146,0,0,1-1.234.551A5.661,5.661,0,0,1,127.215,16.148Z" transform="translate(313 1021)" fill="#fff"/>
    <rect id="Rectángulo_2822-2" data-name="Rectángulo 2822" width="139" height="46" rx="23" transform="translate(175 1096)" fill="#015e7a"/>
    <rect id="Rectángulo_2930" data-name="Rectángulo 2930" width="139" height="46" rx="23" transform="translate(324 1096)" fill="#015e7a"/>
    <rect id="Rectángulo_2931" data-name="Rectángulo 2931" width="139" height="46" rx="23" transform="translate(473 1096)" fill="#015e7a"/>
    <path id="Trazado_10502" data-name="Trazado 10502" d="M48.863,10.258a2.951,2.951,0,0,1,1.59.957,2.721,2.721,0,0,1,.582,1.8,2.88,2.88,0,0,1-.848,2.156A3.1,3.1,0,0,1,47.926,16H43.645V5H46.98a3.378,3.378,0,0,1,2.355.809,2.706,2.706,0,0,1,.895,2.105,2.782,2.782,0,0,1-.355,1.414A2.26,2.26,0,0,1,48.863,10.258ZM48.918,8a1.678,1.678,0,0,0-.527-1.273,1.976,1.976,0,0,0-1.418-.5H45V9.82H47.23a1.557,1.557,0,0,0,1.215-.527A1.867,1.867,0,0,0,48.918,8Zm-1.227,6.758a1.942,1.942,0,0,0,1.449-.543,1.834,1.834,0,0,0,.535-1.34,1.806,1.806,0,0,0-.559-1.363,2.116,2.116,0,0,0-1.527-.535H45v3.781Zm7.922-7.766,1.961-2.547.719.523-1.75,2.023Zm-.555,9.156a2.613,2.613,0,0,1-1.684-.527,1.894,1.894,0,0,1-.66-1.574,2.237,2.237,0,0,1,.211-1,1.77,1.77,0,0,1,.625-.7,3.749,3.749,0,0,1,.9-.434,8.341,8.341,0,0,1,1.168-.277l1.242-.2q.68-.125.68-.711a1.342,1.342,0,0,0-.48-1.145,1.958,1.958,0,0,0-1.215-.363,1.994,1.994,0,0,0-1.2.352,1.471,1.471,0,0,0-.57,1.078l-1.219-.258a2.346,2.346,0,0,1,.961-1.645,3.59,3.59,0,0,1,2.094-.551,4.247,4.247,0,0,1,1.113.137,3.025,3.025,0,0,1,.93.43,1.927,1.927,0,0,1,.664.828,3.081,3.081,0,0,1,.238,1.262v3.172a1.3,1.3,0,0,0,.176.8.759.759,0,0,0,.605.207h.125V16H59.09a1.281,1.281,0,0,1-1.453-1.039h-.062A2.935,2.935,0,0,1,55.059,16.148Zm.313-1.094a2.049,2.049,0,0,0,1.648-.742,3.056,3.056,0,0,0,.625-2.031l-2.031.391a2.734,2.734,0,0,0-1.191.426.99.99,0,0,0-.387.84.979.979,0,0,0,.371.844A1.586,1.586,0,0,0,55.371,15.055ZM64.1,16.148a3.641,3.641,0,0,1-2.07-.555,2.294,2.294,0,0,1-1.008-1.578l1.18-.336a1.645,1.645,0,0,0,.629,1.066,2.04,2.04,0,0,0,1.262.379,2.518,2.518,0,0,0,.738-.1,1.184,1.184,0,0,0,.566-.379,1.057,1.057,0,0,0,.164-1.016,1.357,1.357,0,0,0-.125-.254.774.774,0,0,0-.219-.211A2.885,2.885,0,0,0,64.949,13a2.726,2.726,0,0,0-.348-.145q-.23-.082-.371-.125t-.43-.125q-.289-.082-.445-.129a8.33,8.33,0,0,1-.8-.281,3.5,3.5,0,0,1-.648-.371,1.493,1.493,0,0,1-.5-.605,2.049,2.049,0,0,1-.168-.859,1.986,1.986,0,0,1,.375-1.227,2.11,2.11,0,0,1,.973-.723,3.888,3.888,0,0,1,1.363-.223,3.337,3.337,0,0,1,1.871.5,2.134,2.134,0,0,1,.934,1.5l-1.109.281a1.471,1.471,0,0,0-.586-.973,1.865,1.865,0,0,0-1.1-.324,1.9,1.9,0,0,0-1.031.27.906.906,0,0,0-.43.824.82.82,0,0,0,.113.426,1.352,1.352,0,0,0,.23.3,1.417,1.417,0,0,0,.422.23q.3.121.453.164t.563.145q.078.023.117.031.453.117.738.207a4.538,4.538,0,0,1,.664.281,2.208,2.208,0,0,1,.6.418,1.936,1.936,0,0,1,.375.594,2.1,2.1,0,0,1,.156.828,2.237,2.237,0,0,1-.23,1.035,1.8,1.8,0,0,1-.629.707,3.042,3.042,0,0,1-.895.387A4.262,4.262,0,0,1,64.1,16.148Zm5.641-9.633a.92.92,0,0,1-.914-.914.867.867,0,0,1,.27-.641.886.886,0,0,1,.645-.266.877.877,0,0,1,.637.266.867.867,0,0,1,.27.641.88.88,0,0,1-.27.645A.871.871,0,0,1,69.738,6.516ZM69.051,16V8.32H70.41V16Zm7.3.141a3.7,3.7,0,0,1-2.75-1.1,3.929,3.929,0,0,1-1.086-2.883,3.937,3.937,0,0,1,1.082-2.883,4,4,0,0,1,4.977-.43,3.391,3.391,0,0,1,1.293,1.867l-1.266.2a2.337,2.337,0,0,0-.867-1.2A2.361,2.361,0,0,0,76.34,9.3a2.27,2.27,0,0,0-1.777.789,3.006,3.006,0,0,0-.7,2.07,2.991,2.991,0,0,0,.7,2.066,2.275,2.275,0,0,0,1.777.785,2.361,2.361,0,0,0,1.391-.422,2.337,2.337,0,0,0,.867-1.2l1.266.211a3.4,3.4,0,0,1-1.3,1.863A3.72,3.72,0,0,1,76.348,16.141Zm8.742.008a4.048,4.048,0,0,1-1.969-.477,3.47,3.47,0,0,1-1.387-1.395,4.283,4.283,0,0,1-.512-2.121,3.912,3.912,0,0,1,1.09-2.895,4.089,4.089,0,0,1,5.559,0,3.92,3.92,0,0,1,1.086,2.895,3.923,3.923,0,0,1-1.09,2.9A3.762,3.762,0,0,1,85.09,16.148Zm-.008-1.125a2.359,2.359,0,0,0,1.816-.789,2.957,2.957,0,0,0,.723-2.078,2.945,2.945,0,0,0-.723-2.07A2.359,2.359,0,0,0,85.082,9.3a2.326,2.326,0,0,0-1.8.789,2.965,2.965,0,0,0-.715,2.07,2.976,2.976,0,0,0,.715,2.078A2.326,2.326,0,0,0,85.082,15.023ZM93.5,16.148a3.641,3.641,0,0,1-2.07-.555,2.294,2.294,0,0,1-1.008-1.578l1.18-.336a1.645,1.645,0,0,0,.629,1.066,2.04,2.04,0,0,0,1.262.379,2.518,2.518,0,0,0,.738-.1,1.184,1.184,0,0,0,.566-.379,1.057,1.057,0,0,0,.164-1.016,1.357,1.357,0,0,0-.125-.254.774.774,0,0,0-.219-.211A2.885,2.885,0,0,0,94.355,13a2.726,2.726,0,0,0-.348-.145q-.23-.082-.371-.125t-.43-.125q-.289-.082-.445-.129a8.331,8.331,0,0,1-.8-.281,3.5,3.5,0,0,1-.648-.371,1.493,1.493,0,0,1-.5-.605,2.049,2.049,0,0,1-.168-.859,1.986,1.986,0,0,1,.375-1.227,2.11,2.11,0,0,1,.973-.723,3.888,3.888,0,0,1,1.363-.223,3.337,3.337,0,0,1,1.871.5,2.134,2.134,0,0,1,.934,1.5l-1.109.281a1.471,1.471,0,0,0-.586-.973,1.865,1.865,0,0,0-1.1-.324,1.9,1.9,0,0,0-1.031.27.906.906,0,0,0-.43.824.82.82,0,0,0,.113.426,1.352,1.352,0,0,0,.23.3,1.417,1.417,0,0,0,.422.23q.3.121.453.164t.563.145q.078.023.117.031.453.117.738.207a4.538,4.538,0,0,1,.664.281,2.208,2.208,0,0,1,.6.418,1.936,1.936,0,0,1,.375.594,2.1,2.1,0,0,1,.156.828,2.237,2.237,0,0,1-.23,1.035,1.8,1.8,0,0,1-.629.707,3.042,3.042,0,0,1-.895.387A4.262,4.262,0,0,1,93.5,16.148Z" transform="translate(175 1107)" fill="#fff"/>
    <path id="Trazado_10508" data-name="Trazado 10508" d="M20.582,16V5h1.4V16Zm8.125-7.828a2.671,2.671,0,0,1,1.934.7,2.594,2.594,0,0,1,.723,1.961V16H30.012V11.133a1.816,1.816,0,0,0-.469-1.375,1.676,1.676,0,0,0-1.2-.445,1.858,1.858,0,0,0-1.367.527,2.14,2.14,0,0,0-.539,1.566V16H25.082V8.32h1.352V9.3A2.565,2.565,0,0,1,28.707,8.172Zm8.453,7.969a3.7,3.7,0,0,1-2.75-1.1,3.929,3.929,0,0,1-1.086-2.883,3.937,3.937,0,0,1,1.082-2.883,4,4,0,0,1,4.977-.43,3.391,3.391,0,0,1,1.293,1.867l-1.266.2a2.337,2.337,0,0,0-.867-1.2A2.361,2.361,0,0,0,37.152,9.3a2.27,2.27,0,0,0-1.777.789,3.006,3.006,0,0,0-.7,2.07,2.991,2.991,0,0,0,.7,2.066,2.275,2.275,0,0,0,1.777.785,2.361,2.361,0,0,0,1.391-.422,2.337,2.337,0,0,0,.867-1.2l1.266.211a3.4,3.4,0,0,1-1.3,1.863A3.72,3.72,0,0,1,37.16,16.141Zm6.828-6.469a2.322,2.322,0,0,1,.953-1.031,2.87,2.87,0,0,1,1.477-.406V9.508a2.53,2.53,0,0,0-1.785.57,2.382,2.382,0,0,0-.613,1.82V16H42.668V8.32h1.32Zm10.641,2.336-.016.367h-6a2.714,2.714,0,0,0,.734,1.965,2.411,2.411,0,0,0,1.75.684,2.3,2.3,0,0,0,1.273-.367,2.383,2.383,0,0,0,.875-1.016l1.219.258a3.464,3.464,0,0,1-1.312,1.648,3.581,3.581,0,0,1-2.039.6,3.71,3.71,0,0,1-2.766-1.07,3.982,3.982,0,0,1-1.055-2.922,3.962,3.962,0,0,1,1.059-2.914,3.664,3.664,0,0,1,2.723-1.07,3.467,3.467,0,0,1,2.582.984A3.889,3.889,0,0,1,54.629,12.008Zm-3.555-2.8a2.4,2.4,0,0,0-1.6.543,2.488,2.488,0,0,0-.809,1.582h4.6A2.282,2.282,0,0,0,52.6,9.754,2.17,2.17,0,0,0,51.074,9.211ZM64.6,8.172a2.476,2.476,0,0,1,1.789.652,2.42,2.42,0,0,1,.68,1.832V16H65.715V11.008a1.735,1.735,0,0,0-.422-1.266,1.436,1.436,0,0,0-1.07-.43,1.517,1.517,0,0,0-1.172.484,2.083,2.083,0,0,0-.445,1.453V16H61.23V11.063A1.815,1.815,0,0,0,60.8,9.754a1.448,1.448,0,0,0-1.09-.441,1.5,1.5,0,0,0-1.168.5A2.155,2.155,0,0,0,58.1,11.3V16H56.746V8.32H58.1v.992a2.333,2.333,0,0,1,.879-.844,2.506,2.506,0,0,1,1.223-.3,2.609,2.609,0,0,1,1.313.324,2.018,2.018,0,0,1,.852.934,2.39,2.39,0,0,1,.922-.934A2.637,2.637,0,0,1,64.6,8.172Zm11.8,3.836-.016.367h-6a2.714,2.714,0,0,0,.734,1.965,2.411,2.411,0,0,0,1.75.684,2.3,2.3,0,0,0,1.273-.367,2.383,2.383,0,0,0,.875-1.016l1.219.258a3.464,3.464,0,0,1-1.312,1.648,3.581,3.581,0,0,1-2.039.6,3.71,3.71,0,0,1-2.766-1.07,3.982,3.982,0,0,1-1.055-2.922,3.962,3.962,0,0,1,1.059-2.914,3.664,3.664,0,0,1,2.723-1.07,3.467,3.467,0,0,1,2.582.984A3.889,3.889,0,0,1,76.4,12.008Zm-3.555-2.8a2.4,2.4,0,0,0-1.6.543,2.488,2.488,0,0,0-.809,1.582h4.6a2.282,2.282,0,0,0-.672-1.582A2.17,2.17,0,0,0,72.848,9.211Zm9.3-1.039a2.671,2.671,0,0,1,1.934.7,2.594,2.594,0,0,1,.723,1.961V16H83.449V11.133a1.816,1.816,0,0,0-.469-1.375,1.676,1.676,0,0,0-1.2-.445,1.858,1.858,0,0,0-1.367.527,2.14,2.14,0,0,0-.539,1.566V16H78.52V8.32h1.352V9.3A2.565,2.565,0,0,1,82.145,8.172ZM89.863,16a2.019,2.019,0,0,1-1.5-.551,2.084,2.084,0,0,1-.547-1.535V9.4h-1.57V8.32h.578a1.11,1.11,0,0,0,.848-.27,1.326,1.326,0,0,0,.246-.9V5.758h1.258V8.32h1.766V9.4H89.176v4.375a1.164,1.164,0,0,0,.293.848,1.026,1.026,0,0,0,.77.3h.7V16Zm4.711.148a2.613,2.613,0,0,1-1.684-.527,1.894,1.894,0,0,1-.66-1.574,2.237,2.237,0,0,1,.211-1,1.77,1.77,0,0,1,.625-.7,3.749,3.749,0,0,1,.9-.434,8.341,8.341,0,0,1,1.168-.277l1.242-.2q.68-.125.68-.711a1.342,1.342,0,0,0-.48-1.145,1.958,1.958,0,0,0-1.215-.363,1.994,1.994,0,0,0-1.2.352,1.471,1.471,0,0,0-.57,1.078l-1.219-.258a2.346,2.346,0,0,1,.961-1.645,3.59,3.59,0,0,1,2.094-.551,4.247,4.247,0,0,1,1.113.137,3.025,3.025,0,0,1,.93.43,1.927,1.927,0,0,1,.664.828,3.081,3.081,0,0,1,.238,1.262v3.172a1.3,1.3,0,0,0,.176.8.759.759,0,0,0,.605.207h.125V16h-.672a1.281,1.281,0,0,1-1.453-1.039H97.09A2.935,2.935,0,0,1,94.574,16.148Zm.313-1.094a2.049,2.049,0,0,0,1.648-.742,3.056,3.056,0,0,0,.625-2.031l-2.031.391a2.734,2.734,0,0,0-1.191.426.99.99,0,0,0-.387.84.979.979,0,0,0,.371.844A1.586,1.586,0,0,0,94.887,15.055Zm6.3.945V4h1.367V16Zm10.836-3.992-.016.367h-6a2.714,2.714,0,0,0,.734,1.965,2.411,2.411,0,0,0,1.75.684,2.3,2.3,0,0,0,1.273-.367,2.383,2.383,0,0,0,.875-1.016l1.219.258a3.464,3.464,0,0,1-1.312,1.648,3.581,3.581,0,0,1-2.039.6,3.71,3.71,0,0,1-2.766-1.07,3.982,3.982,0,0,1-1.055-2.922,3.962,3.962,0,0,1,1.059-2.914,3.664,3.664,0,0,1,2.723-1.07,3.467,3.467,0,0,1,2.582.984A3.889,3.889,0,0,1,112.02,12.008Zm-3.555-2.8a2.4,2.4,0,0,0-1.6.543,2.488,2.488,0,0,0-.809,1.582h4.6a2.282,2.282,0,0,0-.672-1.582A2.17,2.17,0,0,0,108.465,9.211Zm8.1,6.938a3.641,3.641,0,0,1-2.07-.555,2.294,2.294,0,0,1-1.008-1.578l1.18-.336a1.645,1.645,0,0,0,.629,1.066,2.04,2.04,0,0,0,1.262.379,2.518,2.518,0,0,0,.738-.1,1.184,1.184,0,0,0,.566-.379,1.057,1.057,0,0,0,.164-1.016,1.357,1.357,0,0,0-.125-.254.774.774,0,0,0-.219-.211,2.885,2.885,0,0,0-.266-.164,2.726,2.726,0,0,0-.348-.145q-.23-.082-.371-.125t-.43-.125q-.289-.082-.445-.129a8.331,8.331,0,0,1-.8-.281,3.5,3.5,0,0,1-.648-.371,1.493,1.493,0,0,1-.5-.605,2.049,2.049,0,0,1-.168-.859,1.986,1.986,0,0,1,.375-1.227,2.11,2.11,0,0,1,.973-.723,3.888,3.888,0,0,1,1.363-.223,3.337,3.337,0,0,1,1.871.5,2.134,2.134,0,0,1,.934,1.5l-1.109.281a1.471,1.471,0,0,0-.586-.973,1.865,1.865,0,0,0-1.1-.324,1.9,1.9,0,0,0-1.031.27.906.906,0,0,0-.43.824.82.82,0,0,0,.113.426,1.352,1.352,0,0,0,.23.3,1.417,1.417,0,0,0,.422.23q.3.121.453.164t.563.145q.078.023.117.031.453.117.738.207a4.538,4.538,0,0,1,.664.281,2.208,2.208,0,0,1,.6.418,1.936,1.936,0,0,1,.375.594,2.1,2.1,0,0,1,.156.828,2.237,2.237,0,0,1-.23,1.035,1.8,1.8,0,0,1-.629.707,3.042,3.042,0,0,1-.895.387A4.262,4.262,0,0,1,116.566,16.148Z" transform="translate(324 1107)" fill="#fff"/>
    <path id="Trazado_10512" data-name="Trazado 10512" d="M30.188,16.148a5.844,5.844,0,0,1-2.164-.395,5.226,5.226,0,0,1-1.738-1.109,4.949,4.949,0,0,1-1.156-1.785,6.456,6.456,0,0,1-.418-2.367,6.35,6.35,0,0,1,.422-2.355,4.939,4.939,0,0,1,2.891-2.895,5.9,5.9,0,0,1,2.164-.391,5.589,5.589,0,0,1,2.926.773,4.819,4.819,0,0,1,1.934,2.148L33.758,8.3a3.622,3.622,0,0,0-1.441-1.566,4.137,4.137,0,0,0-2.129-.551,4.374,4.374,0,0,0-1.6.289,3.838,3.838,0,0,0-1.3.828,3.739,3.739,0,0,0-.871,1.359,5.044,5.044,0,0,0-.316,1.828,5.075,5.075,0,0,0,.316,1.832,3.733,3.733,0,0,0,.871,1.363,3.888,3.888,0,0,0,1.3.832,4.323,4.323,0,0,0,1.6.293,4.137,4.137,0,0,0,2.129-.551A3.631,3.631,0,0,0,33.758,12.7l1.289.523a4.794,4.794,0,0,1-1.93,2.152A5.6,5.6,0,0,1,30.188,16.148Zm10.141,0a4.048,4.048,0,0,1-1.969-.477,3.47,3.47,0,0,1-1.387-1.395,4.283,4.283,0,0,1-.512-2.121,3.912,3.912,0,0,1,1.09-2.895,4.089,4.089,0,0,1,5.559,0A3.92,3.92,0,0,1,44.2,12.156a3.923,3.923,0,0,1-1.09,2.9A3.762,3.762,0,0,1,40.328,16.148Zm-.008-1.125a2.359,2.359,0,0,0,1.816-.789,2.957,2.957,0,0,0,.723-2.078,2.945,2.945,0,0,0-.723-2.07A2.359,2.359,0,0,0,40.32,9.3a2.326,2.326,0,0,0-1.8.789,2.965,2.965,0,0,0-.715,2.07,2.976,2.976,0,0,0,.715,2.078A2.326,2.326,0,0,0,40.32,15.023ZM54.164,8.172a2.476,2.476,0,0,1,1.789.652,2.42,2.42,0,0,1,.68,1.832V16H55.281V11.008a1.735,1.735,0,0,0-.422-1.266,1.436,1.436,0,0,0-1.07-.43,1.517,1.517,0,0,0-1.172.484,2.083,2.083,0,0,0-.445,1.453V16H50.8V11.063a1.815,1.815,0,0,0-.426-1.309,1.448,1.448,0,0,0-1.09-.441,1.5,1.5,0,0,0-1.168.5,2.155,2.155,0,0,0-.449,1.488V16H46.313V8.32h1.352v.992a2.333,2.333,0,0,1,.879-.844,2.506,2.506,0,0,1,1.223-.3,2.609,2.609,0,0,1,1.313.324,2.018,2.018,0,0,1,.852.934,2.39,2.39,0,0,1,.922-.934A2.637,2.637,0,0,1,54.164,8.172Zm9.156,0a3.346,3.346,0,0,1,2.539,1.109A4.047,4.047,0,0,1,66.9,12.164a4.076,4.076,0,0,1-1.031,2.891,3.339,3.339,0,0,1-2.547,1.109,3.082,3.082,0,0,1-1.637-.445,2.818,2.818,0,0,1-1.1-1.211L60.555,16h-1.3V4h1.344L60.6,9.789a2.83,2.83,0,0,1,1.1-1.184A3.09,3.09,0,0,1,63.32,8.172Zm-.3,6.82a2.35,2.35,0,0,0,1.8-.785,2.889,2.889,0,0,0,.727-2.043,2.889,2.889,0,0,0-.727-2.043,2.35,2.35,0,0,0-1.8-.785,2.3,2.3,0,0,0-1.781.813,2.913,2.913,0,0,0-.727,2.016,2.919,2.919,0,0,0,.723,2.02A2.3,2.3,0,0,0,63.023,14.992Zm6.688-8.477A.92.92,0,0,1,68.8,5.6a.867.867,0,0,1,.27-.641.886.886,0,0,1,.645-.266.877.877,0,0,1,.637.266.867.867,0,0,1,.27.641.88.88,0,0,1-.27.645A.871.871,0,0,1,69.711,6.516ZM69.023,16V8.32h1.359V16Zm7.734-7.828a2.671,2.671,0,0,1,1.934.7,2.594,2.594,0,0,1,.723,1.961V16H78.063V11.133a1.816,1.816,0,0,0-.469-1.375,1.676,1.676,0,0,0-1.2-.445,1.858,1.858,0,0,0-1.367.527,2.14,2.14,0,0,0-.539,1.566V16H73.133V8.32h1.352V9.3A2.565,2.565,0,0,1,76.758,8.172ZM83.8,16.148a2.613,2.613,0,0,1-1.684-.527,1.894,1.894,0,0,1-.66-1.574,2.237,2.237,0,0,1,.211-1,1.77,1.77,0,0,1,.625-.7,3.749,3.749,0,0,1,.9-.434,8.341,8.341,0,0,1,1.168-.277l1.242-.2q.68-.125.68-.711a1.342,1.342,0,0,0-.48-1.145,1.958,1.958,0,0,0-1.215-.363,1.994,1.994,0,0,0-1.2.352,1.471,1.471,0,0,0-.57,1.078l-1.219-.258a2.346,2.346,0,0,1,.961-1.645,3.59,3.59,0,0,1,2.094-.551,4.247,4.247,0,0,1,1.113.137,3.025,3.025,0,0,1,.93.43,1.927,1.927,0,0,1,.664.828,3.081,3.081,0,0,1,.238,1.262v3.172a1.3,1.3,0,0,0,.176.8.759.759,0,0,0,.605.207H88.5V16h-.672a1.281,1.281,0,0,1-1.453-1.039h-.062A2.935,2.935,0,0,1,83.8,16.148Zm.313-1.094a2.049,2.049,0,0,0,1.648-.742,3.056,3.056,0,0,0,.625-2.031l-2.031.391a2.734,2.734,0,0,0-1.191.426.99.99,0,0,0-.387.84.979.979,0,0,0,.371.844A1.586,1.586,0,0,0,84.109,15.055ZM95.922,4h1.352V16h-1.3l-.031-1.492a2.826,2.826,0,0,1-1.094,1.211,3.048,3.048,0,0,1-1.625.445,3.49,3.49,0,0,1-2.535-1.082,3.7,3.7,0,0,1-.773-1.27,4.644,4.644,0,0,1-.285-1.648,4.038,4.038,0,0,1,1.043-2.883,3.367,3.367,0,0,1,2.551-1.109,3.061,3.061,0,0,1,1.605.434,2.842,2.842,0,0,1,1.1,1.176ZM93.5,14.992a2.3,2.3,0,0,0,1.785-.809,2.919,2.919,0,0,0,.723-2.02,2.913,2.913,0,0,0-.727-2.016A2.3,2.3,0,0,0,93.5,9.336a2.35,2.35,0,0,0-1.8.785,2.889,2.889,0,0,0-.727,2.043,2.889,2.889,0,0,0,.727,2.043A2.35,2.35,0,0,0,93.5,14.992Zm9.758,1.156a4.048,4.048,0,0,1-1.969-.477A3.47,3.47,0,0,1,99.9,14.277a4.283,4.283,0,0,1-.512-2.121,3.912,3.912,0,0,1,1.09-2.895,4.089,4.089,0,0,1,5.559,0,3.92,3.92,0,0,1,1.086,2.895,3.923,3.923,0,0,1-1.09,2.9A3.762,3.762,0,0,1,103.258,16.148Zm-.008-1.125a2.359,2.359,0,0,0,1.816-.789,2.957,2.957,0,0,0,.723-2.078,2.945,2.945,0,0,0-.723-2.07A2.359,2.359,0,0,0,103.25,9.3a2.326,2.326,0,0,0-1.8.789,2.965,2.965,0,0,0-.715,2.07,2.976,2.976,0,0,0,.715,2.078A2.326,2.326,0,0,0,103.25,15.023Zm8.422,1.125a3.641,3.641,0,0,1-2.07-.555,2.294,2.294,0,0,1-1.008-1.578l1.18-.336a1.645,1.645,0,0,0,.629,1.066,2.04,2.04,0,0,0,1.262.379,2.518,2.518,0,0,0,.738-.1,1.184,1.184,0,0,0,.566-.379,1.057,1.057,0,0,0,.164-1.016,1.357,1.357,0,0,0-.125-.254.774.774,0,0,0-.219-.211,2.885,2.885,0,0,0-.266-.164,2.726,2.726,0,0,0-.348-.145q-.23-.082-.371-.125t-.43-.125q-.289-.082-.445-.129a8.331,8.331,0,0,1-.8-.281,3.5,3.5,0,0,1-.648-.371,1.493,1.493,0,0,1-.5-.605,2.049,2.049,0,0,1-.168-.859,1.986,1.986,0,0,1,.375-1.227,2.11,2.11,0,0,1,.973-.723,3.888,3.888,0,0,1,1.363-.223,3.337,3.337,0,0,1,1.871.5,2.134,2.134,0,0,1,.934,1.5l-1.109.281a1.471,1.471,0,0,0-.586-.973,1.865,1.865,0,0,0-1.1-.324,1.9,1.9,0,0,0-1.031.27.906.906,0,0,0-.43.824.82.82,0,0,0,.113.426,1.352,1.352,0,0,0,.23.3,1.417,1.417,0,0,0,.422.23q.3.121.453.164t.563.145q.078.023.117.031.453.117.738.207a4.538,4.538,0,0,1,.664.281,2.208,2.208,0,0,1,.6.418,1.936,1.936,0,0,1,.375.594,2.1,2.1,0,0,1,.156.828,2.237,2.237,0,0,1-.23,1.035,1.8,1.8,0,0,1-.629.707,3.042,3.042,0,0,1-.895.387A4.262,4.262,0,0,1,111.672,16.148Z" transform="translate(473 1107)" fill="#fff"/>
    <rect id="Rectángulo_2906" data-name="Rectángulo 2906" width="46" height="46" rx="23" transform="translate(223 1159)" fill="#e6eef3"/>
    <path id="Trazado_10507" data-name="Trazado 10507" d="M22.152,14.4V11.383H19.137V9.672h3.016V6.664h1.7V9.672h3.008v1.711H23.855V14.4Z" transform="translate(223 1170)" fill="#00223d"/>
    <rect id="Rectángulo_2906-2" data-name="Rectángulo 2906" width="46" height="46" rx="23" transform="translate(529 1159)" fill="#e6eef3"/>
    <path id="Trazado_10511" data-name="Trazado 10511" d="M16.957,14.4V11.383H13.941V9.672h3.016V6.664h1.7V9.672h3.008v1.711H18.66V14.4Zm7.266-4.758V7.93h6.9V9.641Zm0,3.43V11.359h6.9V13.07Z" transform="translate(529 1170)" fill="#00223d"/>
    <rect id="Rectángulo_2906-3" data-name="Rectángulo 2906" width="46" height="46" rx="23" transform="translate(873 1073)" fill="#e6eef3"/>
    <path id="Trazado_10522" data-name="Trazado 10522" d="M14.359,9.641V7.93h6.9V9.641Zm0,3.43V11.359h6.9V13.07ZM24.75,9.641V7.93h6.9V9.641Zm0,3.43V11.359h6.9V13.07Z" transform="translate(873 1084)" fill="#00223d"/>
    <rect id="Rectángulo_2906-4" data-name="Rectángulo 2906" width="46" height="46" rx="23" transform="translate(380 1159)" fill="#e6eef3"/>
    <path id="Trazado_10509" data-name="Trazado 10509" d="M17.484,14.4V11.383H14.469V9.672h3.016V6.664h1.7V9.672H22.2v1.711H19.188V14.4Zm9.336,0V11.383H23.8V9.672H26.82V6.664h1.7V9.672h3.008v1.711H28.523V14.4Z" transform="translate(380 1170)" fill="#00223d"/>
    <rect id="Rectángulo_2907" data-name="Rectángulo 2907" width="46" height="46" rx="23" transform="translate(223 1215)" fill="#e6eef3"/>
    <path id="Trazado_10506" data-name="Trazado 10506" d="M20.2,12.781V10.9h5.6v1.883Z" transform="translate(223 1226)" fill="#00223d"/>
    <rect id="Rectángulo_2907-2" data-name="Rectángulo 2907" width="46" height="46" rx="23" transform="translate(529 1215)" fill="#e6eef3"/>
    <path id="Trazado_10513" data-name="Trazado 10513" d="M15,12.781V10.9h5.6v1.883ZM23.5,9.641V7.93h6.9V9.641Zm0,3.43V11.359h6.9V13.07Z" transform="translate(529 1226)" fill="#00223d"/>
    <rect id="Rectángulo_2907-3" data-name="Rectángulo 2907" width="46" height="46" rx="23" transform="translate(873 1129)" fill="#e6eef3"/>
    <path id="Trazado_10523" data-name="Trazado 10523" d="M16.887,12.4,16.66,4.711h2.266L18.7,12.4Zm.906,3.758a1.287,1.287,0,0,1-1.281-1.281,1.257,1.257,0,0,1,.375-.918,1.228,1.228,0,0,1,.906-.379,1.294,1.294,0,0,1,1.3,1.3,1.228,1.228,0,0,1-.379.906A1.257,1.257,0,0,1,17.793,16.156Zm4.375-6.516V7.93h6.9V9.641Zm0,3.43V11.359h6.9V13.07Z" transform="translate(873 1140)" fill="#00223d"/>
    <rect id="Rectángulo_2907-4" data-name="Rectángulo 2907" width="46" height="46" rx="23" transform="translate(380 1215)" fill="#e6eef3"/>
    <path id="Trazado_10510" data-name="Trazado 10510" d="M16.258,12.781V10.9h5.6v1.883Zm7.883,0V10.9h5.6v1.883Z" transform="translate(380 1226)" fill="#00223d"/>
    <rect id="Rectángulo_2908" data-name="Rectángulo 2908" width="46" height="46" rx="23" transform="translate(223 1271)" fill="#e6eef3"/>
    <path id="Trazado_10505" data-name="Trazado 10505" d="M22,9.688l-1.062-.641,1.25-1.539q.18-.219.094-.367t-.359-.1l-1.984.3V6.109l1.984.3q.273.047.359-.1t-.094-.367l-1.25-1.555L22,3.766l.734,1.867q.094.273.273.273t.273-.273L24,3.766l1.086.617L23.816,5.938q-.18.219-.094.367t.367.1l1.977-.3V7.344l-1.977-.3q-.281-.047-.367.1t.1.367L25.09,9.047,24,9.688l-.727-1.859q-.094-.273-.273-.273t-.273.273Z" transform="translate(223 1282)" fill="#00223d"/>
    <rect id="Rectángulo_2908-2" data-name="Rectángulo 2908" width="46" height="46" rx="23" transform="translate(529 1271)" fill="#e6eef3"/>
    <path id="Trazado_10514" data-name="Trazado 10514" d="M16.8,9.688l-1.062-.641,1.25-1.539q.18-.219.094-.367t-.359-.1l-1.984.3V6.109l1.984.3q.273.047.359-.1t-.094-.367l-1.25-1.555L16.8,3.766l.734,1.867q.094.273.273.273t.273-.273l.727-1.867,1.086.617L18.621,5.938q-.18.219-.094.367t.367.1l1.977-.3V7.344l-1.977-.3q-.281-.047-.367.1t.1.367l1.266,1.539-1.086.641-.727-1.859q-.094-.273-.273-.273t-.273.273Zm6.672-.047V7.93h6.9V9.641Zm0,3.43V11.359h6.9V13.07Z" transform="translate(529 1282)" fill="#00223d"/>
    <rect id="Rectángulo_2908-3" data-name="Rectángulo 2908" width="46" height="46" rx="23" transform="translate(873 1185)" fill="#e6eef3"/>
    <path id="Trazado_10524" data-name="Trazado 10524" d="M27.266,4.633V6.523L20.2,10.094l7.063,3.57v1.922l-8.828-4.469V9.063Z" transform="translate(873 1196)" fill="#00223d"/>
    <rect id="Rectángulo_2909" data-name="Rectángulo 2909" width="46" height="46" rx="23" transform="translate(223 1327)" fill="#e6eef3"/>
    <path id="Trazado_10504" data-name="Trazado 10504" d="M18.043,19.18,25.832,4h2.117L20.168,19.18Z" transform="translate(223 1338)" fill="#00223d"/>
    <rect id="Rectángulo_2909-2" data-name="Rectángulo 2909" width="46" height="46" rx="23" transform="translate(529 1327)" fill="#e6eef3"/>
    <path id="Trazado_10515" data-name="Trazado 10515" d="M12.848,19.18,20.637,4h2.117L14.973,19.18ZM24.316,9.641V7.93h6.9V9.641Zm0,3.43V11.359h6.9V13.07Z" transform="translate(529 1338)" fill="#00223d"/>
    <rect id="Rectángulo_2909-3" data-name="Rectángulo 2909" width="46" height="46" rx="23" transform="translate(873 1241)" fill="#e6eef3"/>
    <path id="Trazado_10525" data-name="Trazado 10525" d="M18.734,4.633l8.828,4.43v2.055l-8.828,4.469V13.664l7.063-3.57-7.062-3.57Z" transform="translate(873 1252)" fill="#00223d"/>
    <rect id="Rectángulo_2909-4" data-name="Rectángulo 2909" width="46" height="46" rx="23" transform="translate(223 1383)" fill="#e6eef3"/>
    <path id="Trazado_10503" data-name="Trazado 10503" d="M19.645,9.82a2.525,2.525,0,0,1-1.859-.77A2.554,2.554,0,0,1,17.02,7.18a2.542,2.542,0,0,1,.77-1.859,2.622,2.622,0,0,1,3.719,0,2.542,2.542,0,0,1,.77,1.859,2.557,2.557,0,0,1-.766,1.867A2.528,2.528,0,0,1,19.645,9.82Zm-.57,6.188L24.98,4.7h1.883l-5.914,11.3Zm.57-7.687A1.115,1.115,0,0,0,20.785,7.18a1.085,1.085,0,0,0-.336-.8,1.146,1.146,0,0,0-1.609,0,1.081,1.081,0,0,0-.336.8A1.127,1.127,0,0,0,19.645,8.32Zm6.727,7.813a2.632,2.632,0,0,1-1.867-4.5,2.551,2.551,0,0,1,1.867-.77,2.516,2.516,0,0,1,1.852.77,2.645,2.645,0,0,1,0,3.723A2.51,2.51,0,0,1,26.371,16.133Zm0-1.508a1.111,1.111,0,0,0,.8-.328,1.072,1.072,0,0,0,.336-.8,1.154,1.154,0,0,0-1.141-1.141,1.117,1.117,0,0,0-.816.328,1.1,1.1,0,0,0-.332.813,1.078,1.078,0,0,0,.332.8A1.117,1.117,0,0,0,26.371,14.625Z" transform="translate(223 1394)" fill="#00223d"/>
    <rect id="Rectángulo_2909-5" data-name="Rectángulo 2909" width="46" height="46" rx="23" transform="translate(529 1383)" fill="#e6eef3"/>
    <path id="Trazado_10516" data-name="Trazado 10516" d="M14.449,9.82a2.525,2.525,0,0,1-1.859-.77,2.554,2.554,0,0,1-.766-1.871,2.542,2.542,0,0,1,.77-1.859,2.622,2.622,0,0,1,3.719,0,2.542,2.542,0,0,1,.77,1.859,2.557,2.557,0,0,1-.766,1.867A2.528,2.528,0,0,1,14.449,9.82Zm-.57,6.188L19.785,4.7h1.883l-5.914,11.3Zm.57-7.687A1.115,1.115,0,0,0,15.59,7.18a1.085,1.085,0,0,0-.336-.8,1.146,1.146,0,0,0-1.609,0,1.081,1.081,0,0,0-.336.8A1.127,1.127,0,0,0,14.449,8.32Zm6.727,7.813a2.632,2.632,0,0,1-1.867-4.5,2.551,2.551,0,0,1,1.867-.77,2.516,2.516,0,0,1,1.852.77,2.645,2.645,0,0,1,0,3.723A2.51,2.51,0,0,1,21.176,16.133Zm0-1.508a1.111,1.111,0,0,0,.8-.328,1.072,1.072,0,0,0,.336-.8,1.154,1.154,0,0,0-1.141-1.141,1.117,1.117,0,0,0-.816.328,1.1,1.1,0,0,0-.332.813,1.078,1.078,0,0,0,.332.8A1.117,1.117,0,0,0,21.176,14.625Zm5.039-4.984V7.93h6.9V9.641Zm0,3.43V11.359h6.9V13.07Z" transform="translate(529 1394)" fill="#00223d"/>
    <rect id="Rectángulo_2906-5" data-name="Rectángulo 2906" width="46" height="46" rx="23" transform="translate(693 1073)" fill="#e6eef3"/>
    <path id="Trazado_10521" data-name="Trazado 10521" d="M28.414,16H25.836l-.742-.93a6.329,6.329,0,0,1-3.578,1.086,4.478,4.478,0,0,1-2.867-.879,2.941,2.941,0,0,1-1.109-2.441,2.97,2.97,0,0,1,.129-.895,3.047,3.047,0,0,1,.34-.738,3.373,3.373,0,0,1,.6-.676A8.64,8.64,0,0,1,19.4,9.9q.4-.281,1.043-.68L20.352,9.1a5.909,5.909,0,0,1-.785-1.23,2.54,2.54,0,0,1-.23-1.02,1.991,1.991,0,0,1,.875-1.711,3.524,3.524,0,0,1,2.141-.594,3.563,3.563,0,0,1,2.242.648,2.045,2.045,0,0,1,.836,1.7,2.193,2.193,0,0,1-.5,1.383,6.117,6.117,0,0,1-1.668,1.336L25.3,12.133a5.031,5.031,0,0,0,.891-2.789h2.031a6.523,6.523,0,0,1-.43,2.324,7.175,7.175,0,0,1-1.2,2.066Zm-6.7-9.75a.784.784,0,0,0-.258.633,1.17,1.17,0,0,0,.133.535,4.6,4.6,0,0,0,.461.684l.18.227q1.211-.727,1.211-1.477a.745.745,0,0,0-.289-.613,1.129,1.129,0,0,0-.727-.23A1.015,1.015,0,0,0,21.711,6.25Zm-.1,8.063a3.978,3.978,0,0,0,2.3-.727L21.539,10.6q-.359.219-.543.336t-.453.309a2.622,2.622,0,0,0-.4.336,3.689,3.689,0,0,0-.273.34,1.216,1.216,0,0,0-.2.406,1.8,1.8,0,0,0-.055.453,1.323,1.323,0,0,0,.539,1.137A2.41,2.41,0,0,0,21.609,14.313Z" transform="translate(693 1084)" fill="#00223d"/>
    <rect id="Rectángulo_2907-5" data-name="Rectángulo 2907" width="46" height="46" rx="23" transform="translate(693 1129)" fill="#e6eef3"/>
    <path id="Trazado_10520" data-name="Trazado 10520" d="M22.3,18.4V4h1.4V18.4Z" transform="translate(693 1140)" fill="#00223d"/>
    <rect id="Rectángulo_2908-4" data-name="Rectángulo 2908" width="46" height="46" rx="23" transform="translate(693 1185)" fill="#e6eef3"/>
    <path id="Trazado_10519" data-name="Trazado 10519" d="M22.234,16H19.656l-.742-.93a6.329,6.329,0,0,1-3.578,1.086,4.478,4.478,0,0,1-2.867-.879,2.941,2.941,0,0,1-1.109-2.441,2.97,2.97,0,0,1,.129-.895,3.047,3.047,0,0,1,.34-.738,3.373,3.373,0,0,1,.6-.676,8.64,8.64,0,0,1,.793-.629q.4-.281,1.043-.68L14.172,9.1a5.909,5.909,0,0,1-.785-1.23,2.54,2.54,0,0,1-.23-1.02,1.991,1.991,0,0,1,.875-1.711,3.524,3.524,0,0,1,2.141-.594,3.563,3.563,0,0,1,2.242.648,2.045,2.045,0,0,1,.836,1.7,2.193,2.193,0,0,1-.5,1.383,6.117,6.117,0,0,1-1.668,1.336l2.039,2.523a5.031,5.031,0,0,0,.891-2.789h2.031a6.523,6.523,0,0,1-.43,2.324,7.175,7.175,0,0,1-1.2,2.066Zm-6.7-9.75a.784.784,0,0,0-.258.633,1.17,1.17,0,0,0,.133.535,4.6,4.6,0,0,0,.461.684l.18.227q1.211-.727,1.211-1.477a.745.745,0,0,0-.289-.613,1.129,1.129,0,0,0-.727-.23A1.015,1.015,0,0,0,15.531,6.25Zm-.1,8.063a3.978,3.978,0,0,0,2.3-.727L15.359,10.6q-.359.219-.543.336t-.453.309a2.622,2.622,0,0,0-.4.336,3.689,3.689,0,0,0-.273.34,1.216,1.216,0,0,0-.2.406,1.8,1.8,0,0,0-.055.453,1.323,1.323,0,0,0,.539,1.137A2.41,2.41,0,0,0,15.43,14.313ZM34.594,16H32.016l-.742-.93A6.329,6.329,0,0,1,27.7,16.156a4.478,4.478,0,0,1-2.867-.879,2.941,2.941,0,0,1-1.109-2.441,2.97,2.97,0,0,1,.129-.895,3.047,3.047,0,0,1,.34-.738,3.373,3.373,0,0,1,.6-.676,8.64,8.64,0,0,1,.793-.629q.4-.281,1.043-.68L26.531,9.1a5.909,5.909,0,0,1-.785-1.23,2.54,2.54,0,0,1-.23-1.02,1.991,1.991,0,0,1,.875-1.711,3.524,3.524,0,0,1,2.141-.594,3.563,3.563,0,0,1,2.242.648,2.045,2.045,0,0,1,.836,1.7,2.193,2.193,0,0,1-.5,1.383,6.117,6.117,0,0,1-1.668,1.336l2.039,2.523a5.031,5.031,0,0,0,.891-2.789H34.4a6.523,6.523,0,0,1-.43,2.324,7.175,7.175,0,0,1-1.2,2.066Zm-6.7-9.75a.784.784,0,0,0-.258.633,1.17,1.17,0,0,0,.133.535,4.6,4.6,0,0,0,.461.684l.18.227q1.211-.727,1.211-1.477a.745.745,0,0,0-.289-.613,1.129,1.129,0,0,0-.727-.23A1.015,1.015,0,0,0,27.891,6.25Zm-.1,8.063a3.978,3.978,0,0,0,2.3-.727L27.719,10.6q-.359.219-.543.336t-.453.309a2.622,2.622,0,0,0-.4.336,3.689,3.689,0,0,0-.273.34,1.216,1.216,0,0,0-.2.406,1.8,1.8,0,0,0-.055.453,1.323,1.323,0,0,0,.539,1.137A2.41,2.41,0,0,0,27.789,14.313Z" transform="translate(693 1196)" fill="#00223d"/>
    <rect id="Rectángulo_2909-6" data-name="Rectángulo 2909" width="46" height="46" rx="23" transform="translate(693 1241)" fill="#e6eef3"/>
    <path id="Trazado_10518" data-name="Trazado 10518" d="M19.852,18.4V4h1.4V18.4Zm4.9,0V4h1.4V18.4Z" transform="translate(693 1252)" fill="#00223d"/>
    <rect id="Rectángulo_2909-7" data-name="Rectángulo 2909" width="46" height="46" rx="23" transform="translate(693 1297)" fill="#e6eef3"/>
    <path id="Trazado_10517" data-name="Trazado 10517" d="M22.082,12.4l-.227-7.687h2.266L23.895,12.4Zm.906,3.758a1.287,1.287,0,0,1-1.281-1.281,1.257,1.257,0,0,1,.375-.918,1.228,1.228,0,0,1,.906-.379,1.294,1.294,0,0,1,1.3,1.3,1.228,1.228,0,0,1-.379.906A1.257,1.257,0,0,1,22.988,16.156Z" transform="translate(693 1308)" fill="#00223d"/>
    <rect id="Rectángulo_2909-8" data-name="Rectángulo 2909" width="46" height="46" rx="23" transform="translate(873 1297)" fill="#e6eef3"/>
    <path id="Trazado_10526" data-name="Trazado 10526" d="M22.07,4.633V6.523l-7.062,3.57,7.063,3.57v1.922l-8.828-4.469V9.063ZM24.8,9.641V7.93h6.9V9.641Zm0,3.43V11.359h6.9V13.07Z" transform="translate(873 1308)" fill="#00223d"/>
    <rect id="Rectángulo_2909-9" data-name="Rectángulo 2909" width="46" height="46" rx="23" transform="translate(873 1353)" fill="#e6eef3"/>
    <path id="Trazado_10527" data-name="Trazado 10527" d="M13.539,4.633l8.828,4.43v2.055l-8.828,4.469V13.664l7.063-3.57-7.062-3.57ZM24.8,9.641V7.93h6.9V9.641Zm0,3.43V11.359h6.9V13.07Z" transform="translate(873 1364)" fill="#00223d"/>
    <rect id="Rectángulo_2903" data-name="Rectángulo 2903" width="160" height="46" rx="23" transform="translate(626 1010)" fill="#015e7a"/>
    <path id="Trazado_10529" data-name="Trazado 10529" d="M47.086,14.727h3.82V16H45.688V5h1.4ZM56.938,3.859,58.9,1.313l.719.523-1.75,2.023Zm.516,12.289a5.844,5.844,0,0,1-2.164-.395,5.226,5.226,0,0,1-1.738-1.109,4.948,4.948,0,0,1-1.156-1.785,6.456,6.456,0,0,1-.418-2.367A6.35,6.35,0,0,1,52.4,8.137a4.939,4.939,0,0,1,2.891-2.895,5.9,5.9,0,0,1,2.164-.391,5.8,5.8,0,0,1,2.148.395,5.183,5.183,0,0,1,1.734,1.109,5.024,5.024,0,0,1,1.156,1.781,6.35,6.35,0,0,1,.422,2.355,6.412,6.412,0,0,1-.422,2.363,5.011,5.011,0,0,1-1.156,1.789A5.183,5.183,0,0,1,59.6,15.754,5.8,5.8,0,0,1,57.453,16.148Zm0-1.32a3.931,3.931,0,0,0,2.91-1.16,4.308,4.308,0,0,0,1.152-3.176A5.044,5.044,0,0,0,61.2,8.664,3.766,3.766,0,0,0,60.332,7.3a3.8,3.8,0,0,0-1.289-.828,4.322,4.322,0,0,0-1.59-.289,4.374,4.374,0,0,0-1.6.289,3.838,3.838,0,0,0-1.3.828,3.739,3.739,0,0,0-.871,1.359,5.044,5.044,0,0,0-.316,1.828,5.13,5.13,0,0,0,.316,1.844,3.728,3.728,0,0,0,.871,1.367,3.888,3.888,0,0,0,1.3.832A4.323,4.323,0,0,0,57.453,14.828Zm12.82,1.32a5.874,5.874,0,0,1-2.145-.387A5.111,5.111,0,0,1,66.4,14.668a4.93,4.93,0,0,1-1.148-1.773,6.425,6.425,0,0,1-.418-2.363,6.144,6.144,0,0,1,.727-3.039A4.881,4.881,0,0,1,67.523,5.52a6.107,6.107,0,0,1,5.531-.012,4.754,4.754,0,0,1,1.93,1.906l-1.234.664a3.516,3.516,0,0,0-1.422-1.449,4.152,4.152,0,0,0-2.016-.488,4.374,4.374,0,0,0-1.6.289,3.628,3.628,0,0,0-2.156,2.211,5.3,5.3,0,0,0-.312,1.867,5.27,5.27,0,0,0,.309,1.852,3.787,3.787,0,0,0,.859,1.379,3.734,3.734,0,0,0,1.3.844,4.48,4.48,0,0,0,1.637.293,3.749,3.749,0,0,0,2.52-.855,3.594,3.594,0,0,0,1.184-2.441H70.344V10.391h5.078V16H74.273V13.938A3.851,3.851,0,0,1,72.7,15.574,4.893,4.893,0,0,1,70.273,16.148ZM78.336,16V5h1.4V16Zm9.563.148a5.844,5.844,0,0,1-2.164-.395A5.226,5.226,0,0,1,84,14.645a4.949,4.949,0,0,1-1.156-1.785,6.456,6.456,0,0,1-.418-2.367,6.35,6.35,0,0,1,.422-2.355,4.939,4.939,0,0,1,2.891-2.895A5.9,5.9,0,0,1,87.9,4.852a5.589,5.589,0,0,1,2.926.773,4.819,4.819,0,0,1,1.934,2.148L91.469,8.3a3.622,3.622,0,0,0-1.441-1.566A4.137,4.137,0,0,0,87.9,6.188a4.374,4.374,0,0,0-1.6.289A3.838,3.838,0,0,0,85,7.3a3.739,3.739,0,0,0-.871,1.359,5.044,5.044,0,0,0-.316,1.828,5.075,5.075,0,0,0,.316,1.832A3.733,3.733,0,0,0,85,13.688a3.888,3.888,0,0,0,1.3.832,4.323,4.323,0,0,0,1.6.293,4.137,4.137,0,0,0,2.129-.551A3.631,3.631,0,0,0,91.469,12.7l1.289.523a4.794,4.794,0,0,1-1.93,2.152A5.6,5.6,0,0,1,87.9,16.148Zm11.969,0a5.844,5.844,0,0,1-2.164-.395,5.226,5.226,0,0,1-1.738-1.109,4.949,4.949,0,0,1-1.156-1.785,6.456,6.456,0,0,1-.418-2.367,6.35,6.35,0,0,1,.422-2.355A4.939,4.939,0,0,1,97.7,5.242a5.9,5.9,0,0,1,2.164-.391,5.8,5.8,0,0,1,2.148.395,5.183,5.183,0,0,1,1.734,1.109,5.024,5.024,0,0,1,1.156,1.781,6.35,6.35,0,0,1,.422,2.355,6.412,6.412,0,0,1-.422,2.363,5.011,5.011,0,0,1-1.156,1.789,5.183,5.183,0,0,1-1.734,1.109A5.8,5.8,0,0,1,99.867,16.148Zm0-1.32a3.931,3.931,0,0,0,2.91-1.16,4.308,4.308,0,0,0,1.152-3.176,5.044,5.044,0,0,0-.316-1.828,3.766,3.766,0,0,0-.867-1.359,3.8,3.8,0,0,0-1.289-.828,4.322,4.322,0,0,0-1.59-.289,4.374,4.374,0,0,0-1.6.289,3.838,3.838,0,0,0-1.3.828A3.739,3.739,0,0,0,96.1,8.664a5.044,5.044,0,0,0-.316,1.828,5.13,5.13,0,0,0,.316,1.844,3.728,3.728,0,0,0,.871,1.367,3.888,3.888,0,0,0,1.3.832A4.323,4.323,0,0,0,99.867,14.828Zm11.367,1.32a5.021,5.021,0,0,1-2.871-.777,3.291,3.291,0,0,1-1.434-2.137l1.414-.336a2.319,2.319,0,0,0,.992,1.5,3.355,3.355,0,0,0,1.945.547,4.058,4.058,0,0,0,.727-.062,2.779,2.779,0,0,0,.66-.207,2.021,2.021,0,0,0,.543-.355,1.484,1.484,0,0,0,.359-.539,1.845,1.845,0,0,0,.125-.734,1.588,1.588,0,0,0-.1-.52,1.649,1.649,0,0,0-.219-.41,1.473,1.473,0,0,0-.371-.332,4.974,4.974,0,0,0-.445-.266,4.025,4.025,0,0,0-.551-.223q-.348-.117-.582-.184l-.633-.176q-.078-.023-.117-.031-.453-.117-.738-.2t-.684-.238a4.5,4.5,0,0,1-.652-.3,4.416,4.416,0,0,1-.535-.375,1.921,1.921,0,0,1-.441-.488,2.577,2.577,0,0,1-.266-.621,2.764,2.764,0,0,1-.105-.781,2.79,2.79,0,0,1,.512-1.687,2.994,2.994,0,0,1,1.32-1.031,4.793,4.793,0,0,1,1.816-.328,4.973,4.973,0,0,1,2.645.676,3.011,3.011,0,0,1,1.4,2l-1.359.344a2.069,2.069,0,0,0-.914-1.352,3.132,3.132,0,0,0-1.719-.453,3.4,3.4,0,0,0-.844.1,2.507,2.507,0,0,0-.73.313,1.517,1.517,0,0,0-.527.574,1.746,1.746,0,0,0-.2.84,1.35,1.35,0,0,0,.078.465,1.427,1.427,0,0,0,.2.371,1.39,1.39,0,0,0,.336.3,3.413,3.413,0,0,0,.41.242,4.157,4.157,0,0,0,.512.2q.32.105.547.172t.6.16a12.727,12.727,0,0,1,2.117.7,2.679,2.679,0,0,1,1.633,2.023,3.488,3.488,0,0,1,.031.477,3.074,3.074,0,0,1-.316,1.422,2.565,2.565,0,0,1-.867.984,4.146,4.146,0,0,1-1.234.551A5.661,5.661,0,0,1,111.234,16.148Z" transform="translate(626 1021)" fill="#fff"/>
    <rect id="Rectángulo_2904" data-name="Rectángulo 2904" width="160" height="46" rx="23" transform="translate(806 1010)" fill="#015e7a"/>
    <path id="Trazado_10528" data-name="Trazado 10528" d="M30.625,16V5h3.547a5.26,5.26,0,0,1,2.8.711,4.337,4.337,0,0,1,1.719,1.934,6.793,6.793,0,0,1,.559,2.848,7.2,7.2,0,0,1-.324,2.223,5.035,5.035,0,0,1-.949,1.738,4.164,4.164,0,0,1-1.6,1.141A5.681,5.681,0,0,1,34.172,16Zm1.4-1.273h2.1A3.35,3.35,0,0,0,36.871,13.6a4.756,4.756,0,0,0,.926-3.109,4.716,4.716,0,0,0-.93-3.094,3.352,3.352,0,0,0-2.742-1.125h-2.1ZM47.867,6.273H43.4v3.6h3.938v1.258H43.4v3.594h4.469V16h-5.9V5h5.9ZM60.656,16l-2.828-4.961H56.1V16H54.7V5h3.648a3.285,3.285,0,0,1,2.465.871,3.075,3.075,0,0,1,.848,2.238,2.753,2.753,0,0,1-2.437,2.875L62.289,16ZM56.1,6.227V9.938h2.063a2.3,2.3,0,0,0,1.609-.5,1.741,1.741,0,0,0,.539-1.348,1.772,1.772,0,0,0-.543-1.359,2.271,2.271,0,0,0-1.605-.508Zm14.461.047H66.094v3.6h3.938v1.258H66.094v3.594h4.469V16h-5.9V5h5.9Zm4.078,8.453h3.82V16H73.242V5h1.4ZM87.82,16l-.945-2.633H81.9L80.961,16H79.5L83.555,5h1.672l4.055,11Zm-5.477-3.867h4.094L84.391,6.406Zm13.281,4.016a5.844,5.844,0,0,1-2.164-.395,5.226,5.226,0,0,1-1.738-1.109,4.949,4.949,0,0,1-1.156-1.785,6.456,6.456,0,0,1-.418-2.367,6.35,6.35,0,0,1,.422-2.355,4.939,4.939,0,0,1,2.891-2.895,5.9,5.9,0,0,1,2.164-.391,5.589,5.589,0,0,1,2.926.773,4.819,4.819,0,0,1,1.934,2.148L99.2,8.3a3.622,3.622,0,0,0-1.441-1.566,4.137,4.137,0,0,0-2.129-.551,4.374,4.374,0,0,0-1.6.289,3.838,3.838,0,0,0-1.3.828,3.739,3.739,0,0,0-.871,1.359,5.044,5.044,0,0,0-.316,1.828,5.075,5.075,0,0,0,.316,1.832,3.733,3.733,0,0,0,.871,1.363,3.888,3.888,0,0,0,1.3.832,4.323,4.323,0,0,0,1.6.293,4.137,4.137,0,0,0,2.129-.551A3.631,3.631,0,0,0,99.2,12.7l1.289.523a4.794,4.794,0,0,1-1.93,2.152A5.6,5.6,0,0,1,95.625,16.148ZM102.883,16V5h1.4V16ZM111.93,3.859l1.961-2.547.719.523-1.75,2.023Zm.516,12.289a5.844,5.844,0,0,1-2.164-.395,5.226,5.226,0,0,1-1.738-1.109,4.949,4.949,0,0,1-1.156-1.785,6.456,6.456,0,0,1-.418-2.367,6.35,6.35,0,0,1,.422-2.355,4.939,4.939,0,0,1,2.891-2.895,5.9,5.9,0,0,1,2.164-.391,5.8,5.8,0,0,1,2.148.395,5.183,5.183,0,0,1,1.734,1.109,5.024,5.024,0,0,1,1.156,1.781,6.35,6.35,0,0,1,.422,2.355,6.412,6.412,0,0,1-.422,2.363,5.011,5.011,0,0,1-1.156,1.789,5.183,5.183,0,0,1-1.734,1.109A5.8,5.8,0,0,1,112.445,16.148Zm0-1.32a3.931,3.931,0,0,0,2.91-1.16,4.308,4.308,0,0,0,1.152-3.176,5.044,5.044,0,0,0-.316-1.828,3.766,3.766,0,0,0-.867-1.359,3.8,3.8,0,0,0-1.289-.828,4.322,4.322,0,0,0-1.59-.289,4.374,4.374,0,0,0-1.6.289,3.838,3.838,0,0,0-1.3.828,3.739,3.739,0,0,0-.871,1.359,5.044,5.044,0,0,0-.316,1.828,5.13,5.13,0,0,0,.316,1.844,3.728,3.728,0,0,0,.871,1.367,3.888,3.888,0,0,0,1.3.832A4.323,4.323,0,0,0,112.445,14.828ZM127.984,5h1.391V16H127.9l-5.93-8.9V16h-1.375V5h1.461l5.93,8.859Z" transform="translate(806 1021)" fill="#fff"/>
    <path id="Trazado_9604" data-name="Trazado 9604" d="M6022-5512v264" transform="translate(-5818 6654)" fill="none" stroke="#ff8f00" stroke-width="1"/>
    <path id="Trazado_9650" data-name="Trazado 9650" d="M6022-5512v264" transform="translate(-5512 6654)" fill="none" stroke="#ff8f00" stroke-width="1"/>
    <path id="Trazado_9655" data-name="Trazado 9655" d="M6022-5512v264" transform="translate(-5348 6568)" fill="none" stroke="#ff8f00" stroke-width="1"/>
    <path id="Trazado_9662" data-name="Trazado 9662" d="M6022-5512v320" transform="translate(-5168 6568)" fill="none" stroke="#ff8f00" stroke-width="1"/>
    <path id="Trazado_9645" data-name="Trazado 9645" d="M6022-5512v96" transform="translate(-5661 6654)" fill="none" stroke="#ff8f00" stroke-width="1"/>
    <path id="Trazado_9605" data-name="Trazado 9605" d="M6022-5489h19" transform="translate(-5818 6671)" fill="none" stroke="#ff8f00" stroke-width="1"/>
    <path id="Trazado_9653" data-name="Trazado 9653" d="M6022-5489h19" transform="translate(-5512 6671)" fill="none" stroke="#ff8f00" stroke-width="1"/>
    <path id="Trazado_9659" data-name="Trazado 9659" d="M6022-5489h19" transform="translate(-5348 6585)" fill="none" stroke="#ff8f00" stroke-width="1"/>
    <path id="Trazado_9665" data-name="Trazado 9665" d="M6022-5489h19" transform="translate(-5168 6585)" fill="none" stroke="#ff8f00" stroke-width="1"/>
    <path id="Trazado_9647" data-name="Trazado 9647" d="M6022-5489h19" transform="translate(-5661 6671)" fill="none" stroke="#ff8f00" stroke-width="1"/>
    <path id="Trazado_9606" data-name="Trazado 9606" d="M6022-5489h19" transform="translate(-5818 6727)" fill="none" stroke="#ff8f00" stroke-width="1"/>
    <path id="Trazado_9652" data-name="Trazado 9652" d="M6022-5489h19" transform="translate(-5512 6727)" fill="none" stroke="#ff8f00" stroke-width="1"/>
    <path id="Trazado_9658" data-name="Trazado 9658" d="M6022-5489h19" transform="translate(-5348 6641)" fill="none" stroke="#ff8f00" stroke-width="1"/>
    <path id="Trazado_9664" data-name="Trazado 9664" d="M6022-5489h19" transform="translate(-5168 6641)" fill="none" stroke="#ff8f00" stroke-width="1"/>
    <path id="Trazado_9646" data-name="Trazado 9646" d="M6022-5489h19" transform="translate(-5661 6727)" fill="none" stroke="#ff8f00" stroke-width="1"/>
    <path id="Trazado_9607" data-name="Trazado 9607" d="M6022-5489h19" transform="translate(-5818 6783)" fill="none" stroke="#ff8f00" stroke-width="1"/>
    <path id="Trazado_9651" data-name="Trazado 9651" d="M6022-5489h19" transform="translate(-5512 6783)" fill="none" stroke="#ff8f00" stroke-width="1"/>
    <path id="Trazado_9657" data-name="Trazado 9657" d="M6022-5489h19" transform="translate(-5348 6697)" fill="none" stroke="#ff8f00" stroke-width="1"/>
    <path id="Trazado_9663" data-name="Trazado 9663" d="M6022-5489h19" transform="translate(-5168 6697)" fill="none" stroke="#ff8f00" stroke-width="1"/>
    <path id="Trazado_9608" data-name="Trazado 9608" d="M6022-5489h19" transform="translate(-5818 6839)" fill="none" stroke="#ff8f00" stroke-width="1"/>
    <path id="Trazado_9648" data-name="Trazado 9648" d="M6022-5489h19" transform="translate(-5512 6839)" fill="none" stroke="#ff8f00" stroke-width="1"/>
    <path id="Trazado_9656" data-name="Trazado 9656" d="M6022-5489h19" transform="translate(-5348 6753)" fill="none" stroke="#ff8f00" stroke-width="1"/>
    <path id="Trazado_9660" data-name="Trazado 9660" d="M6022-5489h19" transform="translate(-5168 6753)" fill="none" stroke="#ff8f00" stroke-width="1"/>
    <path id="Trazado_9641" data-name="Trazado 9641" d="M6022-5489h19" transform="translate(-5818 6895)" fill="none" stroke="#ff8f00" stroke-width="1"/>
    <path id="Trazado_9649" data-name="Trazado 9649" d="M6022-5489h19" transform="translate(-5512 6895)" fill="none" stroke="#ff8f00" stroke-width="1"/>
    <path id="Trazado_9654" data-name="Trazado 9654" d="M6022-5489h19" transform="translate(-5348 6809)" fill="none" stroke="#ff8f00" stroke-width="1"/>
    <path id="Trazado_9661" data-name="Trazado 9661" d="M6022-5489h19" transform="translate(-5168 6809)" fill="none" stroke="#ff8f00" stroke-width="1"/>
    <path id="Trazado_9666" data-name="Trazado 9666" d="M6022-5489h19" transform="translate(-5168 6865)" fill="none" stroke="#ff8f00" stroke-width="1"/>
    <path id="Trazado_9624" data-name="Trazado 9624" d="M6087-5597h493" transform="translate(-5694 6585)" fill="none" stroke="#ff8f00" stroke-width="1"/>
    <path id="Trazado_9670" data-name="Trazado 9670" d="M6087-5597h298" transform="translate(-5842 6671)" fill="none" stroke="#ff8f00" stroke-width="1"/>
    <path id="Trazado_9625" data-name="Trazado 9625" d="M6171-5576v-22" transform="translate(-5778 6586)" fill="none" stroke="#ff8f00" stroke-width="1"/>
    <path id="Trazado_9667" data-name="Trazado 9667" d="M6171-5576v-22" transform="translate(-5926 6673)" fill="none" stroke="#ff8f00" stroke-width="1"/>
    <path id="Trazado_9668" data-name="Trazado 9668" d="M6171-5557v-41" transform="translate(-5777 6654)" fill="none" stroke="#ff8f00" stroke-width="1"/>
    <path id="Trazado_9669" data-name="Trazado 9669" d="M6171-5576v-22" transform="translate(-5628 6673)" fill="none" stroke="#ff8f00" stroke-width="1"/>
    <path id="Trazado_9627" data-name="Trazado 9627" d="M6171-5576v-22" transform="translate(-5465 6586)" fill="none" stroke="#ff8f00" stroke-width="1"/>
    <path id="Trazado_9628" data-name="Trazado 9628" d="M6171-5576v-22" transform="translate(-5285 6586)" fill="none" stroke="#ff8f00" stroke-width="1"/>
    <path id="Trazado_9629" data-name="Trazado 9629" d="M6336-5615v17.667" transform="translate(-5760 6585)" fill="none" stroke="#ff8f00" stroke-width="1"/>
  </g>
</svg>
