<svg xmlns="http://www.w3.org/2000/svg" width="115.636" height="106" viewBox="0 0 115.636 106">
  <g id="Grupo_9798" data-name="Grupo 9798" transform="translate(0 -21.333)">
    <path id="Trazado_8933" data-name="Trazado 8933" d="M134.155,214.376a3.615,3.615,0,0,0-5.112,5.112l13.105,13.105-13.1,13.1a3.613,3.613,0,1,0,5.107,5.112l15.659-15.659a3.614,3.614,0,0,0,0-5.112Z" transform="translate(-99.078 -148.625)" fill="#aac6dc"/>
    <path id="Trazado_8934" data-name="Trazado 8934" d="M281.3,352H259.614a3.614,3.614,0,1,0,0,7.227H281.3a3.614,3.614,0,1,0,0-7.227Z" transform="translate(-198.182 -255.986)" fill="#aac6dc"/>
    <path id="Trazado_8935" data-name="Trazado 8935" d="M102.386,21.333H13.25A13.261,13.261,0,0,0,0,34.583v79.5a13.261,13.261,0,0,0,13.25,13.25h89.136a13.261,13.261,0,0,0,13.25-13.25v-79.5A13.261,13.261,0,0,0,102.386,21.333ZM13.25,28.56h89.136a6.031,6.031,0,0,1,6.023,6.023V38.2H7.227V34.583A6.031,6.031,0,0,1,13.25,28.56Zm89.136,91.545H13.25a6.031,6.031,0,0,1-6.023-6.023V45.424H108.408v68.659A6.031,6.031,0,0,1,102.386,120.105Z" fill="#aac6dc"/>
  </g>
</svg>
